Pretension2VF-Black.ufo
<glyph name="ampersand" format="2">
  <advance width="1424"/>
  <unicode hex="0026"/>
  <outline>
    <contour>
      <point x="578" y="-24" type="qcurve" smooth="yes"/>
      <point x="418" y="-24"/>
      <point x="186" y="90"/>
      <point x="62" y="281"/>
      <point x="62" y="396" type="qcurve" smooth="yes"/>
      <point x="62" y="480"/>
      <point x="126" y="608"/>
      <point x="242" y="716"/>
      <point x="318" y="768" type="qcurve"/>
      <point x="656" y="978" type="line" smooth="yes"/>
      <point x="707" y="1010"/>
      <point x="744" y="1078"/>
      <point x="744" y="1106" type="qcurve" smooth="yes"/>
      <point x="744" y="1141"/>
      <point x="691" y="1196"/>
      <point x="636" y="1196" type="qcurve" smooth="yes"/>
      <point x="602" y="1196"/>
      <point x="553" y="1171"/>
      <point x="526" y="1125"/>
      <point x="526" y="1094" type="qcurve" smooth="yes"/>
      <point x="526" y="1051"/>
      <point x="575" y="961"/>
      <point x="661" y="858"/>
      <point x="714" y="794" type="qcurve"/>
      <point x="1436" y="0" type="line"/>
      <point x="1034" y="0" type="line"/>
      <point x="430" y="640" type="line" smooth="yes"/>
      <point x="385" y="688"/>
      <point x="278" y="825"/>
      <point x="200" y="998"/>
      <point x="200" y="1100" type="qcurve" smooth="yes"/>
      <point x="200" y="1214"/>
      <point x="309" y="1401"/>
      <point x="505" y="1512"/>
      <point x="636" y="1512" type="qcurve" smooth="yes"/>
      <point x="761" y="1512"/>
      <point x="942" y="1409"/>
      <point x="1040" y="1238"/>
      <point x="1040" y="1134" type="qcurve" smooth="yes"/>
      <point x="1040" y="1031"/>
      <point x="938" y="850"/>
      <point x="842" y="782" type="qcurve" smooth="yes"/>
      <point x="534" y="564" type="line" smooth="yes"/>
      <point x="499" y="539"/>
      <point x="446" y="475"/>
      <point x="446" y="424" type="qcurve" smooth="yes"/>
      <point x="446" y="382"/>
      <point x="486" y="322"/>
      <point x="558" y="290"/>
      <point x="606" y="290" type="qcurve" smooth="yes"/>
      <point x="681" y="290"/>
      <point x="830" y="362"/>
      <point x="953" y="493"/>
      <point x="1028" y="671"/>
      <point x="1028" y="776" type="qcurve"/>
      <point x="1346" y="776" type="line"/>
      <point x="1346" y="647"/>
      <point x="1292" y="407"/>
      <point x="1173" y="208"/>
      <point x="1076" y="140" type="qcurve"/>
      <point x="1045" y="124"/>
      <point x="987" y="97"/>
      <point x="956" y="82" type="qcurve"/>
      <point x="867" y="24"/>
      <point x="672" y="-24"/>
    </contour>
  </outline>
</glyph>
<glyph name="parenright" format="2">
  <advance width="794"/>
  <unicode hex="0029"/>
  <outline>
    <contour>
      <point x="42" y="-279" type="line"/>
      <point x="121" y="-83"/>
      <point x="214" y="219"/>
      <point x="256" y="477"/>
      <point x="256" y="607" type="qcurve" smooth="yes"/>
      <point x="256" y="761"/>
      <point x="205" y="1094"/>
      <point x="110" y="1428"/>
      <point x="42" y="1581" type="qcurve"/>
      <point x="408" y="1581" type="line"/>
      <point x="484" y="1463"/>
      <point x="600" y="1135"/>
      <point x="666" y="775"/>
      <point x="666" y="607" type="qcurve" smooth="yes"/>
      <point x="666" y="378"/>
      <point x="535" y="-74"/>
      <point x="408" y="-279" type="qcurve"/>
    </contour>
  </outline>
</glyph>
<glyph name="two" format="2">
  <advance width="1324"/>
  <unicode hex="0032"/>
  <anchor x="739" y="1490" name="m.uni030F_1"/>
  <outline>
    <contour>
      <point x="98" y="0" type="line"/>
      <point x="98" y="290" type="line"/>
      <point x="654" y="750" type="line" smooth="yes"/>
      <point x="709" y="796"/>
      <point x="789" y="877"/>
      <point x="832" y="963"/>
      <point x="832" y="1016" type="qcurve" smooth="yes"/>
      <point x="832" y="1073"/>
      <point x="783" y="1154"/>
      <point x="698" y="1198"/>
      <point x="642" y="1198" type="qcurve" smooth="yes"/>
      <point x="586" y="1198"/>
      <point x="501" y="1153"/>
      <point x="454" y="1067"/>
      <point x="454" y="1004" type="qcurve"/>
      <point x="70" y="1004" type="line"/>
      <point x="70" y="1161"/>
      <point x="211" y="1387"/>
      <point x="469" y="1510"/>
      <point x="642" y="1510" type="qcurve" smooth="yes"/>
      <point x="821" y="1510"/>
      <point x="1083" y="1396"/>
      <point x="1226" y="1189"/>
      <point x="1226" y="1050" type="qcurve" smooth="yes"/>
      <point x="1226" y="964"/>
      <point x="1155" y="795"/>
      <point x="971" y="589"/>
      <point x="800" y="448" type="qcurve" smooth="yes"/>
      <point x="660" y="332" type="line"/>
      <point x="660" y="322" type="line"/>
      <point x="1242" y="322" type="line"/>
      <point x="1242" y="0" type="line"/>
    </contour>
  </outline>
</glyph>
<glyph name="six.ss01" format="2">
  <advance width="1316"/>
  <unicode hex="0036"/>
  <unicode hex="E06F"/>
  <outline>
    <contour>
      <point x="666" y="-20" type="qcurve" smooth="yes"/>
      <point x="509" y="-20"/>
      <point x="238" y="94"/>
      <point x="70" y="322"/>
      <point x="70" y="492" type="qcurve" smooth="yes"/>
      <point x="70" y="618"/>
      <point x="165" y="850"/>
      <point x="244" y="968" type="qcurve" smooth="yes"/>
      <point x="596" y="1490" type="line"/>
      <point x="992" y="1490" type="line"/>
      <point x="550" y="840" type="line"/>
      <point x="412" y="840" type="line"/>
      <point x="434" y="871"/>
      <point x="536" y="934"/>
      <point x="683" y="976"/>
      <point x="774" y="976" type="qcurve" smooth="yes"/>
      <point x="913" y="976"/>
      <point x="1125" y="867"/>
      <point x="1246" y="659"/>
      <point x="1246" y="512" type="qcurve" smooth="yes"/>
      <point x="1246" y="349"/>
      <point x="1096" y="110"/>
      <point x="834" y="-20"/>
    </contour>
    <contour>
      <point x="662" y="286" type="qcurve" smooth="yes"/>
      <point x="723" y="286"/>
      <point x="816" y="341"/>
      <point x="870" y="437"/>
      <point x="870" y="498" type="qcurve" smooth="yes"/>
      <point x="870" y="559"/>
      <point x="816" y="655"/>
      <point x="723" y="710"/>
      <point x="662" y="710" type="qcurve" smooth="yes"/>
      <point x="604" y="710"/>
      <point x="510" y="655"/>
      <point x="456" y="559"/>
      <point x="456" y="498" type="qcurve" smooth="yes"/>
      <point x="456" y="437"/>
      <point x="510" y="341"/>
      <point x="604" y="286"/>
    </contour>
  </outline>
</glyph>
<glyph name="seven" format="2">
  <advance width="1226"/>
  <unicode hex="0037"/>
  <outline>
    <contour>
      <point x="166" y="0" type="line"/>
      <point x="750" y="1158" type="line"/>
      <point x="750" y="1166" type="line"/>
      <point x="64" y="1166" type="line"/>
      <point x="64" y="1490" type="line"/>
      <point x="1170" y="1490" type="line"/>
      <point x="1170" y="1166" type="line"/>
      <point x="582" y="0" type="line"/>
    </contour>
  </outline>
</glyph>
<glyph name="eight" format="2">
  <advance width="1390"/>
  <unicode hex="0038"/>
  <outline>
    <contour>
      <point x="694" y="-20" type="qcurve" smooth="yes"/>
      <point x="514" y="-20"/>
      <point x="232" y="92"/>
      <point x="70" y="284"/>
      <point x="70" y="404" type="qcurve" smooth="yes"/>
      <point x="70" y="496"/>
      <point x="162" y="649"/>
      <point x="319" y="751"/>
      <point x="416" y="766" type="qcurve"/>
      <point x="416" y="776" type="line"/>
      <point x="289" y="799"/>
      <point x="124" y="982"/>
      <point x="124" y="1106" type="qcurve" smooth="yes"/>
      <point x="124" y="1223"/>
      <point x="272" y="1405"/>
      <point x="530" y="1510"/>
      <point x="694" y="1510" type="qcurve" smooth="yes"/>
      <point x="859" y="1510"/>
      <point x="1118" y="1405"/>
      <point x="1266" y="1222"/>
      <point x="1266" y="1106" type="qcurve" smooth="yes"/>
      <point x="1266" y="981"/>
      <point x="1099" y="799"/>
      <point x="974" y="776" type="qcurve"/>
      <point x="974" y="766" type="line"/>
      <point x="1070" y="751"/>
      <point x="1227" y="649"/>
      <point x="1320" y="496"/>
      <point x="1320" y="404" type="qcurve" smooth="yes"/>
      <point x="1320" y="284"/>
      <point x="1158" y="92"/>
      <point x="875" y="-20"/>
    </contour>
    <contour>
      <point x="694" y="258" type="qcurve" smooth="yes"/>
      <point x="752" y="258"/>
      <point x="841" y="305"/>
      <point x="892" y="388"/>
      <point x="892" y="440" type="qcurve" smooth="yes"/>
      <point x="892" y="491"/>
      <point x="841" y="570"/>
      <point x="752" y="616"/>
      <point x="694" y="616" type="qcurve" smooth="yes"/>
      <point x="638" y="616"/>
      <point x="549" y="571"/>
      <point x="498" y="492"/>
      <point x="498" y="440" type="qcurve" smooth="yes"/>
      <point x="498" y="388"/>
      <point x="549" y="306"/>
      <point x="638" y="258"/>
    </contour>
    <contour>
      <point x="694" y="896" type="qcurve" smooth="yes"/>
      <point x="745" y="896"/>
      <point x="824" y="938"/>
      <point x="870" y="1012"/>
      <point x="870" y="1058" type="qcurve" smooth="yes"/>
      <point x="870" y="1105"/>
      <point x="824" y="1177"/>
      <point x="745" y="1218"/>
      <point x="694" y="1218" type="qcurve" smooth="yes"/>
      <point x="644" y="1218"/>
      <point x="565" y="1177"/>
      <point x="520" y="1105"/>
      <point x="520" y="1058" type="qcurve" smooth="yes"/>
      <point x="520" y="1012"/>
      <point x="565" y="939"/>
      <point x="644" y="896"/>
    </contour>
  </outline>
</glyph>
<glyph name="D" format="2">
  <advance width="1480"/>
  <unicode hex="0044"/>
  <anchor x="750" y="0" name="m.uni0326"/>
  <anchor x="596" y="1490" name="m.uni030F_1"/>
  <outline>
    <contour>
      <point x="670" y="0" type="qcurve" smooth="yes"/>
      <point x="262" y="0" type="line"/>
      <point x="262" y="344" type="line"/>
      <point x="654" y="344" type="line" smooth="yes"/>
      <point x="765" y="344"/>
      <point x="922" y="414"/>
      <point x="1004" y="589"/>
      <point x="1004" y="744" type="qcurve" smooth="yes"/>
      <point x="1004" y="900"/>
      <point x="920" y="1075"/>
      <point x="759" y="1146"/>
      <point x="642" y="1146" type="qcurve" smooth="yes"/>
      <point x="256" y="1146" type="line"/>
      <point x="256" y="1490" type="line"/>
      <point x="664" y="1490" type="line" smooth="yes"/>
      <point x="894" y="1490"/>
      <point x="1228" y="1311"/>
      <point x="1410" y="977"/>
      <point x="1410" y="744" type="qcurve" smooth="yes"/>
      <point x="1410" y="512"/>
      <point x="1229" y="178"/>
      <point x="897" y="0"/>
    </contour>
    <contour>
      <point x="500" y="1490" type="line"/>
      <point x="500" y="0" type="line"/>
      <point x="96" y="0" type="line"/>
      <point x="96" y="1490" type="line"/>
    </contour>
  </outline>
</glyph>
<glyph name="J" format="2">
  <advance width="1220"/>
  <unicode hex="004A"/>
  <anchor x="970" y="1490" name="m.uni030F_1"/>
  <outline>
    <contour>
      <point x="586" y="-20" type="qcurve" smooth="yes"/>
      <point x="324" y="-20"/>
      <point x="40" y="232"/>
      <point x="40" y="466" type="qcurve" smooth="yes"/>
      <point x="40" y="559" type="line"/>
      <point x="444" y="559" type="line"/>
      <point x="444" y="458" type="line" smooth="yes"/>
      <point x="444" y="376"/>
      <point x="518" y="294"/>
      <point x="586" y="294" type="qcurve" smooth="yes"/>
      <point x="654" y="294"/>
      <point x="726" y="376"/>
      <point x="726" y="460" type="qcurve" smooth="yes"/>
      <point x="726" y="1490" type="line"/>
      <point x="1124" y="1490" type="line"/>
      <point x="1124" y="468" type="line" smooth="yes"/>
      <point x="1124" y="233"/>
      <point x="845" y="-20"/>
    </contour>
  </outline>
</glyph>
<glyph name="m" format="2">
  <advance width="1932"/>
  <unicode hex="006D"/>
  <anchor x="1051" y="0" name="m.uni0326"/>
  <anchor x="1050" y="1118" name="m.uni030F_1"/>
  <outline>
    <contour>
      <point x="102" y="0" type="line"/>
      <point x="102" y="1118" type="line"/>
      <point x="469" y="1118" type="line"/>
      <point x="495" y="816" type="line"/>
      <point x="467" y="816" type="line"/>
      <point x="494" y="930"/>
      <point x="598" y="1069"/>
      <point x="737" y="1132"/>
      <point x="814" y="1132" type="qcurve" smooth="yes"/>
      <point x="933" y="1132"/>
      <point x="1079" y="976"/>
      <point x="1125" y="784" type="qcurve"/>
      <point x="1081" y="784" type="line"/>
      <point x="1110" y="912"/>
      <point x="1230" y="1065"/>
      <point x="1387" y="1132"/>
      <point x="1470" y="1132" type="qcurve" smooth="yes"/>
      <point x="1577" y="1132"/>
      <point x="1739" y="1038"/>
      <point x="1830" y="869"/>
      <point x="1830" y="754" type="qcurve" smooth="yes"/>
      <point x="1830" y="0" type="line"/>
      <point x="1428" y="0" type="line"/>
      <point x="1428" y="652" type="line" smooth="yes"/>
      <point x="1428" y="725"/>
      <point x="1354" y="808"/>
      <point x="1292" y="808" type="qcurve" smooth="yes"/>
      <point x="1251" y="808"/>
      <point x="1190" y="770"/>
      <point x="1158" y="701"/>
      <point x="1158" y="652" type="qcurve" smooth="yes"/>
      <point x="1158" y="0" type="line"/>
      <point x="774" y="0" type="line"/>
      <point x="774" y="652" type="line" smooth="yes"/>
      <point x="774" y="725"/>
      <point x="700" y="808"/>
      <point x="638" y="808" type="qcurve" smooth="yes"/>
      <point x="596" y="808"/>
      <point x="536" y="770"/>
      <point x="504" y="701"/>
      <point x="504" y="652" type="qcurve" smooth="yes"/>
      <point x="504" y="0" type="line"/>
    </contour>
  </outline>
</glyph>
<glyph name="x" format="2">
  <advance width="1248"/>
  <unicode hex="0078"/>
  <anchor x="680" y="0" name="m.uni0326"/>
  <anchor x="680" y="1118" name="m.uni030F_1"/>
  <outline>
    <contour>
      <point x="23" y="0" type="line"/>
      <point x="448" y="731" type="line"/>
      <point x="448" y="417" type="line"/>
      <point x="43" y="1118" type="line"/>
      <point x="464" y="1118" type="line"/>
      <point x="533" y="976" type="line" smooth="yes"/>
      <point x="576" y="888"/>
      <point x="652" y="698"/>
      <point x="689" y="609" type="qcurve"/>
      <point x="558" y="609" type="line"/>
      <point x="598" y="697"/>
      <point x="678" y="888"/>
      <point x="724" y="976" type="qcurve" smooth="yes"/>
      <point x="798" y="1118" type="line"/>
      <point x="1211" y="1118" type="line"/>
      <point x="794" y="418" type="line"/>
      <point x="794" y="731" type="line"/>
      <point x="1225" y="0" type="line"/>
      <point x="807" y="0" type="line"/>
      <point x="717" y="176" type="line" smooth="yes"/>
      <point x="671" y="265"/>
      <point x="590" y="459"/>
      <point x="550" y="548" type="qcurve"/>
      <point x="681" y="548" type="line"/>
      <point x="644" y="459"/>
      <point x="566" y="265"/>
      <point x="522" y="176" type="qcurve" smooth="yes"/>
      <point x="435" y="0" type="line"/>
    </contour>
  </outline>
</glyph>
<glyph name="copyright" format="2">
  <advance width="1874"/>
  <unicode hex="00A9"/>
  <outline>
    <contour>
      <point x="546" y="744" type="qcurve" smooth="yes"/>
      <point x="546" y="854"/>
      <point x="652" y="1033"/>
      <point x="833" y="1140"/>
      <point x="942" y="1140" type="qcurve" smooth="yes"/>
      <point x="1039" y="1140"/>
      <point x="1202" y="1054"/>
      <point x="1307" y="907"/>
      <point x="1316" y="814" type="qcurve"/>
      <point x="1074" y="814" type="line"/>
      <point x="1065" y="856"/>
      <point x="990" y="908"/>
      <point x="942" y="908" type="qcurve" smooth="yes"/>
      <point x="897" y="908"/>
      <point x="823" y="865"/>
      <point x="778" y="791"/>
      <point x="778" y="746" type="qcurve" smooth="yes"/>
      <point x="778" y="701"/>
      <point x="823" y="627"/>
      <point x="897" y="582"/>
      <point x="942" y="582" type="qcurve" smooth="yes"/>
      <point x="990" y="582"/>
      <point x="1065" y="634"/>
      <point x="1074" y="674" type="qcurve"/>
      <point x="1316" y="674" type="line"/>
      <point x="1307" y="582"/>
      <point x="1202" y="435"/>
      <point x="1039" y="350"/>
      <point x="942" y="350" type="qcurve" smooth="yes"/>
      <point x="833" y="350"/>
      <point x="652" y="457"/>
      <point x="546" y="636"/>
    </contour>
    <contour>
      <point x="936" y="-24" type="qcurve" smooth="yes"/>
      <point x="778" y="-24"/>
      <point x="500" y="96"/>
      <point x="288" y="307"/>
      <point x="168" y="585"/>
      <point x="168" y="744" type="qcurve"/>
      <point x="169" y="903"/>
      <point x="289" y="1182"/>
      <point x="500" y="1393"/>
      <point x="778" y="1512"/>
      <point x="936" y="1512" type="qcurve" smooth="yes"/>
      <point x="1096" y="1512"/>
      <point x="1374" y="1393"/>
      <point x="1585" y="1182"/>
      <point x="1704" y="903"/>
      <point x="1704" y="744" type="qcurve"/>
      <point x="1705" y="585"/>
      <point x="1586" y="307"/>
      <point x="1375" y="96"/>
      <point x="1096" y="-24"/>
    </contour>
    <contour>
      <point x="936" y="268" type="qcurve" smooth="yes"/>
      <point x="1035" y="268"/>
      <point x="1209" y="342"/>
      <point x="1340" y="473"/>
      <point x="1414" y="645"/>
      <point x="1414" y="744" type="qcurve" smooth="yes"/>
      <point x="1414" y="843"/>
      <point x="1340" y="1017"/>
      <point x="1209" y="1148"/>
      <point x="1035" y="1222"/>
      <point x="936" y="1222" type="qcurve" smooth="yes"/>
      <point x="838" y="1222"/>
      <point x="666" y="1147"/>
      <point x="534" y="1016"/>
      <point x="460" y="843"/>
      <point x="460" y="744" type="qcurve" smooth="yes"/>
      <point x="460" y="646"/>
      <point x="534" y="473"/>
      <point x="665" y="342"/>
      <point x="837" y="268"/>
    </contour>
  </outline>
</glyph>
<glyph name="ordfeminine" format="2">
  <advance width="1050"/>
  <unicode hex="00AA"/>
  <outline>
    <contour>
      <point x="652" y="862" type="qcurve" smooth="yes"/>
      <point x="652" y="1202" type="line" smooth="yes"/>
      <point x="652" y="1261"/>
      <point x="593" y="1330"/>
      <point x="530" y="1330" type="qcurve" smooth="yes"/>
      <point x="462" y="1330"/>
      <point x="386" y="1279"/>
      <point x="386" y="1230" type="qcurve"/>
      <point x="204" y="1242" type="line"/>
      <point x="204" y="1345"/>
      <point x="384" y="1478"/>
      <point x="530" y="1478" type="qcurve" smooth="yes"/>
      <point x="667" y="1478"/>
      <point x="834" y="1339"/>
      <point x="834" y="1202" type="qcurve" smooth="yes"/>
      <point x="834" y="888" type="line"/>
      <point x="835" y="848"/>
      <point x="845" y="754"/>
      <point x="864" y="704" type="qcurve"/>
      <point x="678" y="704" type="line"/>
      <point x="667" y="737"/>
      <point x="652" y="818"/>
    </contour>
    <contour>
      <point x="698" y="1150" type="line"/>
      <point x="698" y="1032" type="line"/>
      <point x="546" y="1032" type="line"/>
      <point x="458" y="1033"/>
      <point x="372" y="966"/>
      <point x="372" y="922" type="qcurve" smooth="yes"/>
      <point x="372" y="883"/>
      <point x="431" y="834"/>
      <point x="494" y="834" type="qcurve" smooth="yes"/>
      <point x="537" y="834"/>
      <point x="624" y="872"/>
      <point x="684" y="927"/>
      <point x="684" y="952" type="qcurve"/>
      <point x="702" y="832" type="line"/>
      <point x="677" y="782"/>
      <point x="555" y="692"/>
      <point x="448" y="692" type="qcurve" smooth="yes"/>
      <point x="324" y="692"/>
      <point x="190" y="817"/>
      <point x="190" y="920" type="qcurve" smooth="yes"/>
      <point x="190" y="1031"/>
      <point x="365" y="1150"/>
      <point x="546" y="1150" type="qcurve" smooth="yes"/>
    </contour>
  </outline>
</glyph>
<glyph name="logicalnot" format="2">
  <advance width="1242"/>
  <unicode hex="00AC"/>
  <outline>
    <contour>
      <point x="1062" y="806" type="line"/>
      <point x="1062" y="634" type="line"/>
      <point x="186" y="634" type="line"/>
      <point x="186" y="806" type="line"/>
    </contour>
    <contour>
      <point x="1062" y="728" type="line"/>
      <point x="1062" y="376" type="line"/>
      <point x="852" y="376" type="line"/>
      <point x="852" y="728" type="line"/>
    </contour>
  </outline>
</glyph>
<glyph name="degree" format="2">
  <advance width="948"/>
  <unicode hex="00B0"/>
  <outline>
    <contour>
      <point x="474" y="754" type="qcurve" smooth="yes"/>
      <point x="371" y="754"/>
      <point x="202" y="854"/>
      <point x="102" y="1023"/>
      <point x="102" y="1126" type="qcurve" smooth="yes"/>
      <point x="102" y="1229"/>
      <point x="202" y="1398"/>
      <point x="371" y="1498"/>
      <point x="474" y="1498" type="qcurve" smooth="yes"/>
      <point x="577" y="1498"/>
      <point x="746" y="1398"/>
      <point x="846" y="1229"/>
      <point x="846" y="1126" type="qcurve" smooth="yes"/>
      <point x="846" y="1023"/>
      <point x="746" y="854"/>
      <point x="577" y="754"/>
    </contour>
    <contour>
      <point x="474" y="1000" type="qcurve"/>
      <point x="509" y="1001"/>
      <point x="566" y="1035"/>
      <point x="600" y="1092"/>
      <point x="600" y="1126" type="qcurve" smooth="yes"/>
      <point x="600" y="1161"/>
      <point x="566" y="1217"/>
      <point x="509" y="1250"/>
      <point x="474" y="1250" type="qcurve" smooth="yes"/>
      <point x="440" y="1250"/>
      <point x="383" y="1217"/>
      <point x="350" y="1161"/>
      <point x="350" y="1126" type="qcurve" smooth="yes"/>
      <point x="350" y="1092"/>
      <point x="383" y="1035"/>
      <point x="440" y="1001"/>
    </contour>
  </outline>
</glyph>
<glyph name="questiondown" format="2">
  <advance width="1230"/>
  <unicode hex="00BF"/>
  <outline>
    <contour>
      <point x="834" y="652" type="line"/>
      <point x="834" y="618" type="line" smooth="yes"/>
      <point x="834" y="498"/>
      <point x="796" y="355"/>
      <point x="723" y="269"/>
      <point x="668" y="234" type="qcurve"/>
      <point x="599" y="188"/>
      <point x="506" y="103"/>
      <point x="506" y="42" type="qcurve" smooth="yes"/>
      <point x="506" y="6"/>
      <point x="541" y="-49"/>
      <point x="600" y="-80"/>
      <point x="636" y="-80" type="qcurve" smooth="yes"/>
      <point x="676" y="-80"/>
      <point x="742" y="-44"/>
      <point x="782" y="20"/>
      <point x="782" y="62" type="qcurve"/>
      <point x="1154" y="62" type="line"/>
      <point x="1154" y="-98"/>
      <point x="1012" y="-298"/>
      <point x="776" y="-392"/>
      <point x="634" y="-392" type="qcurve" smooth="yes"/>
      <point x="479" y="-392"/>
      <point x="233" y="-301"/>
      <point x="92" y="-118"/>
      <point x="92" y="18" type="qcurve" smooth="yes"/>
      <point x="92" y="151"/>
      <point x="225" y="320"/>
      <point x="332" y="382" type="qcurve" smooth="yes"/>
      <point x="385" y="413"/>
      <point x="456" y="477"/>
      <point x="492" y="560"/>
      <point x="492" y="618" type="qcurve" smooth="yes"/>
      <point x="492" y="652" type="line"/>
    </contour>
    <contour>
      <point x="663" y="1142" type="qcurve" smooth="yes"/>
      <point x="761" y="1142"/>
      <point x="877" y="1035"/>
      <point x="877" y="943" type="qcurve" smooth="yes"/>
      <point x="877" y="851"/>
      <point x="761" y="744"/>
      <point x="663" y="744" type="qcurve" smooth="yes"/>
      <point x="566" y="744"/>
      <point x="449" y="851"/>
      <point x="449" y="943" type="qcurve" smooth="yes"/>
      <point x="449" y="1035"/>
      <point x="566" y="1142"/>
    </contour>
  </outline>
</glyph>
<glyph name="uni0182" format="2">
  <advance width="1340"/>
  <unicode hex="0182"/>
  <outline>
    <contour>
      <point x="96" y="0" type="line"/>
      <point x="96" y="1490" type="line"/>
      <point x="1144" y="1490" type="line"/>
      <point x="1144" y="1164" type="line"/>
      <point x="500" y="1164" type="line"/>
      <point x="500" y="990" type="line"/>
      <point x="652" y="990" type="line" smooth="yes"/>
      <point x="840" y="990"/>
      <point x="1121" y="868"/>
      <point x="1278" y="649"/>
      <point x="1278" y="500" type="qcurve" smooth="yes"/>
      <point x="1278" y="352"/>
      <point x="1121" y="127"/>
      <point x="840" y="0"/>
      <point x="652" y="0" type="qcurve" smooth="yes"/>
    </contour>
    <contour>
      <point x="500" y="318" type="line"/>
      <point x="652" y="318" type="line" smooth="yes"/>
      <point x="725" y="318"/>
      <point x="824" y="366"/>
      <point x="876" y="450"/>
      <point x="876" y="504" type="qcurve" smooth="yes"/>
      <point x="876" y="580"/>
      <point x="761" y="680"/>
      <point x="652" y="680" type="qcurve" smooth="yes"/>
      <point x="500" y="680" type="line"/>
    </contour>
  </outline>
</glyph>
<glyph name="Epsilon1" format="2">
  <advance width="1382"/>
  <unicode hex="0190"/>
  <anchor x="750" y="1490" name="m.uni030F_1"/>
  <outline>
    <contour>
      <point x="702" y="-20" type="qcurve" smooth="yes"/>
      <point x="520" y="-20"/>
      <point x="240" y="94"/>
      <point x="82" y="297"/>
      <point x="82" y="428" type="qcurve" smooth="yes"/>
      <point x="82" y="519"/>
      <point x="162" y="662"/>
      <point x="322" y="753"/>
      <point x="442" y="766" type="qcurve"/>
      <point x="442" y="776" type="line"/>
      <point x="309" y="791"/>
      <point x="136" y="952"/>
      <point x="136" y="1076" type="qcurve" smooth="yes"/>
      <point x="136" y="1202"/>
      <point x="280" y="1398"/>
      <point x="533" y="1510"/>
      <point x="698" y="1510" type="qcurve" smooth="yes"/>
      <point x="867" y="1510"/>
      <point x="1129" y="1391"/>
      <point x="1278" y="1181"/>
      <point x="1278" y="1044" type="qcurve"/>
      <point x="890" y="1044" type="line"/>
      <point x="890" y="1090"/>
      <point x="841" y="1159"/>
      <point x="754" y="1198"/>
      <point x="698" y="1198" type="qcurve" smooth="yes"/>
      <point x="648" y="1198"/>
      <point x="570" y="1160"/>
      <point x="526" y="1094"/>
      <point x="526" y="1050" type="qcurve" smooth="yes"/>
      <point x="526" y="1005"/>
      <point x="578" y="936"/>
      <point x="670" y="896"/>
      <point x="730" y="896" type="qcurve" smooth="yes"/>
      <point x="882" y="896" type="line"/>
      <point x="882" y="616" type="line"/>
      <point x="730" y="616" type="line" smooth="yes"/>
      <point x="665" y="616"/>
      <point x="565" y="577"/>
      <point x="510" y="508"/>
      <point x="510" y="462" type="qcurve" smooth="yes"/>
      <point x="510" y="416"/>
      <point x="557" y="346"/>
      <point x="642" y="306"/>
      <point x="698" y="306" type="qcurve" smooth="yes"/>
      <point x="757" y="306"/>
      <point x="848" y="344"/>
      <point x="900" y="411"/>
      <point x="900" y="454" type="qcurve"/>
      <point x="1306" y="454" type="line"/>
      <point x="1306" y="315"/>
      <point x="1151" y="101"/>
      <point x="878" y="-20"/>
    </contour>
  </outline>
</glyph>
<glyph name="Ohorn" format="2">
  <advance width="1628"/>
  <unicode hex="01A0"/>
  <anchor x="791" y="0" name="m.uni0326"/>
  <anchor x="791" y="1490" name="m.uni030F_1"/>
  <anchor x="1562" y="744" name="m.uni0328_4"/>
  <outline>
    <contour>
      <point x="814" y="1270" type="qcurve"/>
      <point x="814" y="1510" type="line"/>
      <point x="857" y="1510"/>
      <point x="928" y="1504"/>
      <point x="1002" y="1496"/>
      <point x="1094" y="1490"/>
      <point x="1158" y="1490" type="qcurve" smooth="yes"/>
      <point x="1190" y="1490"/>
      <point x="1190" y="1522" type="qcurve" smooth="yes"/>
      <point x="1190" y="1698" type="line"/>
      <point x="1538" y="1698" type="line"/>
      <point x="1538" y="1490" type="line" smooth="yes"/>
      <point x="1538" y="1366"/>
      <point x="1388" y="1266"/>
      <point x="1280" y="1266" type="qcurve" smooth="yes"/>
      <point x="1222" y="1266"/>
      <point x="1105" y="1267"/>
      <point x="989" y="1269"/>
      <point x="872" y="1270"/>
    </contour>
    <contour>
      <point x="794" y="-20" type="qcurve" smooth="yes"/>
      <point x="591" y="-20"/>
      <point x="262" y="156"/>
      <point x="70" y="497"/>
      <point x="70" y="744" type="qcurve" smooth="yes"/>
      <point x="70" y="993"/>
      <point x="262" y="1335"/>
      <point x="591" y="1510"/>
      <point x="794" y="1510" type="qcurve" smooth="yes"/>
      <point x="997" y="1510"/>
      <point x="1325" y="1335"/>
      <point x="1518" y="993"/>
      <point x="1518" y="744" type="qcurve" smooth="yes"/>
      <point x="1518" y="496"/>
      <point x="1325" y="155"/>
      <point x="997" y="-20"/>
    </contour>
    <contour>
      <point x="794" y="332" type="qcurve" smooth="yes"/>
      <point x="895" y="332"/>
      <point x="1032" y="427"/>
      <point x="1102" y="611"/>
      <point x="1102" y="744" type="qcurve" smooth="yes"/>
      <point x="1102" y="878"/>
      <point x="1032" y="1063"/>
      <point x="895" y="1158"/>
      <point x="794" y="1158" type="qcurve" smooth="yes"/>
      <point x="694" y="1158"/>
      <point x="557" y="1063"/>
      <point x="486" y="878"/>
      <point x="486" y="744" type="qcurve" smooth="yes"/>
      <point x="486" y="611"/>
      <point x="557" y="427"/>
      <point x="694" y="332"/>
    </contour>
  </outline>
</glyph>
<glyph name="uni01A7" format="2">
  <advance width="1364"/>
  <unicode hex="01A7"/>
  <anchor x="748" y="0" name="m.uni0326"/>
  <anchor x="748" y="1490" name="m.uni030F_1"/>
  <anchor x="755" y="0" name="m.uni0327_3"/>
  <outline>
    <contour>
      <point x="662" y="-18" type="qcurve" smooth="yes"/>
      <point x="474" y="-18"/>
      <point x="203" y="88"/>
      <point x="58" y="293"/>
      <point x="58" y="440" type="qcurve" smooth="yes"/>
      <point x="58" y="525"/>
      <point x="111" y="669"/>
      <point x="224" y="784"/>
      <point x="401" y="870"/>
      <point x="524" y="896" type="qcurve" smooth="yes"/>
      <point x="646" y="922" type="line" smooth="yes"/>
      <point x="717" y="937"/>
      <point x="805" y="976"/>
      <point x="846" y="1029"/>
      <point x="846" y="1064" type="qcurve" smooth="yes"/>
      <point x="846" y="1097"/>
      <point x="808" y="1149"/>
      <point x="729" y="1178"/>
      <point x="666" y="1178" type="qcurve" smooth="yes"/>
      <point x="568" y="1178"/>
      <point x="471" y="1097"/>
      <point x="466" y="1024" type="qcurve"/>
      <point x="78" y="1024" type="line"/>
      <point x="79" y="1170"/>
      <point x="222" y="1389"/>
      <point x="485" y="1510"/>
      <point x="666" y="1510" type="qcurve" smooth="yes"/>
      <point x="843" y="1510"/>
      <point x="1115" y="1391"/>
      <point x="1268" y="1178"/>
      <point x="1268" y="1036" type="qcurve" smooth="yes"/>
      <point x="1268" y="861"/>
      <point x="1041" y="658"/>
      <point x="844" y="616" type="qcurve" smooth="yes"/>
      <point x="694" y="584" type="line" smooth="yes"/>
      <point x="612" y="567"/>
      <point x="513" y="525"/>
      <point x="470" y="474"/>
      <point x="470" y="440" type="qcurve" smooth="yes"/>
      <point x="470" y="403"/>
      <point x="515" y="346"/>
      <point x="604" y="314"/>
      <point x="668" y="314" type="qcurve" smooth="yes"/>
      <point x="746" y="314"/>
      <point x="857" y="362"/>
      <point x="919" y="456"/>
      <point x="922" y="524" type="qcurve"/>
      <point x="1306" y="524" type="line"/>
      <point x="1305" y="337"/>
      <point x="1145" y="97"/>
      <point x="857" y="-18"/>
    </contour>
  </outline>
</glyph>
<glyph name="uni01A8" format="2">
  <advance width="1204"/>
  <unicode hex="01A8"/>
  <outline>
    <contour>
      <point x="603" y="-20" type="qcurve" smooth="yes"/>
      <point x="755" y="-20"/>
      <point x="988" y="66"/>
      <point x="1133" y="225"/>
      <point x="1152" y="335" type="qcurve"/>
      <point x="780" y="389" type="line"/>
      <point x="760" y="323"/>
      <point x="670" y="252"/>
      <point x="585" y="252" type="qcurve" smooth="yes"/>
      <point x="526" y="252"/>
      <point x="460" y="288"/>
      <point x="460" y="322" type="qcurve" smooth="yes"/>
      <point x="460" y="354"/>
      <point x="522" y="392"/>
      <point x="588" y="404" type="qcurve" smooth="yes"/>
      <point x="786" y="440" type="line" smooth="yes"/>
      <point x="956" y="471"/>
      <point x="1126" y="636"/>
      <point x="1126" y="768" type="qcurve" smooth="yes"/>
      <point x="1126" y="885"/>
      <point x="1001" y="1047"/>
      <point x="770" y="1132"/>
      <point x="610" y="1132" type="qcurve" smooth="yes"/>
      <point x="462" y="1132"/>
      <point x="240" y="1055"/>
      <point x="105" y="911"/>
      <point x="88" y="809" type="qcurve"/>
      <point x="442" y="758" type="line"/>
      <point x="455" y="813"/>
      <point x="543" y="864"/>
      <point x="602" y="864" type="qcurve" smooth="yes"/>
      <point x="654" y="864"/>
      <point x="726" y="827"/>
      <point x="726" y="792" type="qcurve" smooth="yes"/>
      <point x="726" y="767"/>
      <point x="683" y="723"/>
      <point x="620" y="712" type="qcurve" smooth="yes"/>
      <point x="392" y="672" type="line" smooth="yes"/>
      <point x="221" y="642"/>
      <point x="52" y="494"/>
      <point x="52" y="370" type="qcurve" smooth="yes"/>
      <point x="52" y="250"/>
      <point x="195" y="75"/>
      <point x="443" y="-20"/>
    </contour>
  </outline>
</glyph>
<glyph name="eshlooprev" format="2">
  <advance width="1490"/>
  <unicode hex="01AA"/>
  <outline>
    <contour>
      <point x="712" y="896" type="line"/>
      <point x="1088" y="1100" type="line"/>
      <point x="1088" y="8" type="line" smooth="yes"/>
      <point x="1088" y="-63"/>
      <point x="1165" y="-142"/>
      <point x="1234" y="-142" type="qcurve" smooth="yes"/>
      <point x="1281" y="-142"/>
      <point x="1342" y="-134" type="qcurve"/>
      <point x="1342" y="-428" type="line"/>
      <point x="1299" y="-436"/>
      <point x="1216" y="-442"/>
      <point x="1166" y="-442" type="qcurve" smooth="yes"/>
      <point x="958" y="-442"/>
      <point x="712" y="-209"/>
      <point x="712" y="8" type="qcurve" smooth="yes"/>
    </contour>
    <contour>
      <point x="148" y="1100" type="qcurve"/>
      <point x="148" y="1224"/>
      <point x="273" y="1431"/>
      <point x="486" y="1556"/>
      <point x="616" y="1556" type="qcurve" smooth="yes"/>
      <point x="745" y="1556"/>
      <point x="960" y="1431"/>
      <point x="1088" y="1224"/>
      <point x="1088" y="1100" type="qcurve" smooth="yes"/>
      <point x="1088" y="975"/>
      <point x="960" y="766"/>
      <point x="745" y="642"/>
      <point x="616" y="642" type="qcurve" smooth="yes"/>
      <point x="488" y="642"/>
      <point x="276" y="766"/>
      <point x="149" y="974"/>
    </contour>
    <contour>
      <point x="620" y="954" type="qcurve" smooth="yes"/>
      <point x="678" y="954"/>
      <point x="764" y="1029"/>
      <point x="762" y="1102" type="qcurve"/>
      <point x="762" y="1175"/>
      <point x="676" y="1246"/>
      <point x="620" y="1246" type="qcurve" smooth="yes"/>
      <point x="553" y="1246"/>
      <point x="472" y="1173"/>
      <point x="472" y="1102" type="qcurve"/>
      <point x="471" y="1029"/>
      <point x="553" y="954"/>
    </contour>
  </outline>
</glyph>
<glyph name="uni01AC" format="2">
  <advance width="1546"/>
  <unicode hex="01AC"/>
  <anchor x="994" y="1490" name="m.uni030F_1"/>
  <outline>
    <contour>
      <point x="75" y="1024" type="line"/>
      <point x="75" y="1096" type="line" smooth="yes"/>
      <point x="75" y="1302"/>
      <point x="320" y="1490"/>
      <point x="587" y="1490" type="qcurve" smooth="yes"/>
      <point x="609" y="1490" type="line"/>
      <point x="609" y="1164" type="line"/>
      <point x="571" y="1164" type="line" smooth="yes"/>
      <point x="500" y="1164"/>
      <point x="429" y="1108"/>
      <point x="429" y="1052" type="qcurve" smooth="yes"/>
      <point x="429" y="1024" type="line"/>
    </contour>
    <contour>
      <point x="609" y="1164" type="line"/>
      <point x="609" y="1490" type="line"/>
      <point x="1490" y="1490" type="line"/>
      <point x="1490" y="1164" type="line"/>
      <point x="1045" y="1164" type="line"/>
      <point x="1045" y="0" type="line"/>
      <point x="641" y="0" type="line"/>
      <point x="641" y="1164" type="line"/>
    </contour>
  </outline>
</glyph>
<glyph name="uni01BC" format="2">
  <advance width="1370"/>
  <unicode hex="01BC"/>
  <outline>
    <component base="five"/>
    <contour>
      <point x="386" y="1490" type="line"/>
      <point x="386" y="1166" type="line"/>
      <point x="64" y="1166" type="line"/>
      <point x="64" y="1490" type="line"/>
    </contour>
  </outline>
</glyph>
<glyph name="glottalstopbarinv" format="2">
  <advance width="1228"/>
  <unicode hex="01BE"/>
  <outline>
    <contour>
      <point x="760" y="312" type="qcurve"/>
      <point x="760" y="348"/>
      <point x="705" y="396"/>
      <point x="617" y="441"/>
      <point x="518" y="501"/>
      <point x="429" y="594"/>
      <point x="373" y="739"/>
      <point x="372" y="846" type="qcurve"/>
      <point x="372" y="1358" type="line"/>
      <point x="750" y="1358" type="line"/>
      <point x="750" y="838" type="line"/>
      <point x="751" y="762"/>
      <point x="804" y="671"/>
      <point x="889" y="616"/>
      <point x="983" y="570"/>
      <point x="1067" y="508"/>
      <point x="1120" y="404"/>
      <point x="1120" y="318" type="qcurve" smooth="yes"/>
      <point x="1120" y="222"/>
      <point x="998" y="69"/>
      <point x="772" y="-20"/>
      <point x="616" y="-20" type="qcurve" smooth="yes"/>
      <point x="452" y="-20"/>
      <point x="225" y="95"/>
      <point x="108" y="267"/>
      <point x="108" y="350" type="qcurve"/>
      <point x="456" y="350" type="line"/>
      <point x="460" y="305"/>
      <point x="511" y="252"/>
      <point x="586" y="230"/>
      <point x="626" y="230" type="qcurve" smooth="yes"/>
      <point x="685" y="230"/>
      <point x="761" y="268"/>
    </contour>
    <contour>
      <point x="934" y="1082" type="line"/>
      <point x="934" y="814" type="line"/>
      <point x="238" y="814" type="line"/>
      <point x="238" y="1082" type="line"/>
    </contour>
  </outline>
</glyph>
<glyph name="uni01F6" format="2">
  <advance width="2312"/>
  <unicode hex="01F6"/>
  <outline>
    <contour>
      <point x="1624" y="-20" type="qcurve" smooth="yes"/>
      <point x="1442" y="-20"/>
      <point x="1178" y="111"/>
      <point x="1036" y="353"/>
      <point x="1036" y="520" type="qcurve" smooth="yes"/>
      <point x="1036" y="582" type="line"/>
      <point x="500" y="582" type="line"/>
      <point x="500" y="0" type="line"/>
      <point x="96" y="0" type="line"/>
      <point x="96" y="1490" type="line"/>
      <point x="500" y="1490" type="line"/>
      <point x="500" y="908" type="line"/>
      <point x="1036" y="908" type="line"/>
      <point x="1036" y="1490" type="line"/>
      <point x="1440" y="1490" type="line"/>
      <point x="1440" y="520" type="line" smooth="yes"/>
      <point x="1440" y="423"/>
      <point x="1539" y="312"/>
      <point x="1624" y="312" type="qcurve" smooth="yes"/>
      <point x="1709" y="312"/>
      <point x="1806" y="423"/>
      <point x="1806" y="520" type="qcurve" smooth="yes"/>
      <point x="1806" y="1068" type="line"/>
      <point x="2210" y="1068" type="line"/>
      <point x="2210" y="520" type="line"/>
      <point x="2211" y="353"/>
      <point x="2070" y="111"/>
      <point x="1807" y="-20"/>
    </contour>
  </outline>
</glyph>
<glyph name="uni01F7" format="2">
  <advance width="1694"/>
  <unicode hex="01F7"/>
  <outline>
    <contour>
      <point x="596" y="1490" type="line"/>
      <point x="596" y="-418" type="line"/>
      <point x="210" y="-418" type="line"/>
      <point x="210" y="1490" type="line"/>
    </contour>
    <contour>
      <point x="434" y="-192" type="qcurve"/>
      <point x="434" y="126" type="line"/>
      <point x="595" y="185"/>
      <point x="839" y="316"/>
      <point x="1004" y="471"/>
      <point x="1088" y="659"/>
      <point x="1088" y="774" type="qcurve" smooth="yes"/>
      <point x="1088" y="830" type="line" smooth="yes"/>
      <point x="1088" y="886"/>
      <point x="1077" y="1014"/>
      <point x="1034" y="1127"/>
      <point x="938" y="1198"/>
      <point x="854" y="1198" type="qcurve" smooth="yes"/>
      <point x="775" y="1198"/>
      <point x="624" y="1134"/>
      <point x="510" y="1027"/>
      <point x="486" y="962" type="qcurve"/>
      <point x="486" y="1376" type="line"/>
      <point x="529" y="1433"/>
      <point x="717" y="1510"/>
      <point x="850" y="1510" type="qcurve" smooth="yes"/>
      <point x="1035" y="1510"/>
      <point x="1324" y="1350"/>
      <point x="1490" y="1045"/>
      <point x="1490" y="826" type="qcurve" smooth="yes"/>
      <point x="1490" y="774" type="line"/>
      <point x="1489" y="618"/>
      <point x="1359" y="339"/>
      <point x="1097" y="96"/>
      <point x="701" y="-109"/>
    </contour>
  </outline>
</glyph>
<glyph name="uni0220" format="2">
  <advance width="1432"/>
  <unicode hex="0220"/>
  <outline>
    <contour>
      <point x="1282" y="-416" type="line"/>
      <point x="902" y="-416" type="line"/>
      <point x="902" y="1088" type="line" smooth="yes"/>
      <point x="902" y="1131"/>
      <point x="865" y="1186"/>
      <point x="793" y="1214"/>
      <point x="742" y="1214" type="qcurve" smooth="yes"/>
      <point x="609" y="1214"/>
      <point x="356" y="1034"/>
      <point x="238" y="862" type="qcurve"/>
      <point x="238" y="1218" type="line"/>
      <point x="350" y="1358"/>
      <point x="636" y="1510"/>
      <point x="800" y="1510" type="qcurve" smooth="yes"/>
      <point x="940" y="1510"/>
      <point x="1157" y="1404"/>
      <point x="1282" y="1214"/>
      <point x="1282" y="1088" type="qcurve" smooth="yes"/>
    </contour>
    <contour>
      <point x="530" y="1490" type="line"/>
      <point x="530" y="0" type="line"/>
      <point x="152" y="0" type="line"/>
      <point x="152" y="1490" type="line"/>
    </contour>
  </outline>
</glyph>
<glyph name="uni0222" format="2">
  <advance width="1428"/>
  <unicode hex="0222"/>
  <outline>
    <contour>
      <point x="706" y="954" type="qcurve" smooth="yes"/>
      <point x="728" y="954" type="line" smooth="yes"/>
      <point x="911" y="954"/>
      <point x="1169" y="844"/>
      <point x="1306" y="635"/>
      <point x="1306" y="486" type="qcurve" smooth="yes"/>
      <point x="1306" y="332"/>
      <point x="1163" y="105"/>
      <point x="904" y="-20"/>
      <point x="728" y="-20" type="qcurve" smooth="yes"/>
      <point x="706" y="-20" type="line" smooth="yes"/>
      <point x="529" y="-20"/>
      <point x="267" y="104"/>
      <point x="122" y="330"/>
      <point x="122" y="482" type="qcurve" smooth="yes"/>
      <point x="122" y="632"/>
      <point x="259" y="843"/>
      <point x="521" y="954"/>
    </contour>
    <contour>
      <point x="728" y="684" type="qcurve" smooth="yes"/>
      <point x="706" y="684" type="line" smooth="yes"/>
      <point x="621" y="684"/>
      <point x="520" y="574"/>
      <point x="520" y="482" type="qcurve" smooth="yes"/>
      <point x="520" y="394"/>
      <point x="622" y="286"/>
      <point x="706" y="286" type="qcurve" smooth="yes"/>
      <point x="728" y="286" type="line"/>
      <point x="811" y="285"/>
      <point x="908" y="392"/>
      <point x="908" y="486" type="qcurve" smooth="yes"/>
      <point x="908" y="578"/>
      <point x="811" y="684"/>
    </contour>
    <contour>
      <point x="704" y="998" type="qcurve" smooth="yes"/>
      <point x="724" y="998" type="line" smooth="yes"/>
      <point x="791" y="998"/>
      <point x="874" y="1017"/>
      <point x="914" y="1068"/>
      <point x="914" y="1114" type="qcurve" smooth="yes"/>
      <point x="914" y="1155"/>
      <point x="879" y="1200"/>
      <point x="838" y="1208" type="qcurve"/>
      <point x="838" y="1510" type="line"/>
      <point x="989" y="1513"/>
      <point x="1200" y="1418"/>
      <point x="1312" y="1239"/>
      <point x="1312" y="1114" type="qcurve" smooth="yes"/>
      <point x="1312" y="988"/>
      <point x="1173" y="817"/>
      <point x="911" y="730"/>
      <point x="724" y="730" type="qcurve" smooth="yes"/>
      <point x="704" y="730" type="line" smooth="yes"/>
      <point x="517" y="730"/>
      <point x="257" y="816"/>
      <point x="122" y="987"/>
      <point x="122" y="1114" type="qcurve" smooth="yes"/>
      <point x="122" y="1240"/>
      <point x="231" y="1419"/>
      <point x="442" y="1513"/>
      <point x="594" y="1510" type="qcurve"/>
      <point x="594" y="1208" type="line"/>
      <point x="552" y="1201"/>
      <point x="520" y="1156"/>
      <point x="520" y="1114" type="qcurve" smooth="yes"/>
      <point x="520" y="1066"/>
      <point x="557" y="1016"/>
      <point x="638" y="998"/>
    </contour>
  </outline>
</glyph>
<glyph name="uni0240" format="2">
  <advance width="1208"/>
  <unicode hex="0240"/>
  <outline>
    <contour>
      <point x="114" y="0" type="line"/>
      <point x="114" y="222" type="line"/>
      <point x="602" y="806" type="line"/>
      <point x="602" y="812" type="line"/>
      <point x="130" y="812" type="line"/>
      <point x="130" y="1118" type="line"/>
      <point x="1076" y="1118" type="line"/>
      <point x="1076" y="872" type="line"/>
      <point x="632" y="312" type="line"/>
      <point x="632" y="0" type="line"/>
    </contour>
    <contour>
      <point x="1215" y="-420" type="qcurve" smooth="yes"/>
      <point x="1089" y="-420"/>
      <point x="906" y="-344"/>
      <point x="774" y="-181"/>
      <point x="722" y="-53" type="qcurve"/>
      <point x="715" y="-34"/>
      <point x="696" y="-11"/>
      <point x="672" y="0"/>
      <point x="657" y="0" type="qcurve" smooth="yes"/>
      <point x="568" y="0" type="line"/>
      <point x="568" y="306" type="line"/>
      <point x="722" y="306" type="line" smooth="yes"/>
      <point x="777" y="306"/>
      <point x="892" y="257"/>
      <point x="986" y="158"/>
      <point x="1007" y="83" type="qcurve" smooth="yes"/>
      <point x="1027" y="13"/>
      <point x="1083" y="-75"/>
      <point x="1162" y="-116"/>
      <point x="1215" y="-116" type="qcurve" smooth="yes"/>
      <point x="1250" y="-116"/>
      <point x="1350" y="-81"/>
      <point x="1393" y="-58" type="qcurve"/>
      <point x="1526" y="-335" type="line"/>
      <point x="1452" y="-375"/>
      <point x="1301" y="-420"/>
    </contour>
  </outline>
</glyph>
<glyph name="aturn" format="2">
  <advance width="1222"/>
  <unicode hex="0250"/>
  <anchor x="616" y="0" name="m.uni0326"/>
  <anchor x="636" y="1118" name="m.uni030F_1"/>
  <anchor x="62" y="1118" name="m.uni0328_4"/>
  <outline>
    <contour>
      <point x="808" y="1136" type="qcurve" smooth="yes"/>
      <point x="916" y="1136"/>
      <point x="1080" y="1066"/>
      <point x="1172" y="921"/>
      <point x="1172" y="810" type="qcurve" smooth="yes"/>
      <point x="1172" y="718"/>
      <point x="1110" y="588"/>
      <point x="998" y="505"/>
      <point x="849" y="460"/>
      <point x="762" y="454" type="qcurve" smooth="yes"/>
      <point x="669" y="448"/>
      <point x="555" y="427"/>
      <point x="504" y="389"/>
      <point x="504" y="356" type="qcurve" smooth="yes"/>
      <point x="504" y="352" type="line" smooth="yes"/>
      <point x="504" y="324"/>
      <point x="535" y="283"/>
      <point x="592" y="262"/>
      <point x="630" y="262" type="qcurve" smooth="yes"/>
      <point x="668" y="262"/>
      <point x="730" y="284"/>
      <point x="772" y="328"/>
      <point x="778" y="362" type="qcurve"/>
      <point x="1140" y="326" type="line"/>
      <point x="1125" y="233"/>
      <point x="1000" y="78"/>
      <point x="781" y="-14"/>
      <point x="624" y="-14" type="qcurve" smooth="yes"/>
      <point x="505" y="-14"/>
      <point x="312" y="42"/>
      <point x="175" y="142"/>
      <point x="102" y="275"/>
      <point x="102" y="352" type="qcurve" smooth="yes"/>
      <point x="102" y="1118" type="line"/>
      <point x="478" y="1118" type="line"/>
      <point x="478" y="960" type="line"/>
      <point x="486" y="960" type="line"/>
      <point x="520" y="1023"/>
      <point x="615" y="1101"/>
      <point x="736" y="1136"/>
    </contour>
    <contour>
      <point x="678" y="882" type="qcurve" smooth="yes"/>
      <point x="633" y="882"/>
      <point x="551" y="845"/>
      <point x="500" y="773"/>
      <point x="500" y="722" type="qcurve" smooth="yes"/>
      <point x="500" y="630" type="line"/>
      <point x="516" y="636"/>
      <point x="552" y="648"/>
      <point x="593" y="658"/>
      <point x="636" y="666"/>
      <point x="660" y="670" type="qcurve" smooth="yes"/>
      <point x="707" y="678"/>
      <point x="766" y="711"/>
      <point x="794" y="758"/>
      <point x="794" y="786" type="qcurve" smooth="yes"/>
      <point x="794" y="818"/>
      <point x="764" y="860"/>
      <point x="712" y="882"/>
    </contour>
  </outline>
</glyph>
<glyph name="erev" format="2">
  <advance width="1222"/>
  <unicode hex="0258"/>
  <outline>
    <contour>
      <point x="562" y="-20" type="qcurve" smooth="yes"/>
      <point x="394" y="-20"/>
      <point x="160" y="95"/>
      <point x="104" y="162" type="qcurve"/>
      <point x="274" y="378" type="line"/>
      <point x="324" y="322"/>
      <point x="460" y="282"/>
      <point x="520" y="282" type="qcurve" smooth="yes"/>
      <point x="641" y="282"/>
      <point x="774" y="403"/>
      <point x="774" y="520" type="qcurve" smooth="yes"/>
      <point x="774" y="558" type="line" smooth="yes"/>
      <point x="774" y="593"/>
      <point x="766" y="686"/>
      <point x="733" y="774"/>
      <point x="658" y="832"/>
      <point x="592" y="832" type="qcurve" smooth="yes"/>
      <point x="523" y="832"/>
      <point x="436" y="756"/>
      <point x="436" y="678" type="qcurve" smooth="yes"/>
      <point x="436" y="664" type="line"/>
      <point x="1012" y="664" type="line"/>
      <point x="1012" y="434" type="line"/>
      <point x="72" y="434" type="line"/>
      <point x="72" y="590" type="line"/>
      <point x="73" y="848"/>
      <point x="354" y="1132"/>
      <point x="594" y="1132" type="qcurve" smooth="yes"/>
      <point x="783" y="1132"/>
      <point x="1030" y="975"/>
      <point x="1152" y="714"/>
      <point x="1152" y="558" type="qcurve" smooth="yes"/>
      <point x="1152" y="520" type="line"/>
      <point x="1153" y="377"/>
      <point x="1013" y="130"/>
      <point x="749" y="-20"/>
    </contour>
  </outline>
</glyph>
<glyph name="uni025A" format="2">
  <advance width="1882"/>
  <unicode hex="025A"/>
  <outline>
    <contour>
      <point x="632" y="1102" type="qcurve"/>
      <point x="820" y="1103"/>
      <point x="1083" y="953"/>
      <point x="1221" y="712"/>
      <point x="1222" y="574" type="qcurve"/>
      <point x="1222" y="538" type="line"/>
      <point x="1221" y="390"/>
      <point x="1103" y="135"/>
      <point x="860" y="-20"/>
      <point x="670" y="-20" type="qcurve" smooth="yes"/>
      <point x="509" y="-20"/>
      <point x="275" y="106"/>
      <point x="148" y="342"/>
      <point x="148" y="506" type="qcurve" smooth="yes"/>
      <point x="148" y="562" type="line"/>
      <point x="1106" y="798" type="line"/>
      <point x="1106" y="558" type="line"/>
      <point x="512" y="418" type="line"/>
      <point x="512" y="404" type="line" smooth="yes"/>
      <point x="512" y="361"/>
      <point x="545" y="307"/>
      <point x="616" y="282"/>
      <point x="672" y="282" type="qcurve" smooth="yes"/>
      <point x="736" y="282"/>
      <point x="808" y="339"/>
      <point x="840" y="423"/>
      <point x="849" y="509"/>
      <point x="850" y="538" type="qcurve"/>
      <point x="850" y="574" type="line"/>
      <point x="849" y="647"/>
      <point x="787" y="748"/>
      <point x="678" y="802"/>
      <point x="606" y="802" type="qcurve" smooth="yes"/>
      <point x="530" y="802"/>
      <point x="391" y="761"/>
      <point x="344" y="704" type="qcurve"/>
      <point x="180" y="922" type="line"/>
      <point x="212" y="965"/>
      <point x="339" y="1048"/>
      <point x="521" y="1103"/>
    </contour>
    <contour>
      <point x="1094" y="556" type="line"/>
      <point x="1094" y="792" type="line"/>
      <point x="1478" y="882" type="line"/>
      <point x="1498" y="766"/>
      <point x="1519" y="610"/>
      <point x="1569" y="532"/>
      <point x="1630" y="532" type="qcurve" smooth="yes"/>
      <point x="1641" y="532"/>
      <point x="1671" y="536"/>
      <point x="1690" y="536" type="qcurve"/>
      <point x="1736" y="302" type="line"/>
      <point x="1694" y="279"/>
      <point x="1600" y="254"/>
      <point x="1550" y="254" type="qcurve" smooth="yes"/>
      <point x="1444" y="254"/>
      <point x="1330" y="345"/>
      <point x="1274" y="500"/>
      <point x="1254" y="596" type="qcurve"/>
    </contour>
  </outline>
</glyph>
<glyph name="babygamma" format="2">
  <advance width="1356"/>
  <unicode hex="0264"/>
  <outline>
    <contour>
      <point x="184" y="762" type="qcurve"/>
      <point x="20" y="978" type="line"/>
      <point x="72" y="1039"/>
      <point x="220" y="1132"/>
      <point x="332" y="1132" type="qcurve" smooth="yes"/>
      <point x="402" y="1132"/>
      <point x="524" y="1083"/>
      <point x="649" y="968"/>
      <point x="792" y="771"/>
      <point x="882" y="622" type="qcurve" smooth="yes"/>
      <point x="926" y="549"/>
      <point x="993" y="419"/>
      <point x="1032" y="300"/>
      <point x="1032" y="240" type="qcurve" smooth="yes"/>
      <point x="1032" y="103"/>
      <point x="830" y="-20"/>
      <point x="678" y="-20" type="qcurve"/>
      <point x="678" y="230" type="line"/>
      <point x="697" y="230"/>
      <point x="709" y="253"/>
      <point x="710" y="262" type="qcurve"/>
      <point x="709" y="285"/>
      <point x="666" y="368"/>
      <point x="592" y="483"/>
      <point x="542" y="552" type="qcurve" smooth="yes"/>
      <point x="468" y="657"/>
      <point x="373" y="770"/>
      <point x="312" y="814"/>
      <point x="288" y="814" type="qcurve" smooth="yes"/>
      <point x="263" y="814"/>
      <point x="204" y="782"/>
    </contour>
    <contour>
      <point x="1338" y="978" type="qcurve"/>
      <point x="1170" y="762" type="line"/>
      <point x="1148" y="782"/>
      <point x="1090" y="814"/>
      <point x="1064" y="814" type="qcurve" smooth="yes"/>
      <point x="1035" y="814"/>
      <point x="979" y="772"/>
      <point x="911" y="687"/>
      <point x="864" y="622" type="qcurve" smooth="yes"/>
      <point x="787" y="516"/>
      <point x="688" y="372"/>
      <point x="642" y="285"/>
      <point x="642" y="262" type="qcurve" smooth="yes"/>
      <point x="642" y="253"/>
      <point x="655" y="230"/>
      <point x="678" y="230" type="qcurve"/>
      <point x="678" y="-20" type="line"/>
      <point x="522" y="-20"/>
      <point x="322" y="106"/>
      <point x="322" y="240" type="qcurve" smooth="yes"/>
      <point x="322" y="299"/>
      <point x="362" y="420"/>
      <point x="436" y="558"/>
      <point x="486" y="642" type="qcurve" smooth="yes"/>
      <point x="570" y="783"/>
      <point x="708" y="972"/>
      <point x="830" y="1084"/>
      <point x="954" y="1132"/>
      <point x="1024" y="1132" type="qcurve" smooth="yes"/>
      <point x="1137" y="1132"/>
      <point x="1283" y="1039"/>
    </contour>
  </outline>
</glyph>
<glyph name="mturndescend" format="2">
  <advance width="1932"/>
  <unicode hex="0270"/>
  <anchor x="1050" y="0" name="m.uni0326"/>
  <anchor x="1051" y="1118" name="m.uni030F_1"/>
  <outline>
    <contour>
      <point x="1450" y="-418" type="line"/>
      <point x="1450" y="0" type="line"/>
      <point x="1830" y="0" type="line"/>
      <point x="1830" y="-418" type="line"/>
    </contour>
    <contour>
      <point x="1830" y="1118" type="line"/>
      <point x="1830" y="0" type="line"/>
      <point x="1463" y="0" type="line"/>
      <point x="1437" y="302" type="line"/>
      <point x="1465" y="302" type="line"/>
      <point x="1439" y="188"/>
      <point x="1334" y="49"/>
      <point x="1195" y="-14"/>
      <point x="1118" y="-14" type="qcurve" smooth="yes"/>
      <point x="1000" y="-14"/>
      <point x="853" y="142"/>
      <point x="807" y="334" type="qcurve"/>
      <point x="851" y="334" type="line"/>
      <point x="822" y="206"/>
      <point x="702" y="53"/>
      <point x="546" y="-14"/>
      <point x="462" y="-14" type="qcurve" smooth="yes"/>
      <point x="356" y="-14"/>
      <point x="193" y="80"/>
      <point x="102" y="250"/>
      <point x="102" y="364" type="qcurve" smooth="yes"/>
      <point x="102" y="1118" type="line"/>
      <point x="504" y="1118" type="line"/>
      <point x="504" y="466" type="line" smooth="yes"/>
      <point x="504" y="393"/>
      <point x="578" y="310"/>
      <point x="640" y="310" type="qcurve" smooth="yes"/>
      <point x="682" y="310"/>
      <point x="742" y="348"/>
      <point x="774" y="418"/>
      <point x="774" y="466" type="qcurve" smooth="yes"/>
      <point x="774" y="1118" type="line"/>
      <point x="1158" y="1118" type="line"/>
      <point x="1158" y="466" type="line" smooth="yes"/>
      <point x="1158" y="393"/>
      <point x="1233" y="310"/>
      <point x="1294" y="310" type="qcurve" smooth="yes"/>
      <point x="1336" y="310"/>
      <point x="1396" y="348"/>
      <point x="1428" y="418"/>
      <point x="1428" y="466" type="qcurve" smooth="yes"/>
      <point x="1428" y="1118" type="line"/>
    </contour>
  </outline>
</glyph>
<glyph name="uni027E" format="2">
  <advance width="812"/>
  <unicode hex="027E"/>
  <outline>
    <contour>
      <point x="102" y="0" type="line"/>
      <point x="102" y="712" type="line" smooth="yes"/>
      <point x="102" y="854"/>
      <point x="230" y="1040"/>
      <point x="470" y="1132"/>
      <point x="637" y="1132" type="qcurve" smooth="yes"/>
      <point x="669" y="1132"/>
      <point x="721" y="1128"/>
      <point x="764" y="1123"/>
      <point x="782" y="1119" type="qcurve"/>
      <point x="782" y="796" type="line"/>
      <point x="753" y="802"/>
      <point x="693" y="806"/>
      <point x="664" y="806" type="qcurve" smooth="yes"/>
      <point x="614" y="806"/>
      <point x="542" y="763"/>
      <point x="504" y="684"/>
      <point x="504" y="628" type="qcurve" smooth="yes"/>
      <point x="504" y="0" type="line"/>
    </contour>
  </outline>
</glyph>
<glyph name="rfishhookrev" format="2">
  <advance width="812"/>
  <unicode hex="027F"/>
  <outline>
    <contour>
      <point x="710" y="0" type="line"/>
      <point x="308" y="0" type="line"/>
      <point x="308" y="628" type="line" smooth="yes"/>
      <point x="308" y="684"/>
      <point x="270" y="763"/>
      <point x="199" y="806"/>
      <point x="148" y="806" type="qcurve" smooth="yes"/>
      <point x="119" y="806"/>
      <point x="59" y="802"/>
      <point x="30" y="796" type="qcurve"/>
      <point x="30" y="1119" type="line"/>
      <point x="49" y="1123"/>
      <point x="91" y="1128"/>
      <point x="143" y="1132"/>
      <point x="175" y="1132" type="qcurve" smooth="yes"/>
      <point x="342" y="1132"/>
      <point x="582" y="1040"/>
      <point x="710" y="854"/>
      <point x="710" y="712" type="qcurve" smooth="yes"/>
    </contour>
  </outline>
</glyph>
<glyph name="uni0289" format="2">
  <advance width="1486"/>
  <unicode hex="0289"/>
  <anchor x="834" y="0" name="m.uni0326"/>
  <anchor x="803" y="1118" name="m.uni030F_1"/>
  <anchor x="1478" y="0" name="m.uni0328_4"/>
  <outline>
    <contour>
      <point x="1466" y="726" type="line"/>
      <point x="1466" y="583" type="line"/>
      <point x="20" y="583" type="line"/>
      <point x="20" y="726" type="line"/>
    </contour>
    <contour>
      <point x="570" y="-14" type="qcurve" smooth="yes"/>
      <point x="452" y="-14"/>
      <point x="276" y="94"/>
      <point x="180" y="284"/>
      <point x="180" y="406" type="qcurve" smooth="yes"/>
      <point x="180" y="1118" type="line"/>
      <point x="582" y="1118" type="line"/>
      <point x="582" y="490" type="line" smooth="yes"/>
      <point x="582" y="407"/>
      <point x="666" y="312"/>
      <point x="742" y="312" type="qcurve" smooth="yes"/>
      <point x="792" y="312"/>
      <point x="864" y="355"/>
      <point x="904" y="435"/>
      <point x="904" y="490" type="qcurve" smooth="yes"/>
      <point x="904" y="1118" type="line"/>
      <point x="1306" y="1118" type="line"/>
      <point x="1306" y="0" type="line"/>
      <point x="929" y="0" type="line"/>
      <point x="921" y="286" type="line"/>
      <point x="933" y="286" type="line"/>
      <point x="895" y="159"/>
      <point x="724" y="-14"/>
    </contour>
  </outline>
</glyph>
<glyph name="uni0293" format="2">
  <advance width="1452"/>
  <unicode hex="0293"/>
  <outline>
    <contour>
      <point x="596" y="-442" type="qcurve" smooth="yes"/>
      <point x="515" y="-442"/>
      <point x="334" y="-406"/>
      <point x="176" y="-326"/>
      <point x="76" y="-197"/>
      <point x="76" y="-104" type="qcurve" smooth="yes"/>
      <point x="76" y="-11"/>
      <point x="181" y="121"/>
      <point x="371" y="192"/>
      <point x="498" y="192" type="qcurve" smooth="yes"/>
      <point x="583" y="192"/>
      <point x="736" y="162"/>
      <point x="870" y="105"/>
      <point x="926" y="64" type="qcurve" smooth="yes"/>
      <point x="1370" y="-254" type="line"/>
      <point x="1222" y="-442" type="line"/>
      <point x="794" y="-134" type="line" smooth="yes"/>
      <point x="732" y="-89"/>
      <point x="581" y="-38"/>
      <point x="512" y="-38" type="qcurve" smooth="yes"/>
      <point x="471" y="-38"/>
      <point x="424" y="-65"/>
      <point x="424" y="-88" type="qcurve" smooth="yes"/>
      <point x="424" y="-104"/>
      <point x="476" y="-129"/>
      <point x="573" y="-142"/>
      <point x="640" y="-142" type="qcurve" smooth="yes"/>
      <point x="724" y="-142"/>
      <point x="826" y="-79"/>
      <point x="872" y="24"/>
      <point x="872" y="84" type="qcurve" smooth="yes"/>
      <point x="872" y="130"/>
      <point x="822" y="202"/>
      <point x="727" y="244"/>
      <point x="660" y="244" type="qcurve" smooth="yes"/>
      <point x="454" y="244" type="line"/>
      <point x="454" y="512" type="line"/>
      <point x="768" y="792" type="line"/>
      <point x="768" y="802" type="line"/>
      <point x="158" y="802" type="line"/>
      <point x="158" y="1118" type="line"/>
      <point x="1248" y="1118" type="line"/>
      <point x="1248" y="852" type="line"/>
      <point x="834" y="474" type="line"/>
      <point x="834" y="462" type="line"/>
      <point x="929" y="453"/>
      <point x="1071" y="378"/>
      <point x="1168" y="258"/>
      <point x="1216" y="103"/>
      <point x="1216" y="14" type="qcurve" smooth="yes"/>
      <point x="1216" y="-85"/>
      <point x="1140" y="-252"/>
      <point x="987" y="-374"/>
      <point x="754" y="-442"/>
    </contour>
  </outline>
</glyph>
<glyph name="uni02BF" format="2">
  <advance width="332"/>
  <unicode hex="02BF"/>
  <outline>
    <contour>
      <point x="286" y="1108" type="line"/>
      <point x="201" y="1108"/>
      <point x="78" y="1216"/>
      <point x="78" y="1304" type="qcurve" smooth="yes"/>
      <point x="78" y="1393"/>
      <point x="201" y="1506"/>
      <point x="286" y="1506" type="qcurve"/>
      <point x="286" y="1366" type="line"/>
      <point x="257" y="1366"/>
      <point x="218" y="1331"/>
      <point x="218" y="1304" type="qcurve" smooth="yes"/>
      <point x="218" y="1279"/>
      <point x="257" y="1246"/>
      <point x="286" y="1246" type="qcurve"/>
    </contour>
  </outline>
</glyph>
<glyph name="uni02C0" format="2">
  <advance width="1050"/>
  <unicode hex="02C0"/>
  <outline>
    <contour>
      <point x="184" y="1528" type="line"/>
      <point x="181" y="1669"/>
      <point x="366" y="1810"/>
      <point x="514" y="1810" type="qcurve" smooth="yes"/>
      <point x="631" y="1810"/>
      <point x="789" y="1727"/>
      <point x="870" y="1558"/>
      <point x="870" y="1428" type="qcurve" smooth="yes"/>
      <point x="870" y="1172" type="line"/>
      <point x="869" y="1015"/>
      <point x="688" y="832"/>
      <point x="512" y="832" type="qcurve" smooth="yes"/>
      <point x="398" y="832" type="line"/>
      <point x="398" y="1036" type="line"/>
      <point x="468" y="1036" type="line" smooth="yes"/>
      <point x="506" y="1036"/>
      <point x="567" y="1058"/>
      <point x="605" y="1112"/>
      <point x="606" y="1158" type="qcurve"/>
      <point x="606" y="1416" type="line"/>
      <point x="605" y="1506"/>
      <point x="581" y="1608"/>
      <point x="520" y="1608" type="qcurve" smooth="yes"/>
      <point x="468" y="1608"/>
      <point x="431" y="1554"/>
      <point x="434" y="1528" type="qcurve"/>
    </contour>
    <contour>
      <point x="382" y="1036" type="line"/>
      <point x="646" y="1036" type="line"/>
      <point x="646" y="654" type="line"/>
      <point x="382" y="654" type="line"/>
    </contour>
  </outline>
</glyph>
<glyph name="hungarumlaut" format="2">
  <advance width="1232"/>
  <unicode hex="02DD"/>
  <outline>
    <contour>
      <point x="434" y="1256" type="line"/>
      <point x="170" y="1256" type="line"/>
      <point x="268" y="1582" type="line"/>
      <point x="594" y="1582" type="line"/>
    </contour>
    <contour>
      <point x="804" y="1256" type="line"/>
      <point x="532" y="1256" type="line"/>
      <point x="702" y="1582" type="line"/>
      <point x="1062" y="1582" type="line"/>
    </contour>
  </outline>
</glyph>
<glyph name="uni02DE" format="2">
  <advance width="602"/>
  <unicode hex="02DE"/>
  <outline>
    <contour>
      <point x="-56" y="520" type="line"/>
      <point x="-56" y="782" type="line"/>
      <point x="396" y="890" type="line"/>
      <point x="414" y="775"/>
      <point x="439" y="617"/>
      <point x="492" y="536"/>
      <point x="550" y="536" type="qcurve" smooth="yes"/>
      <point x="564" y="536"/>
      <point x="593" y="533"/>
      <point x="608" y="536" type="qcurve"/>
      <point x="658" y="302" type="line"/>
      <point x="619" y="280"/>
      <point x="525" y="250"/>
      <point x="472" y="250" type="qcurve" smooth="yes"/>
      <point x="366" y="250"/>
      <point x="253" y="332"/>
      <point x="193" y="480"/>
      <point x="166" y="578" type="qcurve"/>
    </contour>
  </outline>
</glyph>
<glyph name="uni0295.numr" format="2">
  <advance width="1038"/>
  <unicode hex="02E4"/>
  <outline>
    <contour>
      <point x="646" y="1152" type="line"/>
      <point x="647" y="1205"/>
      <point x="587" y="1260"/>
      <point x="544" y="1260" type="qcurve" smooth="yes"/>
      <point x="489" y="1260"/>
      <point x="416" y="1163"/>
      <point x="416" y="1082" type="qcurve" smooth="yes"/>
      <point x="416" y="1012"/>
      <point x="477" y="922"/>
      <point x="526" y="922" type="qcurve" smooth="yes"/>
      <point x="640" y="922" type="line"/>
      <point x="640" y="750" type="line"/>
      <point x="472" y="750" type="line"/>
      <point x="378" y="751"/>
      <point x="244" y="853"/>
      <point x="172" y="1013"/>
      <point x="172" y="1100" type="qcurve" smooth="yes"/>
      <point x="172" y="1219"/>
      <point x="259" y="1382"/>
      <point x="417" y="1466"/>
      <point x="524" y="1466" type="qcurve" smooth="yes"/>
      <point x="630" y="1466"/>
      <point x="784" y="1384"/>
      <point x="867" y="1242"/>
      <point x="866" y="1152" type="qcurve"/>
    </contour>
    <contour>
      <point x="646" y="654" type="line"/>
      <point x="404" y="654" type="line"/>
      <point x="404" y="922" type="line"/>
      <point x="646" y="922" type="line"/>
    </contour>
  </outline>
</glyph>
<glyph name="acutecomb" format="2">
  <unicode hex="0301"/>
  <anchor x="358" y="1118" name="_m.uni030F_1"/>
  <anchor x="358" y="1118" name="_t.uni030F"/>
  <anchor x="358" y="1599" name="t.uni030F"/>
  <outline>
    <contour>
      <point x="170" y="1256" type="line"/>
      <point x="308" y="1582" type="line"/>
      <point x="652" y="1582" type="line"/>
      <point x="434" y="1256" type="line"/>
    </contour>
  </outline>
</glyph>
<glyph name="uni030A" format="2">
  <unicode hex="030A"/>
  <anchor x="576" y="1118" name="_m.uni030F_1"/>
  <anchor x="576" y="1118" name="_t.uni030F"/>
  <outline>
    <contour>
      <point x="432" y="1199" type="qcurve" smooth="yes"/>
      <point x="354" y="1199"/>
      <point x="224" y="1270"/>
      <point x="147" y="1389"/>
      <point x="147" y="1461" type="qcurve" smooth="yes"/>
      <point x="147" y="1534"/>
      <point x="224" y="1652"/>
      <point x="354" y="1723"/>
      <point x="432" y="1723" type="qcurve" smooth="yes"/>
      <point x="511" y="1723"/>
      <point x="640" y="1652"/>
      <point x="717" y="1534"/>
      <point x="717" y="1461" type="qcurve" smooth="yes"/>
      <point x="717" y="1389"/>
      <point x="640" y="1270"/>
      <point x="511" y="1199"/>
    </contour>
    <contour>
      <point x="432" y="1346" type="qcurve" smooth="yes"/>
      <point x="480" y="1346"/>
      <point x="547" y="1413"/>
      <point x="547" y="1461" type="qcurve" smooth="yes"/>
      <point x="547" y="1509"/>
      <point x="480" y="1576"/>
      <point x="432" y="1576" type="qcurve" smooth="yes"/>
      <point x="384" y="1576"/>
      <point x="317" y="1509"/>
      <point x="317" y="1461" type="qcurve" smooth="yes"/>
      <point x="317" y="1413"/>
      <point x="384" y="1346"/>
    </contour>
  </outline>
</glyph>
<glyph name="uni0327" format="2">
  <unicode hex="0327"/>
  <anchor x="646" y="0" name="_m.uni0327_3"/>
  <outline>
    <contour>
      <point x="305" y="-418" type="line"/>
      <point x="305" y="-287" type="line"/>
      <point x="440" y="-287" type="line" smooth="yes"/>
      <point x="482" y="-287"/>
      <point x="520" y="-259"/>
      <point x="520" y="-229" type="qcurve" smooth="yes"/>
      <point x="520" y="-199"/>
      <point x="482" y="-172"/>
      <point x="440" y="-172" type="qcurve" smooth="yes"/>
      <point x="340" y="-172" type="line"/>
      <point x="382" y="40" type="line"/>
      <point x="515" y="40" type="line"/>
      <point x="515" y="0" type="line"/>
      <point x="504" y="-90" type="line"/>
      <point x="596" y="-78"/>
      <point x="709" y="-164"/>
      <point x="709" y="-242" type="qcurve" smooth="yes"/>
      <point x="709" y="-338"/>
      <point x="593" y="-418"/>
      <point x="463" y="-418" type="qcurve" smooth="yes"/>
    </contour>
  </outline>
</glyph>
<glyph name="uni034A" format="2">
  <unicode hex="034A"/>
  <outline>
    <contour>
      <point x="-558" y="1256" type="qcurve"/>
      <point x="-606" y="1256"/>
      <point x="-680" y="1281"/>
      <point x="-746" y="1313"/>
      <point x="-812" y="1338"/>
      <point x="-852" y="1338" type="qcurve" smooth="yes"/>
      <point x="-884" y="1338"/>
      <point x="-930" y="1300"/>
      <point x="-930" y="1254" type="qcurve"/>
      <point x="-1138" y="1266" type="line"/>
      <point x="-1137" y="1336"/>
      <point x="-1073" y="1465"/>
      <point x="-964" y="1548"/>
      <point x="-894" y="1548" type="qcurve" smooth="yes"/>
      <point x="-853" y="1548"/>
      <point x="-778" y="1524"/>
      <point x="-707" y="1494"/>
      <point x="-636" y="1470"/>
      <point x="-600" y="1470" type="qcurve" smooth="yes"/>
      <point x="-570" y="1470"/>
      <point x="-520" y="1504"/>
      <point x="-520" y="1550" type="qcurve"/>
      <point x="-314" y="1538" type="line"/>
      <point x="-313" y="1469"/>
      <point x="-376" y="1339"/>
      <point x="-486" y="1257"/>
    </contour>
    <contour>
      <point x="-704" y="1150" type="line"/>
      <point x="-844" y="1210" type="line"/>
      <point x="-680" y="1612" type="line"/>
      <point x="-544" y="1550" type="line"/>
    </contour>
  </outline>
</glyph>
<glyph name="uni034B" format="2">
  <unicode hex="034B"/>
  <outline>
    <contour>
      <point x="-492" y="1830" type="qcurve"/>
      <point x="-286" y="1822" type="line"/>
      <point x="-285" y="1749"/>
      <point x="-347" y="1619"/>
      <point x="-458" y="1538"/>
      <point x="-532" y="1538" type="qcurve" smooth="yes"/>
      <point x="-580" y="1538"/>
      <point x="-653" y="1562"/>
      <point x="-718" y="1594"/>
      <point x="-785" y="1618"/>
      <point x="-826" y="1618" type="qcurve" smooth="yes"/>
      <point x="-855" y="1618"/>
      <point x="-900" y="1582"/>
      <point x="-902" y="1536" type="qcurve"/>
      <point x="-1108" y="1548" type="line"/>
      <point x="-1107" y="1618"/>
      <point x="-1044" y="1747"/>
      <point x="-934" y="1830"/>
      <point x="-864" y="1830" type="qcurve" smooth="yes"/>
      <point x="-823" y="1830"/>
      <point x="-749" y="1806"/>
      <point x="-679" y="1776"/>
      <point x="-608" y="1752"/>
      <point x="-570" y="1752" type="qcurve" smooth="yes"/>
      <point x="-538" y="1752"/>
      <point x="-490" y="1787"/>
    </contour>
    <contour>
      <point x="-898" y="2022" type="qcurve"/>
      <point x="-897" y="2092"/>
      <point x="-780" y="2184"/>
      <point x="-692" y="2184" type="qcurve" smooth="yes"/>
      <point x="-600" y="2184"/>
      <point x="-482" y="2092"/>
      <point x="-482" y="2022" type="qcurve" smooth="yes"/>
      <point x="-482" y="1950"/>
      <point x="-600" y="1856"/>
      <point x="-692" y="1856" type="qcurve" smooth="yes"/>
      <point x="-780" y="1856"/>
      <point x="-897" y="1950"/>
    </contour>
    <contour>
      <point x="-898" y="1338" type="qcurve"/>
      <point x="-897" y="1408"/>
      <point x="-783" y="1504"/>
      <point x="-692" y="1504" type="qcurve" smooth="yes"/>
      <point x="-602" y="1504"/>
      <point x="-482" y="1410"/>
      <point x="-482" y="1338" type="qcurve" smooth="yes"/>
      <point x="-482" y="1268"/>
      <point x="-600" y="1172"/>
      <point x="-692" y="1172" type="qcurve" smooth="yes"/>
      <point x="-783" y="1172"/>
      <point x="-897" y="1268"/>
    </contour>
  </outline>
</glyph>
<glyph name="uni0352" format="2">
  <unicode hex="0352"/>
  <outline>
    <contour>
      <point x="-300" y="1518" type="qcurve"/>
      <point x="-556" y="1518" type="line"/>
      <point x="-557" y="1565"/>
      <point x="-622" y="1638"/>
      <point x="-702" y="1638" type="qcurve" smooth="yes"/>
      <point x="-781" y="1638"/>
      <point x="-850" y="1565"/>
      <point x="-850" y="1518" type="qcurve"/>
      <point x="-1100" y="1518" type="line"/>
      <point x="-1101" y="1661"/>
      <point x="-883" y="1842"/>
      <point x="-702" y="1842" type="qcurve" smooth="yes"/>
      <point x="-519" y="1842"/>
      <point x="-301" y="1661"/>
    </contour>
    <contour>
      <point x="-908" y="1320" type="qcurve"/>
      <point x="-909" y="1393"/>
      <point x="-792" y="1486"/>
      <point x="-702" y="1486" type="qcurve" smooth="yes"/>
      <point x="-613" y="1486"/>
      <point x="-495" y="1393"/>
      <point x="-494" y="1320" type="qcurve"/>
      <point x="-495" y="1251"/>
      <point x="-610" y="1158"/>
      <point x="-702" y="1158" type="qcurve" smooth="yes"/>
      <point x="-792" y="1158"/>
      <point x="-909" y="1251"/>
    </contour>
  </outline>
</glyph>
<glyph name="uni035A" format="2">
  <unicode hex="035A"/>
  <outline>
    <contour>
      <point x="-1096" y="-300" type="qcurve"/>
      <point x="-1097" y="-219"/>
      <point x="-965" y="-98"/>
      <point x="-862" y="-98" type="qcurve" smooth="yes"/>
      <point x="-757" y="-98"/>
      <point x="-622" y="-219"/>
      <point x="-622" y="-300" type="qcurve" smooth="yes"/>
      <point x="-622" y="-378"/>
      <point x="-757" y="-494"/>
      <point x="-862" y="-494" type="qcurve" smooth="yes"/>
      <point x="-965" y="-494"/>
      <point x="-1097" y="-378"/>
    </contour>
    <contour>
      <point x="-966" y="-300" type="qcurve"/>
      <point x="-966" y="-327"/>
      <point x="-942" y="-372"/>
      <point x="-895" y="-398"/>
      <point x="-862" y="-398" type="qcurve" smooth="yes"/>
      <point x="-812" y="-398"/>
      <point x="-754" y="-341"/>
      <point x="-754" y="-300" type="qcurve" smooth="yes"/>
      <point x="-754" y="-256"/>
      <point x="-812" y="-198"/>
      <point x="-862" y="-198" type="qcurve" smooth="yes"/>
      <point x="-910" y="-198"/>
      <point x="-967" y="-256"/>
    </contour>
    <contour>
      <point x="-744" y="-300" type="qcurve"/>
      <point x="-745" y="-219"/>
      <point x="-613" y="-98"/>
      <point x="-510" y="-98" type="qcurve" smooth="yes"/>
      <point x="-407" y="-98"/>
      <point x="-274" y="-219"/>
      <point x="-274" y="-300" type="qcurve" smooth="yes"/>
      <point x="-274" y="-378"/>
      <point x="-407" y="-494"/>
      <point x="-510" y="-494" type="qcurve" smooth="yes"/>
      <point x="-613" y="-494"/>
      <point x="-745" y="-378"/>
    </contour>
    <contour>
      <point x="-616" y="-300" type="qcurve"/>
      <point x="-616" y="-327"/>
      <point x="-591" y="-372"/>
      <point x="-543" y="-398"/>
      <point x="-510" y="-398" type="qcurve" smooth="yes"/>
      <point x="-460" y="-398"/>
      <point x="-402" y="-341"/>
      <point x="-402" y="-300" type="qcurve" smooth="yes"/>
      <point x="-402" y="-258"/>
      <point x="-460" y="-198"/>
      <point x="-510" y="-198" type="qcurve" smooth="yes"/>
      <point x="-560" y="-198"/>
      <point x="-617" y="-258"/>
    </contour>
  </outline>
</glyph>
<glyph name="Phi" format="2">
  <advance width="1852"/>
  <unicode hex="03A6"/>
  <outline>
    <contour>
      <point x="797" y="63" type="line" smooth="yes"/>
      <point x="584" y="63"/>
      <point x="256" y="237"/>
      <point x="70" y="545"/>
      <point x="70" y="745" type="qcurve" smooth="yes"/>
      <point x="70" y="945"/>
      <point x="256" y="1253"/>
      <point x="584" y="1427"/>
      <point x="797" y="1427" type="qcurve" smooth="yes"/>
      <point x="1055" y="1427" type="line" smooth="yes"/>
      <point x="1269" y="1427"/>
      <point x="1596" y="1253"/>
      <point x="1782" y="945"/>
      <point x="1782" y="745" type="qcurve" smooth="yes"/>
      <point x="1782" y="545"/>
      <point x="1596" y="237"/>
      <point x="1269" y="63"/>
      <point x="1055" y="63" type="qcurve" smooth="yes"/>
    </contour>
    <contour>
      <point x="797" y="387" type="qcurve" smooth="yes"/>
      <point x="1055" y="387" type="line" smooth="yes"/>
      <point x="1158" y="387"/>
      <point x="1300" y="470"/>
      <point x="1374" y="630"/>
      <point x="1374" y="745" type="qcurve" smooth="yes"/>
      <point x="1374" y="860"/>
      <point x="1300" y="1020"/>
      <point x="1158" y="1103"/>
      <point x="1055" y="1103" type="qcurve" smooth="yes"/>
      <point x="797" y="1103" type="line" smooth="yes"/>
      <point x="695" y="1103"/>
      <point x="552" y="1020"/>
      <point x="478" y="860"/>
      <point x="478" y="745" type="qcurve" smooth="yes"/>
      <point x="478" y="630"/>
      <point x="552" y="470"/>
      <point x="695" y="387"/>
    </contour>
    <contour>
      <point x="734" y="-80" type="line"/>
      <point x="734" y="1570" type="line"/>
      <point x="1118" y="1570" type="line"/>
      <point x="1118" y="-80" type="line"/>
    </contour>
  </outline>
</glyph>
<glyph name="Psi" format="2">
  <advance width="1856"/>
  <unicode hex="03A8"/>
  <outline>
    <contour>
      <point x="1360" y="1490" type="line"/>
      <point x="1760" y="1490" type="line"/>
      <point x="1760" y="1032" type="line" smooth="yes"/>
      <point x="1760" y="845"/>
      <point x="1650" y="577"/>
      <point x="1456" y="408"/>
      <point x="1201" y="328"/>
      <point x="1056" y="328" type="qcurve" smooth="yes"/>
      <point x="800" y="328" type="line" smooth="yes"/>
      <point x="655" y="328"/>
      <point x="400" y="408"/>
      <point x="206" y="577"/>
      <point x="96" y="845"/>
      <point x="96" y="1032" type="qcurve" smooth="yes"/>
      <point x="96" y="1490" type="line"/>
      <point x="496" y="1490" type="line"/>
      <point x="496" y="1032" type="line" smooth="yes"/>
      <point x="496" y="885"/>
      <point x="542" y="725"/>
      <point x="663" y="663"/>
      <point x="776" y="663" type="qcurve" smooth="yes"/>
      <point x="1080" y="663" type="line" smooth="yes"/>
      <point x="1193" y="663"/>
      <point x="1314" y="725"/>
      <point x="1360" y="885"/>
      <point x="1360" y="1032" type="qcurve" smooth="yes"/>
    </contour>
    <contour>
      <point x="736" y="1490" type="line"/>
      <point x="1120" y="1490" type="line"/>
      <point x="1120" y="0" type="line"/>
      <point x="736" y="0" type="line"/>
    </contour>
  </outline>
</glyph>
<glyph name="alpha" format="2">
  <advance width="1473"/>
  <unicode hex="03B1"/>
  <anchor x="624" y="0" name="m.uni0326"/>
  <anchor x="726" y="1118" name="m.uni030F_1"/>
  <outline>
    <contour>
      <point x="614" y="-24" type="qcurve" smooth="yes"/>
      <point x="445" y="-24"/>
      <point x="197" y="118"/>
      <point x="62" y="378"/>
      <point x="62" y="556" type="qcurve" smooth="yes"/>
      <point x="62" y="734"/>
      <point x="197" y="992"/>
      <point x="445" y="1132"/>
      <point x="614" y="1132" type="qcurve" smooth="yes"/>
      <point x="739" y="1132"/>
      <point x="891" y="1062"/>
      <point x="972" y="951"/>
      <point x="1008" y="825"/>
      <point x="1017" y="770" type="qcurve"/>
      <point x="1142" y="770" type="line"/>
      <point x="1276" y="562" type="line"/>
      <point x="1422" y="0" type="line"/>
      <point x="1044" y="0" type="line"/>
      <point x="938" y="562" type="line" smooth="yes"/>
      <point x="925" y="631"/>
      <point x="880" y="730"/>
      <point x="817" y="793"/>
      <point x="737" y="824"/>
      <point x="689" y="824" type="qcurve" smooth="yes"/>
      <point x="619" y="824"/>
      <point x="521" y="762"/>
      <point x="470" y="645"/>
      <point x="470" y="560" type="qcurve" smooth="yes"/>
      <point x="470" y="475"/>
      <point x="519" y="356"/>
      <point x="614" y="294"/>
      <point x="681" y="294" type="qcurve" smooth="yes"/>
      <point x="732" y="294"/>
      <point x="817" y="329"/>
      <point x="882" y="395"/>
      <point x="927" y="493"/>
      <point x="938" y="556" type="qcurve" smooth="yes"/>
      <point x="1036" y="1118" type="line"/>
      <point x="1408" y="1118" type="line"/>
      <point x="1276" y="556" type="line"/>
      <point x="1142" y="364" type="line"/>
      <point x="1009" y="364" type="line"/>
      <point x="1000" y="309"/>
      <point x="971" y="176"/>
      <point x="897" y="54"/>
      <point x="746" y="-24"/>
    </contour>
  </outline>
</glyph>
<glyph name="beta" format="2">
  <advance width="1272"/>
  <unicode hex="03B2"/>
  <outline>
    <contour>
      <point x="102" y="-418" type="line"/>
      <point x="102" y="931" type="line" smooth="yes"/>
      <point x="102" y="1129"/>
      <point x="234" y="1386"/>
      <point x="475" y="1510"/>
      <point x="640" y="1510" type="qcurve" smooth="yes"/>
      <point x="805" y="1510"/>
      <point x="1045" y="1397"/>
      <point x="1176" y="1196"/>
      <point x="1176" y="1063" type="qcurve" smooth="yes"/>
      <point x="1176" y="939"/>
      <point x="1059" y="803"/>
      <point x="839" y="740"/>
      <point x="686" y="723" type="qcurve"/>
      <point x="686" y="813" type="line"/>
      <point x="835" y="797"/>
      <point x="1079" y="723"/>
      <point x="1224" y="566"/>
      <point x="1224" y="424" type="qcurve" smooth="yes"/>
      <point x="1224" y="292"/>
      <point x="1099" y="96"/>
      <point x="891" y="-12"/>
      <point x="766" y="-12" type="qcurve" smooth="yes"/>
      <point x="656" y="-12"/>
      <point x="532" y="67"/>
      <point x="470" y="206"/>
      <point x="453" y="295" type="qcurve"/>
      <point x="486" y="295" type="line"/>
      <point x="486" y="-418" type="line"/>
    </contour>
    <contour>
      <point x="669" y="314" type="qcurve" smooth="yes"/>
      <point x="723" y="314"/>
      <point x="802" y="353"/>
      <point x="844" y="424"/>
      <point x="844" y="473" type="qcurve" smooth="yes"/>
      <point x="844" y="548"/>
      <point x="750" y="635"/>
      <point x="669" y="635" type="qcurve" smooth="yes"/>
      <point x="586" y="635" type="line"/>
      <point x="586" y="871" type="line"/>
      <point x="642" y="871" type="line" smooth="yes"/>
      <point x="688" y="871"/>
      <point x="754" y="906"/>
      <point x="790" y="972"/>
      <point x="790" y="1016" type="qcurve" smooth="yes"/>
      <point x="790" y="1085"/>
      <point x="710" y="1166"/>
      <point x="642" y="1166" type="qcurve" smooth="yes"/>
      <point x="570" y="1166"/>
      <point x="486" y="1081"/>
      <point x="486" y="1008" type="qcurve" smooth="yes"/>
      <point x="486" y="497" type="line" smooth="yes"/>
      <point x="486" y="441"/>
      <point x="531" y="359"/>
      <point x="613" y="314"/>
    </contour>
  </outline>
</glyph>
<glyph name="theta" format="2">
  <advance width="1295"/>
  <unicode hex="03B8"/>
  <outline>
    <contour>
      <point x="647" y="-24" type="qcurve" smooth="yes"/>
      <point x="470" y="-24"/>
      <point x="211" y="144"/>
      <point x="70" y="454"/>
      <point x="70" y="665" type="qcurve" smooth="yes"/>
      <point x="70" y="825" type="line" smooth="yes"/>
      <point x="70" y="1037"/>
      <point x="211" y="1346"/>
      <point x="470" y="1514"/>
      <point x="647" y="1514" type="qcurve" smooth="yes"/>
      <point x="825" y="1514"/>
      <point x="1084" y="1346"/>
      <point x="1225" y="1037"/>
      <point x="1225" y="825" type="qcurve" smooth="yes"/>
      <point x="1225" y="665" type="line" smooth="yes"/>
      <point x="1225" y="454"/>
      <point x="1084" y="144"/>
      <point x="825" y="-24"/>
    </contour>
    <contour>
      <point x="647" y="288" type="qcurve" smooth="yes"/>
      <point x="746" y="288"/>
      <point x="837" y="445"/>
      <point x="837" y="617" type="qcurve" smooth="yes"/>
      <point x="837" y="873" type="line" smooth="yes"/>
      <point x="837" y="1045"/>
      <point x="746" y="1202"/>
      <point x="647" y="1202" type="qcurve" smooth="yes"/>
      <point x="549" y="1202"/>
      <point x="458" y="1045"/>
      <point x="458" y="873" type="qcurve" smooth="yes"/>
      <point x="458" y="617" type="line" smooth="yes"/>
      <point x="458" y="445"/>
      <point x="549" y="288"/>
    </contour>
    <contour>
      <point x="407" y="617" type="line"/>
      <point x="407" y="873" type="line"/>
      <point x="882" y="873" type="line"/>
      <point x="882" y="617" type="line"/>
    </contour>
  </outline>
</glyph>
<glyph name="chi" format="2">
  <advance width="1291"/>
  <unicode hex="03C7"/>
  <outline>
    <contour>
      <point x="20" y="-418" type="line"/>
      <point x="576" y="588" type="line"/>
      <point x="712" y="588" type="line"/>
      <point x="1054" y="-40" type="line" smooth="yes"/>
      <point x="1077" y="-81"/>
      <point x="1105" y="-118"/>
      <point x="1142" y="-128"/>
      <point x="1176" y="-128" type="qcurve" smooth="yes"/>
      <point x="1260" y="-128" type="line"/>
      <point x="1260" y="-418" type="line"/>
      <point x="1176" y="-418" type="line" smooth="yes"/>
      <point x="1057" y="-418"/>
      <point x="901" y="-376"/>
      <point x="789" y="-271"/>
      <point x="736" y="-178" type="qcurve" smooth="yes"/>
      <point x="642" y="-12" type="line"/>
      <point x="418" y="-418" type="line"/>
    </contour>
    <contour>
      <point x="582" y="108" type="line"/>
      <point x="232" y="738" type="line" smooth="yes"/>
      <point x="209" y="780"/>
      <point x="181" y="817"/>
      <point x="145" y="826"/>
      <point x="110" y="826" type="qcurve" smooth="yes"/>
      <point x="26" y="826" type="line"/>
      <point x="26" y="1118" type="line"/>
      <point x="110" y="1118" type="line" smooth="yes"/>
      <point x="229" y="1118"/>
      <point x="388" y="1075"/>
      <point x="502" y="971"/>
      <point x="552" y="878" type="qcurve" smooth="yes"/>
      <point x="644" y="708" type="line"/>
      <point x="870" y="1118" type="line"/>
      <point x="1266" y="1118" type="line"/>
      <point x="712" y="108" type="line"/>
    </contour>
  </outline>
</glyph>
<glyph name="omega" format="2">
  <advance width="1758"/>
  <unicode hex="03C9"/>
  <anchor x="954" y="0" name="m.uni0326"/>
  <anchor x="954" y="1118" name="m.uni030F_1"/>
  <outline>
    <contour>
      <point x="533" y="-16" type="qcurve" smooth="yes"/>
      <point x="406" y="-16"/>
      <point x="191" y="104"/>
      <point x="62" y="336"/>
      <point x="62" y="502" type="qcurve" smooth="yes"/>
      <point x="62" y="631"/>
      <point x="136" y="876"/>
      <point x="250" y="1069"/>
      <point x="308" y="1118" type="qcurve"/>
      <point x="700" y="1118" type="line"/>
      <point x="625" y="1022"/>
      <point x="515" y="835"/>
      <point x="456" y="632"/>
      <point x="456" y="514" type="qcurve" smooth="yes"/>
      <point x="456" y="396"/>
      <point x="523" y="283"/>
      <point x="587" y="283" type="qcurve" smooth="yes"/>
      <point x="646" y="283"/>
      <point x="700" y="379"/>
      <point x="700" y="480" type="qcurve" smooth="yes"/>
      <point x="700" y="722" type="line"/>
      <point x="1058" y="722" type="line"/>
      <point x="1058" y="480" type="line" smooth="yes"/>
      <point x="1058" y="379"/>
      <point x="1113" y="283"/>
      <point x="1171" y="283" type="qcurve" smooth="yes"/>
      <point x="1235" y="283"/>
      <point x="1302" y="396"/>
      <point x="1302" y="514" type="qcurve" smooth="yes"/>
      <point x="1302" y="633"/>
      <point x="1242" y="836"/>
      <point x="1133" y="1024"/>
      <point x="1058" y="1118" type="qcurve"/>
      <point x="1450" y="1118" type="line"/>
      <point x="1509" y="1069"/>
      <point x="1622" y="876"/>
      <point x="1696" y="631"/>
      <point x="1696" y="502" type="qcurve" smooth="yes"/>
      <point x="1696" y="336"/>
      <point x="1567" y="104"/>
      <point x="1353" y="-16"/>
      <point x="1225" y="-16" type="qcurve" smooth="yes"/>
      <point x="1082" y="-16"/>
      <point x="921" y="131"/>
      <point x="855" y="395"/>
      <point x="855" y="570" type="qcurve"/>
      <point x="903" y="570" type="line"/>
      <point x="903" y="395"/>
      <point x="837" y="131"/>
      <point x="676" y="-16"/>
    </contour>
  </outline>
</glyph>
<glyph name="uni03D1" format="2">
  <advance width="1426"/>
  <unicode hex="03D1"/>
  <outline>
    <contour>
      <point x="1300" y="862" type="qcurve"/>
      <point x="1312" y="538" type="line"/>
      <point x="1206" y="514"/>
      <point x="1093" y="490"/>
      <point x="1028" y="482"/>
      <point x="994" y="482" type="qcurve" smooth="yes"/>
      <point x="811" y="482"/>
      <point x="524" y="618"/>
      <point x="360" y="859"/>
      <point x="360" y="1016" type="qcurve" smooth="yes"/>
      <point x="360" y="1058" type="line"/>
      <point x="361" y="1194"/>
      <point x="471" y="1397"/>
      <point x="669" y="1510"/>
      <point x="802" y="1510" type="qcurve" smooth="yes"/>
      <point x="993" y="1510"/>
      <point x="1214" y="1260"/>
      <point x="1214" y="1042" type="qcurve" smooth="yes"/>
      <point x="1214" y="478" type="line" smooth="yes"/>
      <point x="1214" y="332"/>
      <point x="1065" y="107"/>
      <point x="812" y="-20"/>
      <point x="654" y="-20" type="qcurve" smooth="yes"/>
      <point x="496" y="-20"/>
      <point x="253" y="111"/>
      <point x="116" y="337"/>
      <point x="116" y="478" type="qcurve" smooth="yes"/>
      <point x="116" y="646" type="line"/>
      <point x="466" y="646" type="line"/>
      <point x="466" y="478" type="line"/>
      <point x="465" y="394"/>
      <point x="565" y="290"/>
      <point x="640" y="290" type="qcurve" smooth="yes"/>
      <point x="717" y="290"/>
      <point x="812" y="396"/>
      <point x="812" y="478" type="qcurve" smooth="yes"/>
      <point x="812" y="1100" type="line" smooth="yes"/>
      <point x="812" y="1133"/>
      <point x="785" y="1170"/>
      <point x="762" y="1170" type="qcurve" smooth="yes"/>
      <point x="737" y="1170"/>
      <point x="710" y="1128"/>
      <point x="708" y="1090" type="qcurve" smooth="yes"/>
      <point x="706" y="1042" type="line"/>
      <point x="705" y="970"/>
      <point x="773" y="873"/>
      <point x="903" y="824"/>
      <point x="994" y="824" type="qcurve" smooth="yes"/>
      <point x="1019" y="824"/>
      <point x="1035" y="823"/>
      <point x="1073" y="828"/>
      <point x="1182" y="844"/>
    </contour>
  </outline>
</glyph>
<glyph name="phigreek" format="2">
  <advance width="1648"/>
  <unicode hex="03D5"/>
  <outline>
    <contour>
      <point x="641" y="-20" type="line" smooth="yes"/>
      <point x="459" y="-20"/>
      <point x="199" y="125"/>
      <point x="62" y="384"/>
      <point x="62" y="556" type="qcurve" smooth="yes"/>
      <point x="62" y="728"/>
      <point x="199" y="987"/>
      <point x="459" y="1132"/>
      <point x="641" y="1132" type="qcurve" smooth="yes"/>
      <point x="1007" y="1132" type="line" smooth="yes"/>
      <point x="1190" y="1132"/>
      <point x="1449" y="987"/>
      <point x="1586" y="728"/>
      <point x="1586" y="556" type="qcurve" smooth="yes"/>
      <point x="1586" y="384"/>
      <point x="1449" y="125"/>
      <point x="1190" y="-20"/>
      <point x="1007" y="-20" type="qcurve" smooth="yes"/>
    </contour>
    <contour>
      <point x="641" y="280" type="qcurve" smooth="yes"/>
      <point x="1007" y="280" type="line" smooth="yes"/>
      <point x="1060" y="280"/>
      <point x="1136" y="346"/>
      <point x="1176" y="471"/>
      <point x="1176" y="558" type="qcurve" smooth="yes"/>
      <point x="1176" y="646"/>
      <point x="1136" y="768"/>
      <point x="1060" y="832"/>
      <point x="1007" y="832" type="qcurve" smooth="yes"/>
      <point x="641" y="832" type="line" smooth="yes"/>
      <point x="588" y="832"/>
      <point x="512" y="768"/>
      <point x="472" y="646"/>
      <point x="472" y="558" type="qcurve" smooth="yes"/>
      <point x="472" y="471"/>
      <point x="512" y="346"/>
      <point x="588" y="280"/>
    </contour>
    <contour>
      <point x="641" y="-418" type="line"/>
      <point x="641" y="1512" type="line"/>
      <point x="1007" y="1512" type="line"/>
      <point x="1007" y="-418" type="line"/>
    </contour>
  </outline>
</glyph>
<glyph name="uni03D6" format="2">
  <advance width="2086"/>
  <unicode hex="03D6"/>
  <anchor x="1270" y="0" name="m.uni0326"/>
  <anchor x="1270" y="1118" name="m.uni030F_1"/>
  <outline>
    <contour>
      <point x="1990" y="1118" type="line"/>
      <point x="1990" y="872" type="line"/>
      <point x="96" y="872" type="line"/>
      <point x="96" y="1118" type="line"/>
    </contour>
    <contour>
      <point x="398" y="1118" type="qcurve"/>
      <point x="748" y="1118" type="line"/>
      <point x="699" y="1015"/>
      <point x="628" y="819"/>
      <point x="590" y="639"/>
      <point x="590" y="558" type="qcurve" smooth="yes"/>
      <point x="590" y="474"/>
      <point x="619" y="350"/>
      <point x="676" y="282"/>
      <point x="718" y="282" type="qcurve" smooth="yes"/>
      <point x="772" y="282"/>
      <point x="840" y="401"/>
      <point x="840" y="512" type="qcurve" smooth="yes"/>
      <point x="840" y="686" type="line"/>
      <point x="1126" y="686" type="line"/>
      <point x="1126" y="562" type="line" smooth="yes"/>
      <point x="1126" y="392"/>
      <point x="1034" y="129"/>
      <point x="841" y="-20"/>
      <point x="690" y="-20" type="qcurve" smooth="yes"/>
      <point x="546" y="-20"/>
      <point x="331" y="101"/>
      <point x="214" y="352"/>
      <point x="216" y="546" type="qcurve" smooth="yes"/>
      <point x="218" y="703"/>
      <point x="313" y="997"/>
    </contour>
    <contour>
      <point x="1338" y="1118" type="qcurve"/>
      <point x="1688" y="1118" type="line"/>
      <point x="1773" y="997"/>
      <point x="1870" y="703"/>
      <point x="1870" y="546" type="qcurve"/>
      <point x="1873" y="352"/>
      <point x="1755" y="101"/>
      <point x="1540" y="-20"/>
      <point x="1396" y="-20" type="qcurve" smooth="yes"/>
      <point x="1246" y="-20"/>
      <point x="1053" y="129"/>
      <point x="960" y="392"/>
      <point x="960" y="562" type="qcurve" smooth="yes"/>
      <point x="960" y="686" type="line"/>
      <point x="1246" y="686" type="line"/>
      <point x="1246" y="512" type="line"/>
      <point x="1245" y="401"/>
      <point x="1314" y="282"/>
      <point x="1368" y="282" type="qcurve" smooth="yes"/>
      <point x="1411" y="282"/>
      <point x="1467" y="350"/>
      <point x="1496" y="474"/>
      <point x="1496" y="558" type="qcurve" smooth="yes"/>
      <point x="1496" y="639"/>
      <point x="1459" y="819"/>
      <point x="1389" y="1015"/>
    </contour>
  </outline>
</glyph>
<glyph name="kappa1" format="2">
  <advance width="1624"/>
  <unicode hex="03F0"/>
  <outline>
    <contour>
      <point x="270" y="0" type="line"/>
      <point x="1144" y="1118" type="line"/>
      <point x="1390" y="1118" type="line"/>
      <point x="518" y="0" type="line"/>
    </contour>
    <contour>
      <point x="346" y="14" type="line"/>
      <point x="340" y="774" type="line"/>
      <point x="340" y="830"/>
      <point x="255" y="864"/>
      <point x="210" y="864" type="qcurve" smooth="yes"/>
      <point x="188" y="864"/>
      <point x="145" y="860"/>
      <point x="126" y="858" type="qcurve"/>
      <point x="122" y="1118" type="line"/>
      <point x="154" y="1124"/>
      <point x="265" y="1132"/>
      <point x="312" y="1132" type="qcurve" smooth="yes"/>
      <point x="425" y="1132"/>
      <point x="554" y="1069"/>
      <point x="615" y="965"/>
      <point x="632" y="838"/>
      <point x="632" y="774" type="qcurve" smooth="yes"/>
      <point x="632" y="264" type="line"/>
    </contour>
    <contour>
      <point x="1314" y="-20" type="qcurve" smooth="yes"/>
      <point x="1194" y="-20"/>
      <point x="1062" y="51"/>
      <point x="1006" y="162"/>
      <point x="994" y="287"/>
      <point x="994" y="340" type="qcurve" smooth="yes"/>
      <point x="994" y="852" type="line"/>
      <point x="1282" y="1102" type="line"/>
      <point x="1282" y="338" type="line"/>
      <point x="1283" y="286"/>
      <point x="1359" y="250"/>
      <point x="1416" y="250" type="qcurve" smooth="yes"/>
      <point x="1433" y="250"/>
      <point x="1479" y="251"/>
      <point x="1502" y="254" type="qcurve"/>
      <point x="1502" y="-6" type="line"/>
      <point x="1468" y="-13"/>
      <point x="1355" y="-20"/>
    </contour>
  </outline>
</glyph>
<glyph name="uni03FD" format="2">
  <advance width="1690"/>
  <unicode hex="03FD"/>
  <outline>
    <contour>
      <point x="198" y="518" type="qcurve"/>
      <point x="588" y="518" type="line"/>
      <point x="590" y="405"/>
      <point x="708" y="294"/>
      <point x="830" y="294" type="qcurve" smooth="yes"/>
      <point x="939" y="294"/>
      <point x="1053" y="384"/>
      <point x="1094" y="563"/>
      <point x="1094" y="698" type="qcurve" smooth="yes"/>
      <point x="1094" y="788" type="line" smooth="yes"/>
      <point x="1094" y="928"/>
      <point x="1057" y="1106"/>
      <point x="946" y="1190"/>
      <point x="834" y="1190" type="qcurve" smooth="yes"/>
      <point x="728" y="1190"/>
      <point x="590" y="1099"/>
      <point x="588" y="984" type="qcurve"/>
      <point x="200" y="984" type="line"/>
      <point x="207" y="1147"/>
      <point x="373" y="1382"/>
      <point x="657" y="1510"/>
      <point x="840" y="1510" type="qcurve" smooth="yes"/>
      <point x="1050" y="1510"/>
      <point x="1341" y="1337"/>
      <point x="1492" y="1014"/>
      <point x="1492" y="788" type="qcurve" smooth="yes"/>
      <point x="1492" y="702" type="line" smooth="yes"/>
      <point x="1492" y="476"/>
      <point x="1335" y="153"/>
      <point x="1039" y="-20"/>
      <point x="832" y="-20" type="qcurve" smooth="yes"/>
      <point x="646" y="-20"/>
      <point x="371" y="119"/>
      <point x="212" y="363"/>
    </contour>
  </outline>
</glyph>
<glyph name="uni042F" format="2">
  <advance width="1368"/>
  <unicode hex="042F"/>
  <anchor x="701" y="0" name="m.uni0326"/>
  <anchor x="724" y="1540" name="m.uni030F_1"/>
  <outline>
    <contour>
      <point x="1272" y="0" type="line"/>
      <point x="868" y="0" type="line"/>
      <point x="868" y="1166" type="line"/>
      <point x="726" y="1166" type="line" smooth="yes"/>
      <point x="655" y="1166"/>
      <point x="552" y="1128"/>
      <point x="498" y="1048"/>
      <point x="498" y="984" type="qcurve" smooth="yes"/>
      <point x="498" y="920"/>
      <point x="552" y="842"/>
      <point x="655" y="806"/>
      <point x="726" y="806" type="qcurve" smooth="yes"/>
      <point x="1028" y="806" type="line"/>
      <point x="1028" y="492" type="line"/>
      <point x="644" y="492" type="line" smooth="yes"/>
      <point x="474" y="492"/>
      <point x="218" y="604"/>
      <point x="76" y="824"/>
      <point x="76" y="984" type="qcurve" smooth="yes"/>
      <point x="76" y="1142"/>
      <point x="215" y="1369"/>
      <point x="464" y="1490"/>
      <point x="630" y="1490" type="qcurve" smooth="yes"/>
      <point x="1272" y="1490" type="line"/>
    </contour>
    <contour>
      <point x="466" y="0" type="line"/>
      <point x="26" y="0" type="line"/>
      <point x="400" y="684" type="line"/>
      <point x="830" y="684" type="line"/>
    </contour>
  </outline>
</glyph>
<glyph name="uni0431" format="2">
  <advance width="1282"/>
  <unicode hex="0431"/>
  <outline>
    <contour>
      <point x="1092" y="1522" type="qcurve"/>
      <point x="1192" y="1254" type="line"/>
      <point x="1147" y="1222"/>
      <point x="1045" y="1186"/>
      <point x="892" y="1172"/>
      <point x="770" y="1172" type="qcurve" smooth="yes"/>
      <point x="632" y="1172"/>
      <point x="463" y="1108"/>
      <point x="377" y="956"/>
      <point x="362" y="824" type="qcurve"/>
      <point x="372" y="824" type="line"/>
      <point x="417" y="924"/>
      <point x="588" y="1044"/>
      <point x="734" y="1044" type="qcurve" smooth="yes"/>
      <point x="885" y="1044"/>
      <point x="1103" y="917"/>
      <point x="1220" y="687"/>
      <point x="1220" y="532" type="qcurve" smooth="yes"/>
      <point x="1220" y="365"/>
      <point x="1082" y="116"/>
      <point x="824" y="-20"/>
      <point x="642" y="-20" type="qcurve" smooth="yes"/>
      <point x="369" y="-20"/>
      <point x="62" y="299"/>
      <point x="62" y="600" type="qcurve" smooth="yes"/>
      <point x="62" y="672" type="line"/>
      <point x="63" y="1097"/>
      <point x="417" y="1490"/>
      <point x="756" y="1490" type="qcurve" smooth="yes"/>
      <point x="834" y="1490"/>
      <point x="963" y="1490"/>
      <point x="1061" y="1503"/>
    </contour>
    <contour>
      <point x="644" y="276" type="qcurve" smooth="yes"/>
      <point x="696" y="276"/>
      <point x="770" y="333"/>
      <point x="810" y="439"/>
      <point x="810" y="514" type="qcurve" smooth="yes"/>
      <point x="810" y="592"/>
      <point x="770" y="700"/>
      <point x="696" y="756"/>
      <point x="644" y="756" type="qcurve" smooth="yes"/>
      <point x="604" y="756"/>
      <point x="541" y="724"/>
      <point x="497" y="662"/>
      <point x="474" y="572"/>
      <point x="474" y="514" type="qcurve" smooth="yes"/>
      <point x="474" y="402"/>
      <point x="564" y="276"/>
    </contour>
  </outline>
</glyph>
<glyph name="uni0438" format="2">
  <advance width="1330"/>
  <unicode hex="0438"/>
  <anchor x="746" y="1118" name="m.uni030F_1"/>
  <outline>
    <contour>
      <point x="1228" y="0" type="line"/>
      <point x="826" y="0" type="line"/>
      <point x="826" y="532" type="line"/>
      <point x="821" y="532" type="line"/>
      <point x="427" y="0" type="line"/>
      <point x="102" y="0" type="line"/>
      <point x="102" y="1118" type="line"/>
      <point x="504" y="1118" type="line"/>
      <point x="504" y="594" type="line"/>
      <point x="509" y="594" type="line"/>
      <point x="894" y="1118" type="line"/>
      <point x="1228" y="1118" type="line"/>
    </contour>
  </outline>
</glyph>
<glyph name="uni044D" format="2">
  <advance width="1238"/>
  <unicode hex="044D"/>
  <anchor x="664" y="1118" name="m.uni030F_1"/>
  <outline>
    <contour>
      <point x="598" y="-20" type="qcurve" smooth="yes"/>
      <point x="433" y="-20"/>
      <point x="193" y="99"/>
      <point x="62" y="318"/>
      <point x="60" y="466" type="qcurve"/>
      <point x="432" y="466" type="line"/>
      <point x="439" y="378"/>
      <point x="526" y="280"/>
      <point x="592" y="280" type="qcurve" smooth="yes"/>
      <point x="645" y="280"/>
      <point x="723" y="343"/>
      <point x="766" y="467"/>
      <point x="766" y="558" type="qcurve" smooth="yes"/>
      <point x="766" y="650"/>
      <point x="723" y="772"/>
      <point x="645" y="832"/>
      <point x="592" y="832" type="qcurve" smooth="yes"/>
      <point x="548" y="832"/>
      <point x="480" y="791"/>
      <point x="438" y="711"/>
      <point x="432" y="652" type="qcurve"/>
      <point x="60" y="652" type="line"/>
      <point x="61" y="798"/>
      <point x="193" y="1013"/>
      <point x="434" y="1132"/>
      <point x="598" y="1132" type="qcurve" smooth="yes"/>
      <point x="780" y="1132"/>
      <point x="1039" y="987"/>
      <point x="1176" y="728"/>
      <point x="1176" y="556" type="qcurve" smooth="yes"/>
      <point x="1176" y="384"/>
      <point x="1039" y="125"/>
      <point x="780" y="-20"/>
    </contour>
    <contour>
      <point x="518" y="461" type="line"/>
      <point x="518" y="657" type="line"/>
      <point x="798" y="657" type="line"/>
      <point x="798" y="461" type="line"/>
    </contour>
  </outline>
</glyph>
<glyph name="uni045A" format="2">
  <advance width="1942"/>
  <unicode hex="045A"/>
  <outline>
    <contour>
      <point x="1126" y="0" type="line"/>
      <point x="1126" y="300" type="line"/>
      <point x="1366" y="300" type="line" smooth="yes"/>
      <point x="1431" y="300"/>
      <point x="1492" y="338"/>
      <point x="1492" y="380" type="qcurve" smooth="yes"/>
      <point x="1492" y="425"/>
      <point x="1431" y="466"/>
      <point x="1366" y="466" type="qcurve" smooth="yes"/>
      <point x="1022" y="466" type="line"/>
      <point x="1022" y="766" type="line"/>
      <point x="1366" y="766" type="line" smooth="yes"/>
      <point x="1607" y="766"/>
      <point x="1880" y="560"/>
      <point x="1880" y="378" type="qcurve" smooth="yes"/>
      <point x="1880" y="200"/>
      <point x="1607" y="0"/>
      <point x="1366" y="0" type="qcurve" smooth="yes"/>
    </contour>
    <contour>
      <point x="102" y="0" type="line"/>
      <point x="102" y="1118" type="line"/>
      <point x="504" y="1118" type="line"/>
      <point x="504" y="0" type="line"/>
    </contour>
    <contour>
      <point x="385" y="427" type="line"/>
      <point x="385" y="727" type="line"/>
      <point x="929" y="727" type="line"/>
      <point x="929" y="427" type="line"/>
    </contour>
    <contour>
      <point x="810" y="0" type="line"/>
      <point x="810" y="1118" type="line"/>
      <point x="1212" y="1118" type="line"/>
      <point x="1212" y="0" type="line"/>
    </contour>
  </outline>
</glyph>
<glyph name="uni0460" format="2">
  <advance width="2144"/>
  <unicode hex="0460"/>
  <outline>
    <contour>
      <point x="96" y="530" type="qcurve" smooth="yes"/>
      <point x="96" y="1490" type="line"/>
      <point x="500" y="1490" type="line"/>
      <point x="500" y="530" type="line" smooth="yes"/>
      <point x="500" y="416"/>
      <point x="586" y="290"/>
      <point x="692" y="290" type="qcurve" smooth="yes"/>
      <point x="788" y="290"/>
      <point x="872" y="414"/>
      <point x="872" y="530" type="qcurve" smooth="yes"/>
      <point x="872" y="1490" type="line"/>
      <point x="1272" y="1490" type="line"/>
      <point x="1272" y="530" type="line" smooth="yes"/>
      <point x="1272" y="414"/>
      <point x="1360" y="290"/>
      <point x="1460" y="290" type="qcurve" smooth="yes"/>
      <point x="1563" y="290"/>
      <point x="1644" y="414"/>
      <point x="1644" y="530" type="qcurve" smooth="yes"/>
      <point x="1644" y="1490" type="line"/>
      <point x="2048" y="1490" type="line"/>
      <point x="2048" y="530" type="line" smooth="yes"/>
      <point x="2048" y="354"/>
      <point x="1895" y="108"/>
      <point x="1629" y="-20"/>
      <point x="1460" y="-20" type="qcurve" smooth="yes"/>
      <point x="1342" y="-20"/>
      <point x="1144" y="66"/>
      <point x="1074" y="148" type="qcurve"/>
      <point x="1006" y="66"/>
      <point x="810" y="-20"/>
      <point x="692" y="-20" type="qcurve" smooth="yes"/>
      <point x="521" y="-20"/>
      <point x="251" y="108"/>
      <point x="96" y="354"/>
    </contour>
  </outline>
</glyph>
<glyph name="uni0461" format="2">
  <advance width="1934"/>
  <unicode hex="0461"/>
  <outline>
    <contour>
      <point x="574" y="-20" type="qcurve" smooth="yes"/>
      <point x="426" y="-20"/>
      <point x="215" y="92"/>
      <point x="102" y="299"/>
      <point x="102" y="440" type="qcurve" smooth="yes"/>
      <point x="102" y="1118" type="line"/>
      <point x="502" y="1118" type="line"/>
      <point x="502" y="456" type="line" smooth="yes"/>
      <point x="502" y="375"/>
      <point x="570" y="280"/>
      <point x="637" y="280" type="qcurve" smooth="yes"/>
      <point x="705" y="280"/>
      <point x="772" y="375"/>
      <point x="772" y="456" type="qcurve" smooth="yes"/>
      <point x="772" y="1118" type="line"/>
      <point x="1162" y="1118" type="line"/>
      <point x="1162" y="456" type="line" smooth="yes"/>
      <point x="1162" y="375"/>
      <point x="1230" y="280"/>
      <point x="1297" y="280" type="qcurve" smooth="yes"/>
      <point x="1365" y="280"/>
      <point x="1432" y="375"/>
      <point x="1432" y="456" type="qcurve" smooth="yes"/>
      <point x="1432" y="1118" type="line"/>
      <point x="1832" y="1118" type="line"/>
      <point x="1832" y="440" type="line" smooth="yes"/>
      <point x="1832" y="299"/>
      <point x="1719" y="92"/>
      <point x="1508" y="-20"/>
      <point x="1360" y="-20" type="qcurve" smooth="yes"/>
      <point x="1220" y="-20"/>
      <point x="1031" y="84"/>
      <point x="924" y="289"/>
      <point x="908" y="440" type="qcurve"/>
      <point x="1018" y="440" type="line"/>
      <point x="1002" y="289"/>
      <point x="899" y="84"/>
      <point x="714" y="-20"/>
    </contour>
  </outline>
</glyph>
<glyph name="uni0465" format="2">
  <advance width="1782"/>
  <unicode hex="0465"/>
  <outline>
    <contour>
      <point x="1236" y="662" type="line"/>
      <point x="1236" y="456" type="line"/>
      <point x="342" y="456" type="line"/>
      <point x="342" y="662" type="line"/>
    </contour>
    <contour>
      <point x="502" y="1118" type="line"/>
      <point x="502" y="0" type="line"/>
      <point x="102" y="0" type="line"/>
      <point x="102" y="1118" type="line"/>
    </contour>
    <contour>
      <point x="1184" y="-20" type="qcurve" smooth="yes"/>
      <point x="1002" y="-20"/>
      <point x="743" y="125"/>
      <point x="606" y="384"/>
      <point x="606" y="556" type="qcurve" smooth="yes"/>
      <point x="606" y="728"/>
      <point x="743" y="987"/>
      <point x="1002" y="1132"/>
      <point x="1184" y="1132" type="qcurve" smooth="yes"/>
      <point x="1349" y="1132"/>
      <point x="1589" y="1013"/>
      <point x="1721" y="798"/>
      <point x="1722" y="652" type="qcurve"/>
      <point x="1350" y="652" type="line"/>
      <point x="1345" y="711"/>
      <point x="1299" y="791"/>
      <point x="1227" y="832"/>
      <point x="1182" y="832" type="qcurve" smooth="yes"/>
      <point x="1129" y="832"/>
      <point x="1047" y="772"/>
      <point x="1000" y="650"/>
      <point x="1000" y="558" type="qcurve" smooth="yes"/>
      <point x="1000" y="467"/>
      <point x="1047" y="343"/>
      <point x="1129" y="280"/>
      <point x="1182" y="280" type="qcurve" smooth="yes"/>
      <point x="1248" y="280"/>
      <point x="1343" y="378"/>
      <point x="1350" y="466" type="qcurve"/>
      <point x="1722" y="466" type="line"/>
      <point x="1720" y="318"/>
      <point x="1589" y="99"/>
      <point x="1350" y="-20"/>
    </contour>
  </outline>
</glyph>
<glyph name="uni0468" format="2">
  <advance width="2127"/>
  <unicode hex="0468"/>
  <outline>
    <contour>
      <point x="500" y="1490" type="line"/>
      <point x="500" y="0" type="line"/>
      <point x="96" y="0" type="line"/>
      <point x="96" y="1490" type="line"/>
    </contour>
    <contour>
      <point x="1460" y="559" type="line"/>
      <point x="1460" y="0" type="line"/>
      <point x="1160" y="0" type="line"/>
      <point x="1160" y="559" type="line"/>
    </contour>
    <contour>
      <point x="545" y="0" type="line"/>
      <point x="1028" y="1490" type="line"/>
      <point x="1580" y="1490" type="line"/>
      <point x="2081" y="0" type="line"/>
      <point x="1623" y="0" type="line"/>
      <point x="1450" y="578" type="line" smooth="yes"/>
      <point x="1394" y="766"/>
      <point x="1296" y="1171"/>
      <point x="1252" y="1371" type="qcurve"/>
      <point x="1344" y="1371" type="line"/>
      <point x="1302" y="1171"/>
      <point x="1216" y="766"/>
      <point x="1162" y="578" type="qcurve" smooth="yes"/>
      <point x="997" y="0" type="line"/>
    </contour>
    <contour>
      <point x="413" y="448" type="line"/>
      <point x="413" y="670" type="line"/>
      <point x="1723" y="670" type="line"/>
      <point x="1723" y="448" type="line"/>
    </contour>
  </outline>
</glyph>
<glyph name="uni0484" format="2">
  <unicode hex="0484"/>
  <outline>
    <contour>
      <point x="-1032" y="1438" type="line"/>
      <point x="-1026" y="1438" type="line" smooth="yes"/>
      <point x="-943" y="1438"/>
      <point x="-798" y="1473"/>
      <point x="-668" y="1520"/>
      <point x="-545" y="1556"/>
      <point x="-482" y="1556" type="qcurve" smooth="yes"/>
      <point x="-367" y="1556"/>
      <point x="-232" y="1452"/>
      <point x="-232" y="1342" type="qcurve" smooth="yes"/>
      <point x="-232" y="1304" type="line"/>
      <point x="-376" y="1304" type="line"/>
      <point x="-376" y="1320" type="line" smooth="yes"/>
      <point x="-376" y="1375"/>
      <point x="-439" y="1422"/>
      <point x="-486" y="1422" type="qcurve" smooth="yes"/>
      <point x="-531" y="1422"/>
      <point x="-642" y="1386"/>
      <point x="-775" y="1340"/>
      <point x="-932" y="1304"/>
      <point x="-1024" y="1304" type="qcurve" smooth="yes"/>
      <point x="-1032" y="1304" type="line"/>
    </contour>
  </outline>
</glyph>
<glyph name="uni0487" format="2">
  <unicode hex="0487"/>
  <outline>
    <contour>
      <point x="-456" y="1438" type="qcurve" smooth="yes"/>
      <point x="-286" y="1438" type="line"/>
      <point x="-286" y="1304" type="line"/>
      <point x="-472" y="1304" type="line" smooth="yes"/>
      <point x="-525" y="1304"/>
      <point x="-607" y="1339"/>
      <point x="-689" y="1386"/>
      <point x="-793" y="1422"/>
      <point x="-870" y="1422" type="qcurve" smooth="yes"/>
      <point x="-920" y="1422"/>
      <point x="-1006" y="1373"/>
      <point x="-1006" y="1320" type="qcurve" smooth="yes"/>
      <point x="-1006" y="1304" type="line"/>
      <point x="-1150" y="1304" type="line"/>
      <point x="-1150" y="1342" type="line"/>
      <point x="-1149" y="1440"/>
      <point x="-993" y="1556"/>
      <point x="-856" y="1556" type="qcurve" smooth="yes"/>
      <point x="-774" y="1556"/>
      <point x="-658" y="1520"/>
      <point x="-571" y="1473"/>
      <point x="-496" y="1438"/>
    </contour>
  </outline>
</glyph>
<glyph name="uni0488" format="2">
  <unicode hex="0488"/>
  <outline>
    <contour>
      <point x="-794" y="1268" type="qcurve"/>
      <point x="-914" y="1268" type="line"/>
      <point x="-913" y="1349"/>
      <point x="-795" y="1454"/>
      <point x="-692" y="1454" type="qcurve" smooth="yes"/>
      <point x="-590" y="1454"/>
      <point x="-472" y="1349"/>
      <point x="-472" y="1268" type="qcurve"/>
      <point x="-588" y="1268" type="line"/>
      <point x="-588" y="1306"/>
      <point x="-636" y="1368"/>
      <point x="-692" y="1368" type="qcurve" smooth="yes"/>
      <point x="-747" y="1368"/>
      <point x="-794" y="1308"/>
    </contour>
    <contour>
      <point x="-172" y="990" type="qcurve"/>
      <point x="-294" y="990" type="line"/>
      <point x="-294" y="1073"/>
      <point x="-173" y="1178"/>
      <point x="-72" y="1178" type="qcurve" smooth="yes"/>
      <point x="30" y="1178"/>
      <point x="152" y="1073"/>
      <point x="152" y="990" type="qcurve"/>
      <point x="32" y="990" type="line"/>
      <point x="32" y="1028"/>
      <point x="-13" y="1090"/>
      <point x="-72" y="1090" type="qcurve" smooth="yes"/>
      <point x="-127" y="1090"/>
      <point x="-172" y="1028"/>
    </contour>
    <contour>
      <point x="24" y="488" type="qcurve"/>
      <point x="-96" y="488" type="line"/>
      <point x="-96" y="569"/>
      <point x="25" y="674"/>
      <point x="126" y="674" type="qcurve" smooth="yes"/>
      <point x="228" y="674"/>
      <point x="346" y="569"/>
      <point x="346" y="488" type="qcurve"/>
      <point x="230" y="488" type="line"/>
      <point x="230" y="528"/>
      <point x="182" y="588"/>
      <point x="126" y="588" type="qcurve" smooth="yes"/>
      <point x="71" y="588"/>
      <point x="23" y="528"/>
    </contour>
    <contour>
      <point x="-184" y="-32" type="qcurve"/>
      <point x="-302" y="-32" type="line"/>
      <point x="-303" y="49"/>
      <point x="-184" y="158"/>
      <point x="-82" y="158" type="qcurve" smooth="yes"/>
      <point x="19" y="158"/>
      <point x="140" y="51"/>
      <point x="140" y="-32" type="qcurve"/>
      <point x="24" y="-32" type="line"/>
      <point x="23" y="7"/>
      <point x="-25" y="70"/>
      <point x="-82" y="70" type="qcurve" smooth="yes"/>
      <point x="-136" y="70"/>
      <point x="-183" y="7"/>
    </contour>
    <contour>
      <point x="-788" y="-318" type="qcurve"/>
      <point x="-908" y="-318" type="line"/>
      <point x="-908" y="-235"/>
      <point x="-789" y="-128"/>
      <point x="-686" y="-128" type="qcurve" smooth="yes"/>
      <point x="-584" y="-128"/>
      <point x="-466" y="-235"/>
      <point x="-466" y="-318" type="qcurve"/>
      <point x="-582" y="-318" type="line"/>
      <point x="-582" y="-278"/>
      <point x="-630" y="-216"/>
      <point x="-686" y="-216" type="qcurve" smooth="yes"/>
      <point x="-741" y="-216"/>
      <point x="-788" y="-276"/>
    </contour>
    <contour>
      <point x="-1394" y="990" type="qcurve"/>
      <point x="-1512" y="990" type="line"/>
      <point x="-1513" y="1073"/>
      <point x="-1394" y="1178"/>
      <point x="-1292" y="1178" type="qcurve" smooth="yes"/>
      <point x="-1191" y="1178"/>
      <point x="-1070" y="1073"/>
      <point x="-1070" y="990" type="qcurve"/>
      <point x="-1190" y="990" type="line"/>
      <point x="-1190" y="1028"/>
      <point x="-1235" y="1090"/>
      <point x="-1292" y="1090" type="qcurve" smooth="yes"/>
      <point x="-1348" y="1090"/>
      <point x="-1393" y="1028"/>
    </contour>
    <contour>
      <point x="-1580" y="488" type="qcurve"/>
      <point x="-1698" y="488" type="line"/>
      <point x="-1699" y="569"/>
      <point x="-1581" y="674"/>
      <point x="-1478" y="674" type="qcurve" smooth="yes"/>
      <point x="-1375" y="674"/>
      <point x="-1256" y="569"/>
      <point x="-1256" y="488" type="qcurve"/>
      <point x="-1374" y="488" type="line"/>
      <point x="-1373" y="526"/>
      <point x="-1421" y="588"/>
      <point x="-1478" y="588" type="qcurve" smooth="yes"/>
      <point x="-1533" y="588"/>
      <point x="-1580" y="528"/>
    </contour>
    <contour>
      <point x="-1406" y="-32" type="qcurve"/>
      <point x="-1524" y="-32" type="line"/>
      <point x="-1524" y="51"/>
      <point x="-1404" y="158"/>
      <point x="-1304" y="158" type="qcurve" smooth="yes"/>
      <point x="-1201" y="158"/>
      <point x="-1082" y="49"/>
      <point x="-1082" y="-32" type="qcurve"/>
      <point x="-1202" y="-32" type="line"/>
      <point x="-1201" y="7"/>
      <point x="-1247" y="70"/>
      <point x="-1304" y="70" type="qcurve" smooth="yes"/>
      <point x="-1358" y="70"/>
      <point x="-1405" y="7"/>
    </contour>
  </outline>
</glyph>
<glyph name="uni04A7" format="2">
  <advance width="1898"/>
  <unicode hex="04A7"/>
  <outline>
    <contour>
      <point x="846" y="398" type="line"/>
      <point x="846" y="698" type="line"/>
      <point x="1184" y="698" type="line" smooth="yes"/>
      <point x="1378" y="698"/>
      <point x="1672" y="596"/>
      <point x="1836" y="376"/>
      <point x="1836" y="200" type="qcurve" smooth="yes"/>
      <point x="1836" y="137"/>
      <point x="1792" y="8"/>
      <point x="1700" y="-116"/>
      <point x="1557" y="-228"/>
      <point x="1458" y="-274" type="qcurve"/>
      <point x="1278" y="-46" type="line"/>
      <point x="1355" y="10"/>
      <point x="1461" y="109"/>
      <point x="1464" y="200" type="qcurve" smooth="yes"/>
      <point x="1466" y="273"/>
      <point x="1396" y="360"/>
      <point x="1269" y="398"/>
      <point x="1184" y="398" type="qcurve" smooth="yes"/>
    </contour>
    <contour>
      <point x="1198" y="1118" type="line"/>
      <point x="1198" y="0" type="line"/>
      <point x="796" y="0" type="line"/>
      <point x="796" y="818" type="line"/>
      <point x="504" y="818" type="line"/>
      <point x="504" y="0" type="line"/>
      <point x="102" y="0" type="line"/>
      <point x="102" y="1118" type="line"/>
    </contour>
  </outline>
</glyph>
<glyph name="uni04A8" format="2">
  <advance width="2247"/>
  <unicode hex="04A8"/>
  <outline>
    <contour>
      <point x="1763" y="-21" type="qcurve" smooth="yes"/>
      <point x="1669" y="-21"/>
      <point x="1467" y="28"/>
      <point x="1261" y="110"/>
      <point x="1160" y="161" type="qcurve"/>
      <point x="1075" y="236"/>
      <point x="924" y="432"/>
      <point x="830" y="664"/>
      <point x="830" y="793" type="qcurve" smooth="yes"/>
      <point x="830" y="971"/>
      <point x="981" y="1235"/>
      <point x="1257" y="1381"/>
      <point x="1442" y="1381" type="qcurve" smooth="yes"/>
      <point x="1628" y="1381"/>
      <point x="1903" y="1241"/>
      <point x="2055" y="988"/>
      <point x="2055" y="816" type="qcurve" smooth="yes"/>
      <point x="2055" y="671"/>
      <point x="1943" y="416"/>
      <point x="1734" y="209"/>
      <point x="1446" y="60"/>
      <point x="1091" y="-20"/>
      <point x="889" y="-20" type="qcurve" smooth="yes"/>
      <point x="638" y="-20"/>
      <point x="270" y="156"/>
      <point x="70" y="497"/>
      <point x="70" y="744" type="qcurve" smooth="yes"/>
      <point x="70" y="993"/>
      <point x="262" y="1335"/>
      <point x="591" y="1510"/>
      <point x="794" y="1510" type="qcurve"/>
      <point x="794" y="1158" type="line"/>
      <point x="694" y="1158"/>
      <point x="557" y="1063"/>
      <point x="486" y="878"/>
      <point x="486" y="744" type="qcurve" smooth="yes"/>
      <point x="486" y="611"/>
      <point x="564" y="427"/>
      <point x="741" y="332"/>
      <point x="889" y="332" type="qcurve" smooth="yes"/>
      <point x="1066" y="332"/>
      <point x="1348" y="402"/>
      <point x="1546" y="530"/>
      <point x="1651" y="708"/>
      <point x="1651" y="816" type="qcurve" smooth="yes"/>
      <point x="1651" y="878"/>
      <point x="1595" y="978"/>
      <point x="1501" y="1037"/>
      <point x="1442" y="1037" type="qcurve" smooth="yes"/>
      <point x="1384" y="1037"/>
      <point x="1290" y="972"/>
      <point x="1234" y="862"/>
      <point x="1234" y="793" type="qcurve" smooth="yes"/>
      <point x="1234" y="691"/>
      <point x="1320" y="511"/>
      <point x="1474" y="379"/>
      <point x="1575" y="347" type="qcurve"/>
      <point x="1619" y="316"/>
      <point x="1714" y="303"/>
      <point x="1765" y="303" type="qcurve" smooth="yes"/>
      <point x="1831" y="303"/>
      <point x="1989" y="326"/>
      <point x="2077" y="361" type="qcurve"/>
      <point x="2191" y="46" type="line"/>
      <point x="2127" y="16"/>
      <point x="1965" y="-12"/>
      <point x="1813" y="-21"/>
    </contour>
  </outline>
</glyph>
<glyph name="uni04B4" format="2">
  <advance width="2009"/>
  <unicode hex="04B4"/>
  <anchor x="1226" y="1490" name="m.uni030F_1"/>
  <outline>
    <contour>
      <point x="56" y="1164" type="line"/>
      <point x="56" y="1490" type="line"/>
      <point x="1262" y="1490" type="line"/>
      <point x="1262" y="1164" type="line"/>
    </contour>
    <contour>
      <point x="1807" y="0" type="line"/>
      <point x="501" y="0" type="line"/>
      <point x="501" y="1490" type="line"/>
      <point x="905" y="1490" type="line"/>
      <point x="905" y="326" type="line"/>
      <point x="1403" y="326" type="line"/>
      <point x="1403" y="1490" type="line"/>
      <point x="1807" y="1490" type="line"/>
    </contour>
    <contour>
      <point x="1567" y="-320" type="line"/>
      <point x="1567" y="0" type="line"/>
      <point x="1471" y="0" type="line"/>
      <point x="1471" y="300" type="line"/>
      <point x="1977" y="300" type="line"/>
      <point x="1953" y="-320" type="line"/>
    </contour>
  </outline>
</glyph>
<glyph name="uni04BA" format="2">
  <advance width="1461"/>
  <unicode hex="04BA"/>
  <anchor x="348" y="1490" name="m.uni030F_1"/>
  <outline>
    <contour>
      <point x="806" y="987" type="qcurve" smooth="yes"/>
      <point x="967" y="987"/>
      <point x="1217" y="882"/>
      <point x="1359" y="654"/>
      <point x="1359" y="468" type="qcurve" smooth="yes"/>
      <point x="1359" y="0" type="line"/>
      <point x="955" y="0" type="line"/>
      <point x="955" y="428" type="line" smooth="yes"/>
      <point x="955" y="538"/>
      <point x="860" y="667"/>
      <point x="715" y="667" type="qcurve" smooth="yes"/>
      <point x="616" y="667"/>
      <point x="466" y="618"/>
      <point x="424" y="591" type="qcurve"/>
      <point x="424" y="801" type="line"/>
      <point x="510" y="914"/>
      <point x="687" y="987"/>
    </contour>
    <contour>
      <point x="500" y="1490" type="line"/>
      <point x="500" y="0" type="line"/>
      <point x="96" y="0" type="line"/>
      <point x="96" y="1490" type="line"/>
    </contour>
  </outline>
</glyph>
<glyph name="a.sups" format="2">
  <advance width="808"/>
  <unicode hex="1D43"/>
  <outline>
    <contour>
      <point x="290" y="730" type="qcurve" smooth="yes"/>
      <point x="178" y="730"/>
      <point x="32" y="844"/>
      <point x="32" y="958" type="qcurve" smooth="yes"/>
      <point x="32" y="1031"/>
      <point x="88" y="1121"/>
      <point x="175" y="1169"/>
      <point x="272" y="1189"/>
      <point x="312" y="1192" type="qcurve"/>
      <point x="421" y="1203"/>
      <point x="486" y="1219"/>
      <point x="486" y="1254" type="qcurve"/>
      <point x="486" y="1236" type="line"/>
      <point x="486" y="1267"/>
      <point x="454" y="1304"/>
      <point x="410" y="1304" type="qcurve" smooth="yes"/>
      <point x="355" y="1304"/>
      <point x="309" y="1256"/>
      <point x="302" y="1234" type="qcurve"/>
      <point x="58" y="1256" type="line"/>
      <point x="84" y="1372"/>
      <point x="268" y="1498"/>
      <point x="410" y="1498" type="qcurve" smooth="yes"/>
      <point x="487" y="1498"/>
      <point x="644" y="1453"/>
      <point x="750" y="1336"/>
      <point x="750" y="1228" type="qcurve" smooth="yes"/>
      <point x="750" y="744" type="line"/>
      <point x="500" y="744" type="line"/>
      <point x="500" y="826" type="line"/>
      <point x="494" y="826" type="line"/>
      <point x="472" y="789"/>
      <point x="376" y="730"/>
    </contour>
    <contour>
      <point x="366" y="914" type="qcurve"/>
      <point x="425" y="913"/>
      <point x="488" y="963"/>
      <point x="488" y="990" type="qcurve" smooth="yes"/>
      <point x="488" y="1058" type="line"/>
      <point x="478" y="1051"/>
      <point x="424" y="1041"/>
      <point x="367" y="1033"/>
      <point x="352" y="1030" type="qcurve" smooth="yes"/>
      <point x="341" y="1028"/>
      <point x="286" y="1000"/>
      <point x="286" y="962" type="qcurve" smooth="yes"/>
      <point x="286" y="934"/>
      <point x="332" y="913"/>
    </contour>
  </outline>
</glyph>
<glyph name="f.sups" format="2">
  <advance width="562"/>
  <unicode hex="1DA0"/>
  <outline>
    <contour>
      <point x="524" y="1490" type="line"/>
      <point x="524" y="1292" type="line"/>
      <point x="2" y="1292" type="line"/>
      <point x="2" y="1490" type="line"/>
    </contour>
    <contour>
      <point x="114" y="744" type="line"/>
      <point x="114" y="1530" type="line"/>
      <point x="113" y="1664"/>
      <point x="266" y="1790"/>
      <point x="382" y="1790" type="qcurve" smooth="yes"/>
      <point x="438" y="1790"/>
      <point x="536" y="1773"/>
      <point x="558" y="1766" type="qcurve"/>
      <point x="510" y="1568" type="line"/>
      <point x="503" y="1570"/>
      <point x="458" y="1580"/>
      <point x="436" y="1580" type="qcurve" smooth="yes"/>
      <point x="390" y="1580"/>
      <point x="376" y="1543"/>
      <point x="376" y="1518" type="qcurve" smooth="yes"/>
      <point x="376" y="744" type="line"/>
    </contour>
  </outline>
</glyph>
<glyph name="z.sups" format="2">
  <advance width="806"/>
  <unicode hex="1DBB"/>
  <outline>
    <contour>
      <point x="66" y="744" type="line"/>
      <point x="66" y="902" type="line"/>
      <point x="408" y="1272" type="line"/>
      <point x="408" y="1278" type="line"/>
      <point x="72" y="1278" type="line"/>
      <point x="72" y="1490" type="line"/>
      <point x="728" y="1490" type="line"/>
      <point x="728" y="1318" type="line"/>
      <point x="416" y="962" type="line"/>
      <point x="416" y="958" type="line"/>
      <point x="736" y="958" type="line"/>
      <point x="736" y="744" type="line"/>
    </contour>
  </outline>
</glyph>
<glyph name="uni1DC0" format="2">
  <unicode hex="1DC0"/>
  <outline>
    <contour>
      <point x="-692" y="1536" type="line"/>
      <point x="-480" y="1216" type="line"/>
      <point x="-786" y="1216" type="line"/>
      <point x="-1086" y="1536" type="line"/>
    </contour>
    <contour>
      <point x="-1408" y="1298" type="qcurve" smooth="yes"/>
      <point x="-1408" y="1368"/>
      <point x="-1293" y="1464"/>
      <point x="-1202" y="1464" type="qcurve" smooth="yes"/>
      <point x="-1110" y="1464"/>
      <point x="-992" y="1368"/>
      <point x="-992" y="1298" type="qcurve" smooth="yes"/>
      <point x="-992" y="1228"/>
      <point x="-1110" y="1132"/>
      <point x="-1202" y="1132" type="qcurve" smooth="yes"/>
      <point x="-1293" y="1132"/>
      <point x="-1408" y="1228"/>
    </contour>
    <contour>
      <point x="-514" y="1396" type="qcurve"/>
      <point x="-515" y="1468"/>
      <point x="-398" y="1562"/>
      <point x="-308" y="1562" type="qcurve" smooth="yes"/>
      <point x="-219" y="1562"/>
      <point x="-102" y="1468"/>
      <point x="-102" y="1396" type="qcurve" smooth="yes"/>
      <point x="-102" y="1326"/>
      <point x="-216" y="1234"/>
      <point x="-308" y="1234" type="qcurve" smooth="yes"/>
      <point x="-398" y="1234"/>
      <point x="-515" y="1326"/>
    </contour>
  </outline>
</glyph>
<glyph name="uni1DCA" format="2">
  <unicode hex="1DCA"/>
  <outline>
    <contour>
      <point x="-614" y="-264" type="line"/>
      <point x="-614" y="-550" type="line"/>
      <point x="-798" y="-550" type="line"/>
      <point x="-798" y="-128" type="line"/>
      <point x="-632" y="-128" type="line"/>
    </contour>
    <contour>
      <point x="-460" y="-128" type="qcurve"/>
      <point x="-460" y="-312" type="line"/>
      <point x="-470" y="-309"/>
      <point x="-500" y="-302"/>
      <point x="-524" y="-302" type="qcurve" smooth="yes"/>
      <point x="-574" y="-302"/>
      <point x="-640" y="-340"/>
      <point x="-640" y="-390" type="qcurve"/>
      <point x="-692" y="-390" type="line"/>
      <point x="-692" y="-274"/>
      <point x="-583" y="-122"/>
      <point x="-510" y="-122" type="qcurve" smooth="yes"/>
      <point x="-496" y="-122"/>
      <point x="-470" y="-123"/>
    </contour>
  </outline>
</glyph>
<glyph name="uni1DCE" format="2">
  <unicode hex="1DCE"/>
  <outline>
    <contour>
      <point x="-809" y="1462" type="qcurve" smooth="yes"/>
      <point x="-675" y="1462"/>
      <point x="-521" y="1343"/>
      <point x="-521" y="1236" type="qcurve" smooth="yes"/>
      <point x="-521" y="1166"/>
      <point x="-584" y="1047"/>
      <point x="-634" y="1009" type="qcurve"/>
      <point x="-1010" y="1036" type="line"/>
      <point x="-919" y="1064"/>
      <point x="-850" y="1137"/>
      <point x="-850" y="1181" type="qcurve" smooth="yes"/>
      <point x="-850" y="1213"/>
      <point x="-881" y="1250"/>
      <point x="-913" y="1250" type="qcurve" smooth="yes"/>
      <point x="-929" y="1250"/>
      <point x="-962" y="1240"/>
      <point x="-977" y="1231" type="qcurve"/>
      <point x="-1046" y="1411" type="line"/>
      <point x="-1003" y="1435"/>
      <point x="-870" y="1462"/>
    </contour>
  </outline>
</glyph>
<glyph name="uni1DD1" format="2">
  <unicode hex="1DD1"/>
  <outline>
    <contour>
      <point x="-568" y="1280" type="qcurve" smooth="yes"/>
      <point x="-544" y="1280"/>
      <point x="-515" y="1311"/>
      <point x="-514" y="1342" type="qcurve"/>
      <point x="-515" y="1377"/>
      <point x="-549" y="1412"/>
      <point x="-590" y="1414" type="qcurve"/>
      <point x="-590" y="1556" type="line"/>
      <point x="-544" y="1556"/>
      <point x="-450" y="1508"/>
      <point x="-387" y="1414"/>
      <point x="-386" y="1344" type="qcurve"/>
      <point x="-387" y="1244"/>
      <point x="-496" y="1134"/>
      <point x="-570" y="1134" type="qcurve" smooth="yes"/>
      <point x="-652" y="1134"/>
      <point x="-739" y="1219"/>
      <point x="-756" y="1306" type="qcurve"/>
      <point x="-770" y="1371"/>
      <point x="-808" y="1396"/>
      <point x="-820" y="1396" type="qcurve" smooth="yes"/>
      <point x="-845" y="1396"/>
      <point x="-876" y="1365"/>
      <point x="-876" y="1342" type="qcurve" smooth="yes"/>
      <point x="-876" y="1313"/>
      <point x="-839" y="1287"/>
      <point x="-808" y="1288" type="qcurve"/>
      <point x="-808" y="1132" type="line"/>
      <point x="-896" y="1132"/>
      <point x="-1000" y="1243"/>
      <point x="-1000" y="1342" type="qcurve" smooth="yes"/>
      <point x="-1000" y="1437"/>
      <point x="-884" y="1542"/>
      <point x="-812" y="1542" type="qcurve" smooth="yes"/>
      <point x="-738" y="1542"/>
      <point x="-651" y="1460"/>
      <point x="-632" y="1374" type="qcurve" smooth="yes"/>
      <point x="-619" y="1315"/>
      <point x="-585" y="1280"/>
    </contour>
  </outline>
</glyph>
<glyph name="uni1DD4" format="2">
  <unicode hex="1DD4"/>
  <outline>
    <contour>
      <point x="-768" y="1506" type="line"/>
      <point x="-768" y="1570" type="line" smooth="yes"/>
      <point x="-768" y="1602"/>
      <point x="-806" y="1634"/>
      <point x="-844" y="1634" type="qcurve" smooth="yes"/>
      <point x="-872" y="1634"/>
      <point x="-898" y="1612"/>
      <point x="-898" y="1586" type="qcurve"/>
      <point x="-1086" y="1580" type="line"/>
      <point x="-1085" y="1658"/>
      <point x="-945" y="1766"/>
      <point x="-830" y="1766" type="qcurve" smooth="yes"/>
      <point x="-726" y="1766"/>
      <point x="-588" y="1666"/>
      <point x="-588" y="1568" type="qcurve" smooth="yes"/>
      <point x="-588" y="1498" type="line"/>
    </contour>
    <contour>
      <point x="-748" y="1544" type="line"/>
      <point x="-744" y="1452" type="line"/>
      <point x="-814" y="1452" type="line" smooth="yes"/>
      <point x="-866" y="1452"/>
      <point x="-910" y="1400"/>
      <point x="-910" y="1368" type="qcurve" smooth="yes"/>
      <point x="-910" y="1348"/>
      <point x="-874" y="1320"/>
      <point x="-852" y="1320" type="qcurve" smooth="yes"/>
      <point x="-806" y="1320"/>
      <point x="-761" y="1366"/>
      <point x="-760" y="1388" type="qcurve"/>
      <point x="-718" y="1306" type="line"/>
      <point x="-738" y="1272"/>
      <point x="-822" y="1190"/>
      <point x="-908" y="1190" type="qcurve" smooth="yes"/>
      <point x="-988" y="1190"/>
      <point x="-1090" y="1282"/>
      <point x="-1090" y="1358" type="qcurve" smooth="yes"/>
      <point x="-1090" y="1444"/>
      <point x="-957" y="1544"/>
      <point x="-818" y="1544" type="qcurve" smooth="yes"/>
    </contour>
    <contour>
      <point x="-468" y="1186" type="qcurve"/>
      <point x="-562" y="1187"/>
      <point x="-698" y="1263"/>
      <point x="-770" y="1387"/>
      <point x="-770" y="1458" type="qcurve" smooth="yes"/>
      <point x="-770" y="1474" type="line" smooth="yes"/>
      <point x="-770" y="1549"/>
      <point x="-710" y="1679"/>
      <point x="-584" y="1760"/>
      <point x="-488" y="1760" type="qcurve" smooth="yes"/>
      <point x="-366" y="1760"/>
      <point x="-226" y="1618"/>
      <point x="-226" y="1490" type="qcurve" smooth="yes"/>
      <point x="-226" y="1410" type="line"/>
      <point x="-704" y="1410" type="line"/>
      <point x="-704" y="1528" type="line"/>
      <point x="-408" y="1528" type="line"/>
      <point x="-408" y="1544" type="line"/>
      <point x="-407" y="1579"/>
      <point x="-452" y="1618"/>
      <point x="-492" y="1618" type="qcurve" smooth="yes"/>
      <point x="-550" y="1618"/>
      <point x="-588" y="1523"/>
      <point x="-588" y="1474" type="qcurve" smooth="yes"/>
      <point x="-588" y="1458" type="line" smooth="yes"/>
      <point x="-588" y="1401"/>
      <point x="-515" y="1330"/>
      <point x="-456" y="1330" type="qcurve" smooth="yes"/>
      <point x="-421" y="1330"/>
      <point x="-350" y="1354"/>
      <point x="-326" y="1384" type="qcurve"/>
      <point x="-242" y="1280" type="line"/>
      <point x="-267" y="1245"/>
      <point x="-388" y="1187"/>
    </contour>
  </outline>
</glyph>
<glyph name="uni1DD5" format="2">
  <unicode hex="1DD5"/>
  <outline>
    <contour>
      <point x="-798" y="1506" type="line"/>
      <point x="-798" y="1570" type="line"/>
      <point x="-797" y="1602"/>
      <point x="-835" y="1634"/>
      <point x="-872" y="1634" type="qcurve" smooth="yes"/>
      <point x="-901" y="1634"/>
      <point x="-928" y="1612"/>
      <point x="-928" y="1586" type="qcurve"/>
      <point x="-1114" y="1580" type="line"/>
      <point x="-1114" y="1658"/>
      <point x="-973" y="1766"/>
      <point x="-858" y="1766" type="qcurve" smooth="yes"/>
      <point x="-755" y="1766"/>
      <point x="-616" y="1666"/>
      <point x="-616" y="1568" type="qcurve" smooth="yes"/>
      <point x="-616" y="1498" type="line"/>
    </contour>
    <contour>
      <point x="-776" y="1544" type="line"/>
      <point x="-774" y="1452" type="line"/>
      <point x="-844" y="1452" type="line" smooth="yes"/>
      <point x="-896" y="1452"/>
      <point x="-940" y="1400"/>
      <point x="-940" y="1368" type="qcurve" smooth="yes"/>
      <point x="-940" y="1348"/>
      <point x="-904" y="1320"/>
      <point x="-882" y="1320" type="qcurve" smooth="yes"/>
      <point x="-835" y="1320"/>
      <point x="-793" y="1367"/>
      <point x="-782" y="1390" type="qcurve"/>
      <point x="-748" y="1306" type="line"/>
      <point x="-767" y="1272"/>
      <point x="-851" y="1190"/>
      <point x="-936" y="1190" type="qcurve" smooth="yes"/>
      <point x="-1017" y="1190"/>
      <point x="-1120" y="1282"/>
      <point x="-1120" y="1358" type="qcurve" smooth="yes"/>
      <point x="-1120" y="1444"/>
      <point x="-986" y="1544"/>
      <point x="-844" y="1544" type="qcurve" smooth="yes"/>
    </contour>
    <contour>
      <point x="-518" y="1186" type="qcurve"/>
      <point x="-655" y="1187"/>
      <point x="-798" y="1348"/>
      <point x="-798" y="1466" type="qcurve" smooth="yes"/>
      <point x="-798" y="1478" type="line"/>
      <point x="-797" y="1557"/>
      <point x="-735" y="1684"/>
      <point x="-612" y="1760"/>
      <point x="-520" y="1760" type="qcurve" smooth="yes"/>
      <point x="-381" y="1760"/>
      <point x="-242" y="1594"/>
      <point x="-242" y="1478" type="qcurve" smooth="yes"/>
      <point x="-242" y="1466" type="line"/>
      <point x="-241" y="1348"/>
      <point x="-382" y="1187"/>
    </contour>
    <contour>
      <point x="-518" y="1330" type="qcurve"/>
      <point x="-463" y="1329"/>
      <point x="-422" y="1411"/>
      <point x="-422" y="1466" type="qcurve" smooth="yes"/>
      <point x="-422" y="1478" type="line" smooth="yes"/>
      <point x="-422" y="1533"/>
      <point x="-464" y="1618"/>
      <point x="-520" y="1618" type="qcurve" smooth="yes"/>
      <point x="-575" y="1618"/>
      <point x="-616" y="1531"/>
      <point x="-616" y="1478" type="qcurve" smooth="yes"/>
      <point x="-616" y="1466" type="line"/>
      <point x="-617" y="1414"/>
      <point x="-576" y="1329"/>
    </contour>
  </outline>
</glyph>
<glyph name="uni1DE4" format="2">
  <unicode hex="1DE4"/>
  <outline>
    <contour>
      <point x="-602" y="1352" type="qcurve"/>
      <point x="-603" y="1363"/>
      <point x="-639" y="1397"/>
      <point x="-712" y="1410" type="qcurve" smooth="yes"/>
      <point x="-809" y="1428"/>
      <point x="-916" y="1503"/>
      <point x="-916" y="1576" type="qcurve" smooth="yes"/>
      <point x="-916" y="1644"/>
      <point x="-794" y="1758"/>
      <point x="-678" y="1758" type="qcurve" smooth="yes"/>
      <point x="-559" y="1758"/>
      <point x="-424" y="1657"/>
      <point x="-424" y="1576" type="qcurve"/>
      <point x="-610" y="1576" type="line"/>
      <point x="-609" y="1605"/>
      <point x="-641" y="1638"/>
      <point x="-678" y="1638" type="qcurve" smooth="yes"/>
      <point x="-704" y="1638"/>
      <point x="-744" y="1610"/>
      <point x="-744" y="1588" type="qcurve" smooth="yes"/>
      <point x="-744" y="1573"/>
      <point x="-713" y="1541"/>
      <point x="-632" y="1528" type="qcurve" smooth="yes"/>
      <point x="-531" y="1512"/>
      <point x="-428" y="1430"/>
      <point x="-428" y="1356" type="qcurve" smooth="yes"/>
      <point x="-428" y="1288"/>
      <point x="-561" y="1184"/>
      <point x="-680" y="1184" type="qcurve" smooth="yes"/>
      <point x="-763" y="1184"/>
      <point x="-877" y="1242"/>
      <point x="-934" y="1330"/>
      <point x="-934" y="1374" type="qcurve"/>
      <point x="-762" y="1374" type="line"/>
      <point x="-763" y="1337"/>
      <point x="-717" y="1304"/>
      <point x="-674" y="1304" type="qcurve" smooth="yes"/>
      <point x="-640" y="1304"/>
      <point x="-603" y="1329"/>
    </contour>
  </outline>
</glyph>
<glyph name="uni1DE7" format="2">
  <unicode hex="1DE7"/>
  <outline>
    <contour>
      <point x="-756" y="1192" type="qcurve"/>
      <point x="-864" y="1193"/>
      <point x="-976" y="1347"/>
      <point x="-978" y="1470" type="qcurve"/>
      <point x="-978" y="1480" type="line"/>
      <point x="-976" y="1603"/>
      <point x="-864" y="1762"/>
      <point x="-756" y="1762" type="qcurve" smooth="yes"/>
      <point x="-696" y="1762"/>
      <point x="-621" y="1678"/>
      <point x="-578" y="1543"/>
      <point x="-568" y="1466" type="qcurve"/>
      <point x="-568" y="1460" type="line"/>
      <point x="-578" y="1389"/>
      <point x="-621" y="1267"/>
      <point x="-696" y="1193"/>
    </contour>
    <contour>
      <point x="-710" y="1332" type="qcurve" smooth="yes"/>
      <point x="-660" y="1332"/>
      <point x="-620" y="1388"/>
      <point x="-626" y="1442" type="qcurve"/>
      <point x="-626" y="1490" type="line"/>
      <point x="-622" y="1549"/>
      <point x="-657" y="1620"/>
      <point x="-710" y="1620" type="qcurve" smooth="yes"/>
      <point x="-756" y="1620"/>
      <point x="-794" y="1533"/>
      <point x="-794" y="1480" type="qcurve" smooth="yes"/>
      <point x="-794" y="1470" type="line"/>
      <point x="-793" y="1417"/>
      <point x="-761" y="1332"/>
    </contour>
    <contour>
      <point x="-622" y="1752" type="line"/>
      <point x="-462" y="1752" type="line"/>
      <point x="-462" y="1406" type="line"/>
      <point x="-461" y="1371"/>
      <point x="-445" y="1336"/>
      <point x="-424" y="1336" type="qcurve" smooth="yes"/>
      <point x="-418" y="1336"/>
      <point x="-418" y="1338" type="qcurve"/>
      <point x="-404" y="1198" type="line"/>
      <point x="-420" y="1192"/>
      <point x="-449" y="1190"/>
      <point x="-466" y="1190" type="qcurve" smooth="yes"/>
      <point x="-548" y="1190"/>
      <point x="-644" y="1300"/>
      <point x="-646" y="1406" type="qcurve"/>
      <point x="-646" y="1634" type="line"/>
    </contour>
  </outline>
</glyph>
<glyph name="uni1DEB" format="2">
  <unicode hex="1DEB"/>
  <outline>
    <contour>
      <point x="-512" y="1760" type="line"/>
      <point x="-512" y="1634" type="line"/>
      <point x="-856" y="1634" type="line"/>
      <point x="-856" y="1760" type="line"/>
    </contour>
    <contour>
      <point x="-588" y="1202" type="line"/>
      <point x="-774" y="1202" type="line"/>
      <point x="-774" y="1812" type="line"/>
      <point x="-773" y="1906"/>
      <point x="-654" y="2008"/>
      <point x="-550" y="2008" type="qcurve" smooth="yes"/>
      <point x="-523" y="2008"/>
      <point x="-476" y="2000"/>
      <point x="-466" y="1998" type="qcurve"/>
      <point x="-462" y="1858" type="line"/>
      <point x="-470" y="1863"/>
      <point x="-490" y="1864"/>
      <point x="-506" y="1864" type="qcurve" smooth="yes"/>
      <point x="-547" y="1864"/>
      <point x="-588" y="1836"/>
      <point x="-588" y="1812" type="qcurve" smooth="yes"/>
    </contour>
  </outline>
</glyph>
<glyph name="uni1FDD" format="2">
  <advance width="1127"/>
  <unicode hex="1FDD"/>
  <outline>
    <contour>
      <point x="367" y="1239" type="line" smooth="yes"/>
      <point x="230" y="1239"/>
      <point x="80" y="1329"/>
      <point x="80" y="1417" type="qcurve" smooth="yes"/>
      <point x="80" y="1504"/>
      <point x="228" y="1602"/>
      <point x="367" y="1602" type="qcurve" smooth="yes"/>
      <point x="418" y="1602" type="line"/>
      <point x="418" y="1440" type="line"/>
      <point x="353" y="1440" type="line" smooth="yes"/>
      <point x="305" y="1440"/>
      <point x="257" y="1413"/>
      <point x="257" y="1386" type="qcurve" smooth="yes"/>
      <point x="257" y="1358"/>
      <point x="312" y="1329"/>
      <point x="367" y="1329" type="qcurve" smooth="yes"/>
      <point x="380" y="1329" type="line"/>
      <point x="380" y="1239" type="line"/>
    </contour>
    <contour>
      <point x="871" y="1256" type="line"/>
      <point x="677" y="1256" type="line"/>
      <point x="552" y="1595" type="line"/>
      <point x="843" y="1595" type="line"/>
    </contour>
  </outline>
</glyph>
<glyph name="uni1FED" format="2">
  <advance width="1234"/>
  <unicode hex="1FED"/>
  <outline>
    <contour>
      <point x="727" y="1491" type="line"/>
      <point x="503" y="1491" type="line"/>
      <point x="359" y="1817" type="line"/>
      <point x="695" y="1817" type="line"/>
    </contour>
    <contour>
      <point x="263" y="1247" type="qcurve" smooth="yes"/>
      <point x="190" y="1247"/>
      <point x="87" y="1346"/>
      <point x="87" y="1416" type="qcurve" smooth="yes"/>
      <point x="87" y="1486"/>
      <point x="190" y="1585"/>
      <point x="263" y="1585" type="qcurve" smooth="yes"/>
      <point x="336" y="1585"/>
      <point x="439" y="1486"/>
      <point x="439" y="1416" type="qcurve" smooth="yes"/>
      <point x="439" y="1346"/>
      <point x="336" y="1247"/>
    </contour>
    <contour>
      <point x="957" y="1247" type="qcurve" smooth="yes"/>
      <point x="884" y="1247"/>
      <point x="781" y="1346"/>
      <point x="781" y="1416" type="qcurve" smooth="yes"/>
      <point x="781" y="1486"/>
      <point x="884" y="1585"/>
      <point x="957" y="1585" type="qcurve" smooth="yes"/>
      <point x="1030" y="1585"/>
      <point x="1133" y="1486"/>
      <point x="1133" y="1416" type="qcurve" smooth="yes"/>
      <point x="1133" y="1346"/>
      <point x="1030" y="1247"/>
    </contour>
  </outline>
</glyph>
<glyph name="quotereversed" format="2">
  <advance width="808"/>
  <unicode hex="201B"/>
  <outline>
    <contour>
      <point x="638" y="824" type="line"/>
      <point x="378" y="824" type="line"/>
      <point x="170" y="1490" type="line"/>
      <point x="550" y="1490" type="line"/>
    </contour>
  </outline>
</glyph>
<glyph name="bullet" format="2">
  <advance width="816"/>
  <unicode hex="2022"/>
  <outline>
    <contour>
      <point x="408" y="274" type="qcurve" smooth="yes"/>
      <point x="320" y="274"/>
      <point x="174" y="360"/>
      <point x="88" y="506"/>
      <point x="88" y="594" type="qcurve" smooth="yes"/>
      <point x="88" y="683"/>
      <point x="174" y="828"/>
      <point x="320" y="914"/>
      <point x="408" y="914" type="qcurve" smooth="yes"/>
      <point x="497" y="914"/>
      <point x="642" y="828"/>
      <point x="728" y="683"/>
      <point x="728" y="594" type="qcurve" smooth="yes"/>
      <point x="728" y="506"/>
      <point x="642" y="360"/>
      <point x="497" y="274"/>
    </contour>
  </outline>
</glyph>
<glyph name="uni203D" format="2">
  <advance width="1230"/>
  <unicode hex="203D"/>
  <outline>
    <contour>
      <point x="434" y="466" type="line"/>
      <point x="434" y="500" type="line" smooth="yes"/>
      <point x="434" y="620"/>
      <point x="465" y="768"/>
      <point x="535" y="854"/>
      <point x="594" y="882" type="qcurve" smooth="yes"/>
      <point x="664" y="914"/>
      <point x="730" y="1019"/>
      <point x="730" y="1076" type="qcurve" smooth="yes"/>
      <point x="730" y="1113"/>
      <point x="692" y="1167"/>
      <point x="630" y="1198"/>
      <point x="594" y="1198" type="qcurve" smooth="yes"/>
      <point x="555" y="1198"/>
      <point x="488" y="1162"/>
      <point x="448" y="1098"/>
      <point x="448" y="1056" type="qcurve"/>
      <point x="76" y="1056" type="line"/>
      <point x="78" y="1216"/>
      <point x="219" y="1416"/>
      <point x="455" y="1510"/>
      <point x="596" y="1510" type="qcurve" smooth="yes"/>
      <point x="752" y="1510"/>
      <point x="997" y="1419"/>
      <point x="1138" y="1237"/>
      <point x="1138" y="1100" type="qcurve" smooth="yes"/>
      <point x="1138" y="967"/>
      <point x="1005" y="798"/>
      <point x="898" y="736" type="qcurve" smooth="yes"/>
      <point x="846" y="705"/>
      <point x="774" y="640"/>
      <point x="738" y="558"/>
      <point x="738" y="500" type="qcurve" smooth="yes"/>
      <point x="738" y="466" type="line"/>
    </contour>
    <contour>
      <point x="436" y="466" type="line"/>
      <point x="344" y="1000" type="line"/>
      <point x="600" y="1000" type="line"/>
      <point x="600" y="466" type="line"/>
    </contour>
    <contour>
      <point x="575" y="-24" type="qcurve" smooth="yes"/>
      <point x="487" y="-24"/>
      <point x="369" y="92"/>
      <point x="369" y="179" type="qcurve" smooth="yes"/>
      <point x="369" y="266"/>
      <point x="487" y="382"/>
      <point x="575" y="382" type="qcurve" smooth="yes"/>
      <point x="663" y="382"/>
      <point x="781" y="266"/>
      <point x="781" y="179" type="qcurve" smooth="yes"/>
      <point x="781" y="92"/>
      <point x="663" y="-24"/>
    </contour>
  </outline>
</glyph>
<glyph name="fraction" format="2">
  <advance width="224"/>
  <unicode hex="2044"/>
  <outline>
    <contour>
      <point x="-520" y="0" type="line"/>
      <point x="504" y="1490" type="line"/>
      <point x="744" y="1490" type="line"/>
      <point x="-280" y="0" type="line"/>
    </contour>
  </outline>
</glyph>
<glyph name="uni205C" format="2">
  <advance width="1466"/>
  <unicode hex="205C"/>
  <outline>
    <contour>
      <point x="116" y="414" type="line"/>
      <point x="116" y="704" type="line"/>
      <point x="1350" y="704" type="line"/>
      <point x="1350" y="414" type="line"/>
    </contour>
    <contour>
      <point x="532" y="0" type="line"/>
      <point x="532" y="1118" type="line"/>
      <point x="934" y="1118" type="line"/>
      <point x="934" y="0" type="line"/>
    </contour>
    <contour>
      <point x="1164" y="24" type="qcurve"/>
      <point x="1084" y="23"/>
      <point x="990" y="114"/>
      <point x="990" y="190" type="qcurve" smooth="yes"/>
      <point x="990" y="263"/>
      <point x="1084" y="350"/>
      <point x="1164" y="350" type="qcurve" smooth="yes"/>
      <point x="1243" y="350"/>
      <point x="1338" y="263"/>
      <point x="1338" y="190" type="qcurve" smooth="yes"/>
      <point x="1338" y="114"/>
      <point x="1243" y="23"/>
    </contour>
    <contour>
      <point x="302" y="24" type="qcurve"/>
      <point x="223" y="23"/>
      <point x="128" y="114"/>
      <point x="128" y="190" type="qcurve" smooth="yes"/>
      <point x="128" y="263"/>
      <point x="223" y="350"/>
      <point x="302" y="350" type="qcurve" smooth="yes"/>
      <point x="382" y="350"/>
      <point x="477" y="263"/>
      <point x="478" y="190" type="qcurve"/>
      <point x="477" y="114"/>
      <point x="382" y="23"/>
    </contour>
    <contour>
      <point x="302" y="768" type="qcurve" smooth="yes"/>
      <point x="223" y="768"/>
      <point x="128" y="858"/>
      <point x="128" y="934" type="qcurve" smooth="yes"/>
      <point x="128" y="1007"/>
      <point x="223" y="1094"/>
      <point x="302" y="1094" type="qcurve" smooth="yes"/>
      <point x="382" y="1094"/>
      <point x="477" y="1007"/>
      <point x="478" y="934" type="qcurve"/>
      <point x="477" y="858"/>
      <point x="382" y="768"/>
    </contour>
    <contour>
      <point x="1164" y="768" type="qcurve" smooth="yes"/>
      <point x="1084" y="768"/>
      <point x="990" y="858"/>
      <point x="990" y="934" type="qcurve" smooth="yes"/>
      <point x="990" y="1007"/>
      <point x="1084" y="1094"/>
      <point x="1164" y="1094" type="qcurve" smooth="yes"/>
      <point x="1243" y="1094"/>
      <point x="1338" y="1007"/>
      <point x="1338" y="934" type="qcurve" smooth="yes"/>
      <point x="1338" y="858"/>
      <point x="1243" y="768"/>
    </contour>
  </outline>
</glyph>
<glyph name="four.sups" format="2">
  <advance width="966"/>
  <unicode hex="2074"/>
  <outline>
    <contour>
      <point x="52" y="876" type="line"/>
      <point x="52" y="1088" type="line"/>
      <point x="454" y="1638" type="line"/>
      <point x="634" y="1638" type="line"/>
      <point x="634" y="1356" type="line"/>
      <point x="530" y="1356" type="line"/>
      <point x="320" y="1100" type="line"/>
      <point x="320" y="1090" type="line"/>
      <point x="920" y="1090" type="line"/>
      <point x="920" y="876" type="line"/>
    </contour>
    <contour>
      <point x="536" y="744" type="line"/>
      <point x="536" y="940" type="line"/>
      <point x="542" y="1036" type="line"/>
      <point x="542" y="1638" type="line"/>
      <point x="792" y="1638" type="line"/>
      <point x="792" y="744" type="line"/>
    </contour>
  </outline>
</glyph>
<glyph name="equal.sups" format="2">
  <advance width="928"/>
  <unicode hex="207C"/>
  <outline>
    <contour>
      <point x="104" y="1178" type="line"/>
      <point x="104" y="1396" type="line"/>
      <point x="824" y="1396" type="line"/>
      <point x="824" y="1178" type="line"/>
    </contour>
    <contour>
      <point x="104" y="850" type="line"/>
      <point x="104" y="1068" type="line"/>
      <point x="824" y="1068" type="line"/>
      <point x="824" y="850" type="line"/>
    </contour>
  </outline>
</glyph>
<glyph name="n.sups" format="2">
  <advance width="870"/>
  <unicode hex="207F"/>
  <outline>
    <contour>
      <point x="328" y="1146" type="qcurve"/>
      <point x="328" y="744" type="line"/>
      <point x="64" y="744" type="line"/>
      <point x="64" y="1490" type="line"/>
      <point x="314" y="1490" type="line"/>
      <point x="314" y="1356" type="line"/>
      <point x="326" y="1356" type="line"/>
      <point x="350" y="1421"/>
      <point x="462" y="1498"/>
      <point x="550" y="1498" type="qcurve" smooth="yes"/>
      <point x="666" y="1498"/>
      <point x="806" y="1347"/>
      <point x="806" y="1208" type="qcurve" smooth="yes"/>
      <point x="806" y="744" type="line"/>
      <point x="542" y="744" type="line"/>
      <point x="542" y="1160" type="line"/>
      <point x="541" y="1219"/>
      <point x="490" y="1280"/>
      <point x="442" y="1280" type="qcurve" smooth="yes"/>
      <point x="392" y="1280"/>
      <point x="329" y="1214"/>
    </contour>
  </outline>
</glyph>
<glyph name="uni2094" format="2">
  <advance width="1038"/>
  <unicode hex="2094"/>
  <outline>
    <contour>
      <point x="474" y="396" type="qcurve" smooth="yes"/>
      <point x="617" y="396"/>
      <point x="811" y="285"/>
      <point x="910" y="107"/>
      <point x="910" y="6" type="qcurve" smooth="yes"/>
      <point x="910" y="-24" type="line"/>
      <point x="911" y="-134"/>
      <point x="825" y="-322"/>
      <point x="646" y="-436"/>
      <point x="506" y="-436" type="qcurve" smooth="yes"/>
      <point x="389" y="-436"/>
      <point x="218" y="-343"/>
      <point x="126" y="-167"/>
      <point x="126" y="-44" type="qcurve" smooth="yes"/>
      <point x="126" y="58" type="line"/>
      <point x="818" y="58" type="line"/>
      <point x="818" y="-98" type="line"/>
      <point x="372" y="-98" type="line"/>
      <point x="372" y="-122" type="line" smooth="yes"/>
      <point x="372" y="-177"/>
      <point x="452" y="-230"/>
      <point x="510" y="-230" type="qcurve" smooth="yes"/>
      <point x="595" y="-230"/>
      <point x="666" y="-106"/>
      <point x="666" y="-24" type="qcurve" smooth="yes"/>
      <point x="666" y="6" type="line" smooth="yes"/>
      <point x="666" y="86"/>
      <point x="547" y="190"/>
      <point x="460" y="190" type="qcurve" smooth="yes"/>
      <point x="414" y="190"/>
      <point x="301" y="160"/>
      <point x="262" y="114" type="qcurve"/>
      <point x="146" y="258" type="line"/>
      <point x="185" y="307"/>
      <point x="354" y="396"/>
    </contour>
  </outline>
</glyph>
<glyph name="uni20A2" format="2">
  <advance width="1483"/>
  <unicode hex="20A2"/>
  <outline>
    <contour>
      <point x="1300" y="878" type="qcurve"/>
      <point x="1178" y="576" type="line"/>
      <point x="1169" y="583"/>
      <point x="1106" y="596"/>
      <point x="1074" y="596" type="qcurve" smooth="yes"/>
      <point x="1027" y="596"/>
      <point x="958" y="561"/>
      <point x="920" y="494"/>
      <point x="920" y="446" type="qcurve" smooth="yes"/>
      <point x="920" y="152" type="line"/>
      <point x="582" y="152" type="line"/>
      <point x="582" y="896" type="line"/>
      <point x="920" y="896" type="line"/>
      <point x="920" y="770" type="line"/>
      <point x="928" y="770" type="line"/>
      <point x="944" y="829"/>
      <point x="1006" y="888"/>
      <point x="1093" y="908"/>
      <point x="1144" y="908" type="qcurve" smooth="yes"/>
      <point x="1187" y="908"/>
      <point x="1276" y="892"/>
    </contour>
    <contour>
      <point x="1418" y="1022" type="qcurve"/>
      <point x="1030" y="954" type="line"/>
      <point x="1014" y="1003"/>
      <point x="963" y="1078"/>
      <point x="896" y="1128"/>
      <point x="811" y="1154"/>
      <point x="760" y="1154" type="qcurve" smooth="yes"/>
      <point x="674" y="1154"/>
      <point x="548" y="1074"/>
      <point x="480" y="893"/>
      <point x="480" y="742" type="qcurve" smooth="yes"/>
      <point x="480" y="589"/>
      <point x="548" y="411"/>
      <point x="674" y="334"/>
      <point x="760" y="334" type="qcurve" smooth="yes"/>
      <point x="809" y="334"/>
      <point x="890" y="357"/>
      <point x="956" y="405"/>
      <point x="1005" y="476"/>
      <point x="1022" y="524" type="qcurve"/>
      <point x="1414" y="456" type="line"/>
      <point x="1378" y="339"/>
      <point x="1250" y="161"/>
      <point x="1079" y="41"/>
      <point x="874" y="-20"/>
      <point x="760" y="-20" type="qcurve" smooth="yes"/>
      <point x="563" y="-20"/>
      <point x="251" y="157"/>
      <point x="70" y="498"/>
      <point x="70" y="742" type="qcurve" smooth="yes"/>
      <point x="70" y="987"/>
      <point x="250" y="1330"/>
      <point x="562" y="1510"/>
      <point x="760" y="1510" type="qcurve" smooth="yes"/>
      <point x="875" y="1510"/>
      <point x="1082" y="1447"/>
      <point x="1255" y="1322"/>
      <point x="1382" y="1141"/>
    </contour>
  </outline>
</glyph>
<glyph name="lira" format="2">
  <advance width="1379"/>
  <unicode hex="20A4"/>
  <outline>
    <contour>
      <point x="81" y="282" type="qcurve"/>
      <point x="81" y="328" type="line"/>
      <point x="159" y="328"/>
      <point x="258" y="388"/>
      <point x="253" y="448" type="qcurve"/>
      <point x="216" y="964" type="line" smooth="yes"/>
      <point x="203" y="1145"/>
      <point x="341" y="1389"/>
      <point x="590" y="1514"/>
      <point x="744" y="1514" type="qcurve" smooth="yes"/>
      <point x="882" y="1514"/>
      <point x="1105" y="1412"/>
      <point x="1251" y="1222"/>
      <point x="1274" y="1089" type="qcurve"/>
      <point x="900" y="1032" type="line"/>
      <point x="890" y="1112"/>
      <point x="819" y="1186"/>
      <point x="752" y="1186" type="qcurve" smooth="yes"/>
      <point x="696" y="1186"/>
      <point x="626" y="1145"/>
      <point x="596" y="1057"/>
      <point x="598" y="988" type="qcurve" smooth="yes"/>
      <point x="615" y="524" type="line" smooth="yes"/>
      <point x="618" y="439"/>
      <point x="526" y="340"/>
      <point x="381" y="293"/>
      <point x="226" y="279"/>
      <point x="104" y="282"/>
    </contour>
    <contour>
      <point x="80" y="0" type="line"/>
      <point x="80" y="328" type="line"/>
      <point x="1304" y="328" type="line"/>
      <point x="1304" y="0" type="line"/>
    </contour>
    <contour>
      <point x="80" y="507" type="line"/>
      <point x="80" y="659" type="line"/>
      <point x="954" y="659" type="line"/>
      <point x="954" y="507" type="line"/>
    </contour>
    <contour>
      <point x="80" y="785" type="line"/>
      <point x="80" y="937" type="line"/>
      <point x="954" y="937" type="line"/>
      <point x="954" y="785" type="line"/>
    </contour>
  </outline>
</glyph>
<glyph name="Euro" format="2">
  <advance width="1434"/>
  <unicode hex="20AC"/>
  <outline>
    <contour>
      <point x="1128" y="986" type="line"/>
      <point x="1054" y="818" type="line"/>
      <point x="64" y="818" type="line"/>
      <point x="128" y="986" type="line"/>
    </contour>
    <contour>
      <point x="980" y="672" type="line"/>
      <point x="894" y="498" type="line"/>
      <point x="64" y="498" type="line"/>
      <point x="128" y="672" type="line"/>
    </contour>
    <contour>
      <point x="1330" y="1388" type="qcurve"/>
      <point x="1182" y="1074" type="line"/>
      <point x="1164" y="1080"/>
      <point x="1096" y="1119"/>
      <point x="996" y="1154"/>
      <point x="930" y="1154" type="qcurve" smooth="yes"/>
      <point x="845" y="1154"/>
      <point x="727" y="1075"/>
      <point x="666" y="895"/>
      <point x="666" y="742" type="qcurve" smooth="yes"/>
      <point x="666" y="588"/>
      <point x="727" y="409"/>
      <point x="845" y="334"/>
      <point x="930" y="334" type="qcurve" smooth="yes"/>
      <point x="995" y="334"/>
      <point x="1093" y="368"/>
      <point x="1160" y="408"/>
      <point x="1176" y="416" type="qcurve"/>
      <point x="1324" y="102" type="line"/>
      <point x="1243" y="41"/>
      <point x="1044" y="-20"/>
      <point x="930" y="-20" type="qcurve" smooth="yes"/>
      <point x="733" y="-20"/>
      <point x="428" y="157"/>
      <point x="256" y="498"/>
      <point x="256" y="742" type="qcurve" smooth="yes"/>
      <point x="256" y="987"/>
      <point x="428" y="1330"/>
      <point x="733" y="1510"/>
      <point x="930" y="1510" type="qcurve" smooth="yes"/>
      <point x="1049" y="1510"/>
      <point x="1247" y="1447"/>
    </contour>
  </outline>
</glyph>
<glyph name="uni20B7" format="2">
  <advance width="1672"/>
  <unicode hex="20B7"/>
  <outline>
    <contour>
      <point x="268" y="204" type="qcurve"/>
      <point x="232" y="204" type="line"/>
      <point x="233" y="332"/>
      <point x="348" y="500"/>
      <point x="460" y="500" type="qcurve" smooth="yes"/>
      <point x="562" y="500"/>
      <point x="678" y="390"/>
      <point x="678" y="268" type="qcurve" smooth="yes"/>
      <point x="678" y="-120" type="line"/>
      <point x="486" y="-120" type="line"/>
      <point x="486" y="198" type="line" smooth="yes"/>
      <point x="486" y="266"/>
      <point x="445" y="340"/>
      <point x="392" y="340" type="qcurve" smooth="yes"/>
      <point x="321" y="340"/>
      <point x="268" y="260"/>
    </contour>
    <contour>
      <point x="286" y="360" type="line"/>
      <point x="286" y="-120" type="line"/>
      <point x="96" y="-120" type="line"/>
      <point x="96" y="492" type="line"/>
      <point x="250" y="492" type="line"/>
    </contour>
    <contour>
      <point x="622" y="204" type="qcurve"/>
      <point x="620" y="204" type="line"/>
      <point x="620" y="332"/>
      <point x="737" y="500"/>
      <point x="846" y="500" type="qcurve" smooth="yes"/>
      <point x="949" y="500"/>
      <point x="1064" y="390"/>
      <point x="1064" y="268" type="qcurve" smooth="yes"/>
      <point x="1064" y="-120" type="line"/>
      <point x="872" y="-120" type="line"/>
      <point x="872" y="198" type="line" smooth="yes"/>
      <point x="872" y="266"/>
      <point x="832" y="340"/>
      <point x="780" y="340" type="qcurve" smooth="yes"/>
      <point x="708" y="340"/>
      <point x="623" y="259"/>
    </contour>
    <contour>
      <point x="1186" y="392" type="qcurve"/>
      <point x="1187" y="429"/>
      <point x="1149" y="490"/>
      <point x="1056" y="544"/>
      <point x="972" y="570" type="qcurve" smooth="yes"/>
      <point x="814" y="620"/>
      <point x="556" y="746"/>
      <point x="404" y="929"/>
      <point x="404" y="1064" type="qcurve" smooth="yes"/>
      <point x="404" y="1194"/>
      <point x="559" y="1379"/>
      <point x="826" y="1478"/>
      <point x="994" y="1478" type="qcurve" smooth="yes"/>
      <point x="1172" y="1478"/>
      <point x="1433" y="1367"/>
      <point x="1576" y="1161"/>
      <point x="1576" y="1018" type="qcurve"/>
      <point x="1186" y="1018" type="line"/>
      <point x="1187" y="1097"/>
      <point x="1078" y="1170"/>
      <point x="986" y="1170" type="qcurve" smooth="yes"/>
      <point x="927" y="1170"/>
      <point x="840" y="1139"/>
      <point x="794" y="1090"/>
      <point x="794" y="1062" type="qcurve" smooth="yes"/>
      <point x="794" y="1023"/>
      <point x="867" y="963"/>
      <point x="986" y="916"/>
      <point x="1056" y="894" type="qcurve" smooth="yes"/>
      <point x="1212" y="844"/>
      <point x="1446" y="717"/>
      <point x="1576" y="533"/>
      <point x="1576" y="396" type="qcurve" smooth="yes"/>
      <point x="1576" y="252"/>
      <point x="1427" y="68"/>
      <point x="1133" y="-20"/>
      <point x="916" y="-20" type="qcurve" smooth="yes"/>
      <point x="798" y="-20"/>
      <point x="570" y="12"/>
      <point x="362" y="62"/>
      <point x="184" y="114"/>
      <point x="116" y="134" type="qcurve"/>
      <point x="222" y="430" type="line"/>
      <point x="324" y="353"/>
      <point x="554" y="291"/>
      <point x="797" y="280"/>
      <point x="916" y="280" type="qcurve" smooth="yes"/>
      <point x="1047" y="280"/>
      <point x="1187" y="323"/>
    </contour>
  </outline>
</glyph>
<glyph name="uni20B9" format="2">
  <advance width="1222"/>
  <unicode hex="20B9"/>
  <outline>
    <contour>
      <point x="1138" y="1108" type="line"/>
      <point x="1082" y="884" type="line"/>
      <point x="84" y="884" type="line"/>
      <point x="140" y="1108" type="line"/>
    </contour>
    <contour>
      <point x="588" y="0" type="line"/>
      <point x="114" y="552" type="line"/>
      <point x="116" y="774" type="line"/>
      <point x="350" y="774" type="line" smooth="yes"/>
      <point x="419" y="774"/>
      <point x="505" y="836"/>
      <point x="546" y="933"/>
      <point x="546" y="984" type="qcurve" smooth="yes"/>
      <point x="546" y="1062"/>
      <point x="460" y="1172"/>
      <point x="350" y="1172" type="qcurve" smooth="yes"/>
      <point x="84" y="1172" type="line"/>
      <point x="152" y="1490" type="line"/>
      <point x="350" y="1490" type="line" smooth="yes"/>
      <point x="541" y="1490"/>
      <point x="802" y="1383"/>
      <point x="936" y="1176"/>
      <point x="936" y="1024" type="qcurve" smooth="yes"/>
      <point x="936" y="893"/>
      <point x="866" y="709"/>
      <point x="722" y="579"/>
      <point x="610" y="528" type="qcurve"/>
      <point x="594" y="520" type="line"/>
      <point x="1006" y="14" type="line"/>
      <point x="1006" y="0" type="line"/>
    </contour>
    <contour>
      <point x="1140" y="1490" type="line"/>
      <point x="1082" y="1260" type="line"/>
      <point x="238" y="1256" type="line"/>
      <point x="296" y="1490" type="line"/>
    </contour>
  </outline>
</glyph>
<glyph name="uni20BB" format="2">
  <advance width="2068"/>
  <unicode hex="20BB"/>
  <outline>
    <contour>
      <point x="998" y="986" type="qcurve" smooth="yes"/>
      <point x="998" y="422" type="line" smooth="yes"/>
      <point x="998" y="380"/>
      <point x="1058" y="297"/>
      <point x="1186" y="242"/>
      <point x="1286" y="242" type="qcurve"/>
      <point x="1286" y="0" type="line"/>
      <point x="1096" y="0"/>
      <point x="849" y="60"/>
      <point x="707" y="161"/>
      <point x="640" y="282"/>
      <point x="622" y="407"/>
      <point x="622" y="460" type="qcurve" smooth="yes"/>
      <point x="622" y="1082" type="line"/>
      <point x="623" y="1132"/>
      <point x="588" y="1196"/>
      <point x="538" y="1196" type="qcurve" smooth="yes"/>
      <point x="506" y="1196"/>
      <point x="448" y="1177"/>
      <point x="448" y="1138" type="qcurve" smooth="yes"/>
      <point x="448" y="1098"/>
      <point x="519" y="1082"/>
      <point x="550" y="1082" type="qcurve" smooth="yes"/>
      <point x="1320" y="1082" type="line"/>
      <point x="1320" y="840" type="line"/>
      <point x="512" y="840" type="line"/>
      <point x="320" y="841"/>
      <point x="130" y="999"/>
      <point x="130" y="1126" type="qcurve" smooth="yes"/>
      <point x="130" y="1257"/>
      <point x="333" y="1414"/>
      <point x="544" y="1414" type="qcurve" smooth="yes"/>
      <point x="722" y="1414"/>
      <point x="919" y="1301"/>
      <point x="998" y="1107"/>
    </contour>
    <contour>
      <point x="430" y="280" type="line"/>
      <point x="308" y="562" type="line"/>
      <point x="1074" y="808" type="line"/>
      <point x="1182" y="666" type="line"/>
      <point x="1368" y="756" type="line"/>
      <point x="1496" y="594" type="line"/>
      <point x="1529" y="600"/>
      <point x="1572" y="632"/>
      <point x="1592" y="677"/>
      <point x="1592" y="702" type="qcurve" smooth="yes"/>
      <point x="1592" y="780"/>
      <point x="1469" y="840"/>
      <point x="1320" y="840" type="qcurve"/>
      <point x="1320" y="1082" type="line"/>
      <point x="1481" y="1082"/>
      <point x="1714" y="1032"/>
      <point x="1865" y="935"/>
      <point x="1938" y="797"/>
      <point x="1938" y="710" type="qcurve" smooth="yes"/>
      <point x="1938" y="598"/>
      <point x="1834" y="441"/>
      <point x="1673" y="346"/>
      <point x="1498" y="302"/>
      <point x="1428" y="302" type="qcurve"/>
      <point x="1312" y="434" type="line"/>
      <point x="1120" y="332" type="line"/>
      <point x="1004" y="482" type="line"/>
    </contour>
  </outline>
</glyph>
<glyph name="uni20BE" format="2">
  <advance width="1620"/>
  <unicode hex="20BE"/>
  <outline>
    <contour>
      <point x="1032" y="704" type="line"/>
      <point x="856" y="704" type="line"/>
      <point x="856" y="1490" type="line"/>
      <point x="1032" y="1490" type="line"/>
    </contour>
    <contour>
      <point x="770" y="704" type="line"/>
      <point x="594" y="704" type="line"/>
      <point x="594" y="1490" type="line"/>
      <point x="770" y="1490" type="line"/>
    </contour>
    <contour>
      <point x="142" y="0" type="line"/>
      <point x="142" y="302" type="line"/>
      <point x="1486" y="302" type="line"/>
      <point x="1486" y="0" type="line"/>
    </contour>
    <contour>
      <point x="820" y="98" type="line"/>
      <point x="582" y="99"/>
      <point x="279" y="254"/>
      <point x="134" y="528"/>
      <point x="134" y="706" type="qcurve" smooth="yes"/>
      <point x="134" y="915"/>
      <point x="306" y="1216"/>
      <point x="612" y="1378"/>
      <point x="812" y="1378" type="qcurve" smooth="yes"/>
      <point x="1007" y="1378"/>
      <point x="1312" y="1216"/>
      <point x="1486" y="914"/>
      <point x="1486" y="704" type="qcurve"/>
      <point x="1114" y="704" type="line"/>
      <point x="1115" y="845"/>
      <point x="1047" y="1010"/>
      <point x="913" y="1080"/>
      <point x="812" y="1080" type="qcurve" smooth="yes"/>
      <point x="709" y="1080"/>
      <point x="578" y="1019"/>
      <point x="515" y="862"/>
      <point x="514" y="716" type="qcurve"/>
      <point x="515" y="584"/>
      <point x="576" y="399"/>
      <point x="727" y="302"/>
      <point x="862" y="302" type="qcurve"/>
    </contour>
    <contour>
      <point x="258" y="302" type="line"/>
      <point x="264" y="320" type="line"/>
      <point x="282" y="320" type="line"/>
      <point x="286" y="302" type="line"/>
    </contour>
  </outline>
</glyph>
<glyph name="uni2113" format="2">
  <advance width="1292"/>
  <unicode hex="2113"/>
  <outline>
    <contour>
      <point x="936" y="350" type="qcurve"/>
      <point x="936" y="-20" type="line"/>
      <point x="616" y="-20"/>
      <point x="308" y="225"/>
      <point x="308" y="430" type="qcurve" smooth="yes"/>
      <point x="308" y="922" type="line" smooth="yes"/>
      <point x="308" y="1171"/>
      <point x="553" y="1446"/>
      <point x="762" y="1446" type="qcurve" smooth="yes"/>
      <point x="879" y="1446"/>
      <point x="1061" y="1355"/>
      <point x="1166" y="1187"/>
      <point x="1166" y="1070" type="qcurve" smooth="yes"/>
      <point x="1166" y="1026" type="line" smooth="yes"/>
      <point x="1166" y="941"/>
      <point x="1029" y="742"/>
      <point x="763" y="563"/>
      <point x="375" y="448"/>
      <point x="126" y="448" type="qcurve"/>
      <point x="126" y="634" type="line"/>
      <point x="315" y="634"/>
      <point x="588" y="700"/>
      <point x="761" y="812"/>
      <point x="844" y="952"/>
      <point x="844" y="1026" type="qcurve" smooth="yes"/>
      <point x="844" y="1070" type="line" smooth="yes"/>
      <point x="844" y="1090"/>
      <point x="801" y="1134"/>
      <point x="776" y="1134" type="qcurve" smooth="yes"/>
      <point x="751" y="1134"/>
      <point x="712" y="1074"/>
      <point x="712" y="1006" type="qcurve" smooth="yes"/>
      <point x="712" y="550" type="line"/>
      <point x="713" y="492"/>
      <point x="748" y="401"/>
      <point x="845" y="350"/>
    </contour>
  </outline>
</glyph>
<glyph name="uni2116" format="2">
  <advance width="2274"/>
  <unicode hex="2116"/>
  <outline>
    <contour>
      <point x="96" y="0" type="line"/>
      <point x="96" y="1490" type="line"/>
      <point x="408" y="1490" type="line"/>
      <point x="958" y="544" type="line"/>
      <point x="968" y="544" type="line"/>
      <point x="968" y="1490" type="line"/>
      <point x="1282" y="1490" type="line"/>
      <point x="1282" y="0" type="line"/>
      <point x="978" y="0" type="line"/>
      <point x="422" y="946" type="line"/>
      <point x="410" y="946" type="line"/>
      <point x="410" y="0" type="line"/>
    </contour>
    <contour>
      <point x="1492" y="424" type="line"/>
      <point x="1492" y="606" type="line"/>
      <point x="2142" y="606" type="line"/>
      <point x="2142" y="424" type="line"/>
    </contour>
    <contour>
      <point x="1816" y="722" type="qcurve" smooth="yes"/>
      <point x="1705" y="722"/>
      <point x="1542" y="821"/>
      <point x="1452" y="991"/>
      <point x="1452" y="1094" type="qcurve" smooth="yes"/>
      <point x="1452" y="1134" type="line" smooth="yes"/>
      <point x="1452" y="1236"/>
      <point x="1542" y="1405"/>
      <point x="1705" y="1506"/>
      <point x="1816" y="1506" type="qcurve" smooth="yes"/>
      <point x="1928" y="1506"/>
      <point x="2090" y="1405"/>
      <point x="2178" y="1236"/>
      <point x="2178" y="1134" type="qcurve" smooth="yes"/>
      <point x="2178" y="1094" type="line"/>
      <point x="2179" y="992"/>
      <point x="2092" y="823"/>
      <point x="1929" y="722"/>
    </contour>
    <contour>
      <point x="1816" y="926" type="qcurve"/>
      <point x="1875" y="925"/>
      <point x="1946" y="1017"/>
      <point x="1946" y="1094" type="qcurve" smooth="yes"/>
      <point x="1946" y="1134" type="line" smooth="yes"/>
      <point x="1946" y="1212"/>
      <point x="1875" y="1300"/>
      <point x="1816" y="1300" type="qcurve" smooth="yes"/>
      <point x="1755" y="1300"/>
      <point x="1688" y="1212"/>
      <point x="1688" y="1134" type="qcurve" smooth="yes"/>
      <point x="1688" y="1094" type="line"/>
      <point x="1687" y="1017"/>
      <point x="1757" y="925"/>
    </contour>
  </outline>
</glyph>
<glyph name="uni2117" format="2">
  <advance width="1350"/>
  <unicode hex="2117"/>
  <outline>
    <contour>
      <point x="478" y="666" type="line"/>
      <point x="478" y="1202" type="line"/>
      <point x="734" y="1202" type="line"/>
      <point x="823" y="1203"/>
      <point x="934" y="1095"/>
      <point x="934" y="1008" type="qcurve" smooth="yes"/>
      <point x="934" y="921"/>
      <point x="821" y="816"/>
      <point x="728" y="816" type="qcurve" smooth="yes"/>
      <point x="560" y="816" type="line"/>
      <point x="560" y="926" type="line"/>
      <point x="704" y="926" type="line"/>
      <point x="735" y="927"/>
      <point x="786" y="969"/>
      <point x="786" y="1008" type="qcurve" smooth="yes"/>
      <point x="786" y="1046"/>
      <point x="736" y="1090"/>
      <point x="704" y="1090" type="qcurve" smooth="yes"/>
      <point x="632" y="1090" type="line"/>
      <point x="632" y="666" type="line"/>
    </contour>
    <contour>
      <point x="674" y="346" type="qcurve" smooth="yes"/>
      <point x="554" y="346"/>
      <point x="343" y="437"/>
      <point x="184" y="597"/>
      <point x="94" y="808"/>
      <point x="94" y="928" type="qcurve" smooth="yes"/>
      <point x="94" y="1048"/>
      <point x="184" y="1259"/>
      <point x="343" y="1419"/>
      <point x="554" y="1510"/>
      <point x="674" y="1510" type="qcurve" smooth="yes"/>
      <point x="795" y="1510"/>
      <point x="1006" y="1419"/>
      <point x="1166" y="1259"/>
      <point x="1256" y="1048"/>
      <point x="1256" y="928" type="qcurve" smooth="yes"/>
      <point x="1256" y="808"/>
      <point x="1166" y="597"/>
      <point x="1007" y="437"/>
      <point x="796" y="346"/>
    </contour>
    <contour>
      <point x="674" y="510" type="qcurve" smooth="yes"/>
      <point x="791" y="510"/>
      <point x="982" y="622"/>
      <point x="1094" y="813"/>
      <point x="1094" y="928" type="qcurve" smooth="yes"/>
      <point x="1094" y="1044"/>
      <point x="981" y="1233"/>
      <point x="790" y="1346"/>
      <point x="674" y="1346" type="qcurve" smooth="yes"/>
      <point x="559" y="1346"/>
      <point x="369" y="1233"/>
      <point x="256" y="1044"/>
      <point x="256" y="928" type="qcurve" smooth="yes"/>
      <point x="256" y="813"/>
      <point x="369" y="622"/>
      <point x="559" y="510"/>
    </contour>
  </outline>
</glyph>
<glyph name="uni214F" format="2">
  <advance width="2726"/>
  <unicode hex="214F"/>
  <outline>
    <contour>
      <point x="200" y="-20" type="qcurve"/>
      <point x="200" y="282" type="line"/>
      <point x="344" y="282"/>
      <point x="512" y="315"/>
      <point x="595" y="382"/>
      <point x="620" y="485"/>
      <point x="620" y="556" type="qcurve" smooth="yes"/>
      <point x="620" y="576"/>
      <point x="606" y="596"/>
      <point x="588" y="596" type="qcurve" smooth="yes"/>
      <point x="569" y="596"/>
      <point x="562" y="576"/>
      <point x="562" y="556" type="qcurve" smooth="yes"/>
      <point x="562" y="485"/>
      <point x="586" y="382"/>
      <point x="665" y="315"/>
      <point x="832" y="282"/>
      <point x="974" y="282" type="qcurve" smooth="yes"/>
      <point x="1117" y="282"/>
      <point x="1286" y="315"/>
      <point x="1369" y="382"/>
      <point x="1394" y="485"/>
      <point x="1394" y="556" type="qcurve" smooth="yes"/>
      <point x="1394" y="573"/>
      <point x="1382" y="596"/>
      <point x="1362" y="596" type="qcurve" smooth="yes"/>
      <point x="1345" y="596"/>
      <point x="1336" y="576"/>
      <point x="1336" y="556" type="qcurve" smooth="yes"/>
      <point x="1336" y="485"/>
      <point x="1360" y="382"/>
      <point x="1442" y="315"/>
      <point x="1609" y="282"/>
      <point x="1752" y="282" type="qcurve" smooth="yes"/>
      <point x="1894" y="282"/>
      <point x="2061" y="315"/>
      <point x="2144" y="382"/>
      <point x="2170" y="485"/>
      <point x="2170" y="556" type="qcurve" smooth="yes"/>
      <point x="2170" y="576"/>
      <point x="2156" y="596"/>
      <point x="2138" y="596" type="qcurve" smooth="yes"/>
      <point x="2119" y="596"/>
      <point x="2110" y="573"/>
      <point x="2110" y="556" type="qcurve" smooth="yes"/>
      <point x="2110" y="485"/>
      <point x="2134" y="382"/>
      <point x="2216" y="315"/>
      <point x="2383" y="282"/>
      <point x="2526" y="282" type="qcurve"/>
      <point x="2526" y="-20" type="line"/>
      <point x="2305" y="-20"/>
      <point x="1971" y="128"/>
      <point x="1784" y="391"/>
      <point x="1784" y="564" type="qcurve" smooth="yes"/>
      <point x="1784" y="666"/>
      <point x="1855" y="815"/>
      <point x="2011" y="896"/>
      <point x="2138" y="896" type="qcurve" smooth="yes"/>
      <point x="2265" y="896"/>
      <point x="2422" y="815"/>
      <point x="2494" y="666"/>
      <point x="2494" y="564" type="qcurve" smooth="yes"/>
      <point x="2494" y="391"/>
      <point x="2308" y="128"/>
      <point x="1975" y="-20"/>
      <point x="1752" y="-20" type="qcurve" smooth="yes"/>
      <point x="1531" y="-20"/>
      <point x="1195" y="128"/>
      <point x="1006" y="391"/>
      <point x="1006" y="564" type="qcurve" smooth="yes"/>
      <point x="1006" y="666"/>
      <point x="1079" y="815"/>
      <point x="1236" y="896"/>
      <point x="1362" y="896" type="qcurve" smooth="yes"/>
      <point x="1490" y="896"/>
      <point x="1648" y="815"/>
      <point x="1720" y="666"/>
      <point x="1720" y="564" type="qcurve" smooth="yes"/>
      <point x="1720" y="391"/>
      <point x="1534" y="128"/>
      <point x="1199" y="-20"/>
      <point x="974" y="-20" type="qcurve" smooth="yes"/>
      <point x="754" y="-20"/>
      <point x="419" y="128"/>
      <point x="232" y="391"/>
      <point x="232" y="564" type="qcurve" smooth="yes"/>
      <point x="232" y="666"/>
      <point x="305" y="815"/>
      <point x="462" y="896"/>
      <point x="588" y="896" type="qcurve" smooth="yes"/>
      <point x="716" y="896"/>
      <point x="872" y="815"/>
      <point x="942" y="666"/>
      <point x="942" y="564" type="qcurve" smooth="yes"/>
      <point x="942" y="391"/>
      <point x="758" y="128"/>
      <point x="425" y="-20"/>
    </contour>
  </outline>
</glyph>
<glyph name="uni2185" format="2">
  <advance width="1626"/>
  <unicode hex="2185"/>
  <outline>
    <contour>
      <point x="1166" y="512" type="qcurve"/>
      <point x="1434" y="358" type="line"/>
      <point x="1369" y="244"/>
      <point x="1202" y="74"/>
      <point x="976" y="-20"/>
      <point x="822" y="-20" type="qcurve" smooth="yes"/>
      <point x="615" y="-20"/>
      <point x="323" y="154"/>
      <point x="168" y="475"/>
      <point x="168" y="698" type="qcurve" smooth="yes"/>
      <point x="168" y="792" type="line"/>
      <point x="169" y="1016"/>
      <point x="327" y="1337"/>
      <point x="621" y="1510"/>
      <point x="824" y="1510" type="qcurve" smooth="yes"/>
      <point x="1014" y="1510"/>
      <point x="1287" y="1371"/>
      <point x="1444" y="1131"/>
      <point x="1458" y="978" type="qcurve"/>
      <point x="1082" y="978" type="line"/>
      <point x="1081" y="1094"/>
      <point x="949" y="1208"/>
      <point x="824" y="1208" type="qcurve" smooth="yes"/>
      <point x="712" y="1208"/>
      <point x="591" y="1116"/>
      <point x="546" y="933"/>
      <point x="546" y="794" type="qcurve" smooth="yes"/>
      <point x="546" y="698" type="line"/>
      <point x="547" y="554"/>
      <point x="590" y="370"/>
      <point x="717" y="282"/>
      <point x="842" y="282" type="qcurve" smooth="yes"/>
      <point x="902" y="282"/>
      <point x="1011" y="313"/>
      <point x="1116" y="412"/>
    </contour>
    <contour>
      <point x="1426" y="562" type="line"/>
      <point x="1426" y="-360" type="line"/>
      <point x="1050" y="-360" type="line"/>
      <point x="1050" y="562" type="line"/>
    </contour>
  </outline>
</glyph>
<glyph name="arrowleft" format="2">
  <advance width="1954"/>
  <unicode hex="2190"/>
  <outline>
    <contour>
      <point x="990" y="-136" type="line"/>
      <point x="202" y="652" type="line"/>
      <point x="991" y="1440" type="line"/>
      <point x="1197" y="1234" type="line"/>
      <point x="945" y="982" type="line" smooth="yes"/>
      <point x="889" y="926"/>
      <point x="732" y="805"/>
      <point x="586" y="703"/>
      <point x="546" y="674" type="qcurve"/>
      <point x="546" y="746" type="line"/>
      <point x="583" y="754"/>
      <point x="720" y="781"/>
      <point x="871" y="802"/>
      <point x="928" y="802" type="qcurve" smooth="yes"/>
      <point x="1698" y="802" type="line"/>
      <point x="1698" y="500" type="line"/>
      <point x="928" y="500" type="line" smooth="yes"/>
      <point x="871" y="500"/>
      <point x="720" y="521"/>
      <point x="583" y="548"/>
      <point x="546" y="556" type="qcurve"/>
      <point x="546" y="627" type="line"/>
      <point x="576" y="606"/>
      <point x="679" y="533"/>
      <point x="798" y="446"/>
      <point x="908" y="358"/>
      <point x="945" y="321" type="qcurve" smooth="yes"/>
      <point x="1196" y="70" type="line"/>
    </contour>
  </outline>
</glyph>
<glyph name="arrowright" format="2">
  <advance width="1954"/>
  <unicode hex="2192"/>
  <outline>
    <contour>
      <point x="964" y="-136" type="line"/>
      <point x="758" y="70" type="line"/>
      <point x="1009" y="321" type="line" smooth="yes"/>
      <point x="1046" y="358"/>
      <point x="1156" y="446"/>
      <point x="1275" y="533"/>
      <point x="1378" y="606"/>
      <point x="1408" y="627" type="qcurve"/>
      <point x="1408" y="556" type="line"/>
      <point x="1371" y="548"/>
      <point x="1234" y="521"/>
      <point x="1083" y="500"/>
      <point x="1026" y="500" type="qcurve" smooth="yes"/>
      <point x="256" y="500" type="line"/>
      <point x="256" y="802" type="line"/>
      <point x="1026" y="802" type="line" smooth="yes"/>
      <point x="1083" y="802"/>
      <point x="1234" y="781"/>
      <point x="1371" y="754"/>
      <point x="1408" y="746" type="qcurve"/>
      <point x="1408" y="674" type="line"/>
      <point x="1368" y="703"/>
      <point x="1222" y="805"/>
      <point x="1065" y="926"/>
      <point x="1009" y="982" type="qcurve" smooth="yes"/>
      <point x="757" y="1234" type="line"/>
      <point x="963" y="1440" type="line"/>
      <point x="1752" y="652" type="line"/>
    </contour>
  </outline>
</glyph>
<glyph name="arrowboth" format="2">
  <advance width="2746"/>
  <unicode hex="2194"/>
  <outline>
    <contour>
      <point x="900" y="-45" type="line"/>
      <point x="202" y="652" type="line"/>
      <point x="901" y="1349" type="line"/>
      <point x="1106" y="1144" type="line"/>
      <point x="945" y="982" type="line" smooth="yes"/>
      <point x="889" y="926"/>
      <point x="732" y="805"/>
      <point x="586" y="703"/>
      <point x="546" y="674" type="qcurve"/>
      <point x="546" y="746" type="line"/>
      <point x="583" y="754"/>
      <point x="720" y="781"/>
      <point x="871" y="802"/>
      <point x="928" y="802" type="qcurve" smooth="yes"/>
      <point x="1818" y="802" type="line" smooth="yes"/>
      <point x="1875" y="802"/>
      <point x="2026" y="781"/>
      <point x="2163" y="754"/>
      <point x="2200" y="746" type="qcurve"/>
      <point x="2200" y="674" type="line"/>
      <point x="2160" y="703"/>
      <point x="2014" y="805"/>
      <point x="1857" y="926"/>
      <point x="1801" y="982" type="qcurve" smooth="yes"/>
      <point x="1640" y="1144" type="line"/>
      <point x="1845" y="1349" type="line"/>
      <point x="2544" y="652" type="line"/>
      <point x="1846" y="-45" type="line"/>
      <point x="1640" y="160" type="line"/>
      <point x="1801" y="321" type="line" smooth="yes"/>
      <point x="1838" y="358"/>
      <point x="1948" y="446"/>
      <point x="2067" y="533"/>
      <point x="2170" y="606"/>
      <point x="2200" y="627" type="qcurve"/>
      <point x="2200" y="556" type="line"/>
      <point x="2163" y="548"/>
      <point x="2026" y="521"/>
      <point x="1875" y="500"/>
      <point x="1818" y="500" type="qcurve" smooth="yes"/>
      <point x="928" y="500" type="line" smooth="yes"/>
      <point x="871" y="500"/>
      <point x="720" y="521"/>
      <point x="583" y="548"/>
      <point x="546" y="556" type="qcurve"/>
      <point x="546" y="627" type="line"/>
      <point x="576" y="606"/>
      <point x="679" y="533"/>
      <point x="798" y="446"/>
      <point x="908" y="358"/>
      <point x="945" y="321" type="qcurve" smooth="yes"/>
      <point x="1106" y="160" type="line"/>
    </contour>
  </outline>
</glyph>
<glyph name="arrowupdn" format="2">
  <advance width="1798"/>
  <unicode hex="2195"/>
  <outline>
    <contour>
      <point x="899" y="-519" type="line"/>
      <point x="202" y="179" type="line"/>
      <point x="407" y="385" type="line"/>
      <point x="568" y="224" type="line" smooth="yes"/>
      <point x="605" y="187"/>
      <point x="693" y="77"/>
      <point x="780" y="-42"/>
      <point x="853" y="-145"/>
      <point x="874" y="-175" type="qcurve"/>
      <point x="803" y="-175" type="line"/>
      <point x="795" y="-138"/>
      <point x="768" y="-1"/>
      <point x="747" y="150"/>
      <point x="747" y="207" type="qcurve" smooth="yes"/>
      <point x="747" y="1097" type="line" smooth="yes"/>
      <point x="747" y="1154"/>
      <point x="768" y="1305"/>
      <point x="795" y="1442"/>
      <point x="803" y="1479" type="qcurve"/>
      <point x="874" y="1479" type="line"/>
      <point x="853" y="1449"/>
      <point x="780" y="1346"/>
      <point x="693" y="1227"/>
      <point x="605" y="1117"/>
      <point x="568" y="1080" type="qcurve" smooth="yes"/>
      <point x="407" y="919" type="line"/>
      <point x="202" y="1125" type="line"/>
      <point x="899" y="1823" type="line"/>
      <point x="1596" y="1124" type="line"/>
      <point x="1391" y="919" type="line"/>
      <point x="1229" y="1080" type="line" smooth="yes"/>
      <point x="1173" y="1136"/>
      <point x="1052" y="1293"/>
      <point x="950" y="1439"/>
      <point x="921" y="1479" type="qcurve"/>
      <point x="993" y="1479" type="line"/>
      <point x="1001" y="1442"/>
      <point x="1028" y="1305"/>
      <point x="1049" y="1154"/>
      <point x="1049" y="1097" type="qcurve" smooth="yes"/>
      <point x="1049" y="207" type="line" smooth="yes"/>
      <point x="1049" y="150"/>
      <point x="1028" y="-1"/>
      <point x="1001" y="-138"/>
      <point x="993" y="-175" type="qcurve"/>
      <point x="921" y="-175" type="line"/>
      <point x="950" y="-135"/>
      <point x="1052" y="11"/>
      <point x="1173" y="168"/>
      <point x="1229" y="224" type="qcurve" smooth="yes"/>
      <point x="1391" y="385" type="line"/>
      <point x="1596" y="180" type="line"/>
    </contour>
  </outline>
</glyph>
<glyph name="uni21A9" format="2">
  <advance width="2398"/>
  <unicode hex="21A9"/>
  <outline>
    <contour>
      <point x="990" y="-136" type="line"/>
      <point x="202" y="652" type="line"/>
      <point x="990" y="1438" type="line"/>
      <point x="1196" y="1234" type="line"/>
      <point x="945" y="982" type="line" smooth="yes"/>
      <point x="889" y="926"/>
      <point x="732" y="805"/>
      <point x="586" y="703"/>
      <point x="546" y="674" type="qcurve"/>
      <point x="546" y="746" type="line"/>
      <point x="583" y="754"/>
      <point x="720" y="781"/>
      <point x="871" y="802"/>
      <point x="928" y="802" type="qcurve" smooth="yes"/>
      <point x="1684" y="802" type="line" smooth="yes"/>
      <point x="1751" y="802"/>
      <point x="1847" y="855"/>
      <point x="1900" y="952"/>
      <point x="1900" y="1018" type="qcurve" smooth="yes"/>
      <point x="1900" y="1085"/>
      <point x="1847" y="1181"/>
      <point x="1751" y="1234"/>
      <point x="1684" y="1234" type="qcurve" smooth="yes"/>
      <point x="1574" y="1234" type="line"/>
      <point x="1574" y="1536" type="line"/>
      <point x="1684" y="1536" type="line" smooth="yes"/>
      <point x="1841" y="1536"/>
      <point x="2082" y="1404"/>
      <point x="2218" y="1170"/>
      <point x="2218" y="1018" type="qcurve" smooth="yes"/>
      <point x="2218" y="866"/>
      <point x="2082" y="632"/>
      <point x="1841" y="500"/>
      <point x="1684" y="500" type="qcurve" smooth="yes"/>
      <point x="928" y="500" type="line" smooth="yes"/>
      <point x="871" y="500"/>
      <point x="720" y="521"/>
      <point x="583" y="548"/>
      <point x="546" y="556" type="qcurve"/>
      <point x="546" y="627" type="line"/>
      <point x="576" y="606"/>
      <point x="679" y="533"/>
      <point x="798" y="446"/>
      <point x="908" y="358"/>
      <point x="945" y="321" type="qcurve" smooth="yes"/>
      <point x="1196" y="70" type="line"/>
    </contour>
  </outline>
</glyph>
<glyph name="emptyset" format="2">
  <advance width="1420"/>
  <unicode hex="2205"/>
  <outline>
    <contour>
      <point x="180" y="-50" type="line"/>
      <point x="102" y="30" type="line"/>
      <point x="1240" y="1166" type="line"/>
      <point x="1318" y="1090" type="line"/>
    </contour>
    <contour>
      <point x="712" y="-18" type="qcurve" smooth="yes"/>
      <point x="592" y="-18"/>
      <point x="383" y="72"/>
      <point x="225" y="230"/>
      <point x="136" y="439"/>
      <point x="136" y="558" type="qcurve" smooth="yes"/>
      <point x="136" y="677"/>
      <point x="225" y="884"/>
      <point x="383" y="1043"/>
      <point x="592" y="1132"/>
      <point x="712" y="1132" type="qcurve" smooth="yes"/>
      <point x="831" y="1132"/>
      <point x="1038" y="1043"/>
      <point x="1197" y="884"/>
      <point x="1286" y="677"/>
      <point x="1286" y="558" type="qcurve" smooth="yes"/>
      <point x="1286" y="439"/>
      <point x="1197" y="230"/>
      <point x="1038" y="72"/>
      <point x="831" y="-18"/>
    </contour>
    <contour>
      <point x="712" y="332" type="qcurve" smooth="yes"/>
      <point x="774" y="332"/>
      <point x="875" y="393"/>
      <point x="936" y="496"/>
      <point x="936" y="558" type="qcurve" smooth="yes"/>
      <point x="936" y="620"/>
      <point x="875" y="723"/>
      <point x="773" y="783"/>
      <point x="712" y="782" type="qcurve"/>
      <point x="664" y="783"/>
      <point x="582" y="748"/>
      <point x="520" y="686"/>
      <point x="485" y="605"/>
      <point x="486" y="558" type="qcurve"/>
      <point x="485" y="496"/>
      <point x="545" y="393"/>
      <point x="649" y="332"/>
    </contour>
  </outline>
</glyph>
